<?xml version="1.0" standalone="no"?>
<!DOCTYPE svg PUBLIC "-//W3C//DTD SVG 1.1//EN" "http://www.w3.org/Graphics/SVG/1.1/DTD/svg11.dtd" >
<svg xmlns="http://www.w3.org/2000/svg" xmlns:xlink="http://www.w3.org/1999/xlink" version="1.1">
<metadata>
Created by FontForge 20201107 at Fri Mar 25 22:19:23 2022
 By 
Copyright 2018, 2020 Deutsche Post AG
</metadata>
<defs>
<font id="." horiz-adv-x="543" >
  <font-face 
    font-family="."
    font-weight="300"
    font-stretch="condensed"
    units-per-em="1000"
    panose-1="2 15 4 6 2 2 4 2 2 4"
    ascent="800"
    descent="-200"
    x-height="496"
    cap-height="660"
    bbox="-171 -263 975 918"
    underline-thickness="50"
    underline-position="-105"
    unicode-range="U+000D-1F90D"
  />
<missing-glyph horiz-adv-x="500" 
d="M50 696h400v-696h-400v696zM400 50v596h-300v-596h300z" />
    <glyph glyph-name="f_f.liga" unicode="ff" horiz-adv-x="530" 
d="M104 0v448h-78v48h78v37q0 98 36 138.5t106 40.5q26 0 38 -3v-49q-6 1 -13.5 1.5t-19.5 0.5q-54 0 -72.5 -30t-18.5 -101v-35h190v37q0 98 36 138.5t106 40.5q26 0 38 -3v-49q-6 1 -13.5 1.5t-19.5 0.5q-54 0 -72.5 -30t-18.5 -101v-35h124v-48h-124v-448h-56v448h-190
v-448h-56z" />
    <glyph glyph-name="f_i.liga" unicode="fi" horiz-adv-x="472" 
d="M104 0v448h-78v48h78v37q0 98 36 138.5t106 40.5q26 0 38 -3v-49q-6 1 -13.5 1.5t-19.5 0.5q-54 0 -72.5 -30t-18.5 -101v-35h124v-48h-124v-448h-56zM378 595q-18 0 -29.5 12t-11.5 29t11.5 29.5t29.5 12.5t29.5 -12.5t11.5 -29.5t-11.5 -29t-29.5 -12zM350 0v496h56
v-496h-56z" />
    <glyph glyph-name="f_l.liga" unicode="fl" horiz-adv-x="500" 
d="M104 0v448h-78v48h78v37q0 98 36 138.5t106 40.5q26 0 38 -3v-49q-6 1 -13.5 1.5t-19.5 0.5q-54 0 -72.5 -30t-18.5 -101v-35h124v-48h-124v-448h-56zM442 -10q-52 0 -72 28t-20 75v607h56v-602q0 -33 11.5 -46.5t35.5 -13.5h11t12 1v-46q-16 -3 -34 -3z" />
    <glyph glyph-name="f_f_i.liga" unicode="ffi" horiz-adv-x="718" 
d="M104 0v448h-78v48h78v37q0 98 36 138.5t106 40.5q26 0 38 -3v-49q-6 1 -13.5 1.5t-19.5 0.5q-54 0 -72.5 -30t-18.5 -101v-35h190v37q0 98 36 138.5t106 40.5q26 0 38 -3v-49q-6 1 -13.5 1.5t-19.5 0.5q-54 0 -72.5 -30t-18.5 -101v-35h124v-48h-124v-448h-56v448h-190
v-448h-56zM624 595q-18 0 -29.5 12t-11.5 29t11.5 29.5t29.5 12.5t29.5 -12.5t11.5 -29.5t-11.5 -29t-29.5 -12zM596 0v496h56v-496h-56z" />
    <glyph glyph-name="f_f_l.liga" unicode="ffl" horiz-adv-x="746" 
d="M104 0v448h-78v48h78v37q0 98 36 138.5t106 40.5q26 0 38 -3v-49q-6 1 -13.5 1.5t-19.5 0.5q-54 0 -72.5 -30t-18.5 -101v-35h190v37q0 98 36 138.5t106 40.5q26 0 38 -3v-49q-6 1 -13.5 1.5t-19.5 0.5q-54 0 -72.5 -30t-18.5 -101v-35h124v-48h-124v-448h-56v448h-190
v-448h-56zM688 -10q-52 0 -72 28t-20 75v607h56v-602q0 -33 11.5 -46.5t35.5 -13.5h11t12 1v-46q-16 -3 -34 -3z" />
    <glyph glyph-name=".notdef" horiz-adv-x="500" 
d="M50 696h400v-696h-400v696zM400 50v596h-300v-596h300z" />
    <glyph glyph-name="uni0000" horiz-adv-x="0" 
 />
    <glyph glyph-name="uni000D" unicode="&#xd;" horiz-adv-x="191" 
 />
    <glyph glyph-name="space" unicode=" " horiz-adv-x="191" 
 />
    <glyph glyph-name="exclam" unicode="!" horiz-adv-x="286" 
d="M121 164l-10 496h64l-10 -496h-44zM143 -10q-20 0 -32.5 13.5t-12.5 32.5t12.5 32.5t32.5 13.5t32.5 -13.5t12.5 -32.5t-12.5 -32.5t-32.5 -13.5z" />
    <glyph glyph-name="quotedbl" unicode="&#x22;" horiz-adv-x="268" 
d="M45 491l-6 209h57l-6 -209h-45zM178 491l-6 209h57l-6 -209h-45z" />
    <glyph glyph-name="numbersign" unicode="#" 
d="M82 0l35 188h-83v50h93l34 184h-82v50h92l35 188h53l-35 -188h150l35 188h53l-35 -188h82v-50h-92l-34 -184h81v-50h-91l-35 -188h-53l35 188h-150l-35 -188h-53zM180 238h150l34 184h-150z" />
    <glyph glyph-name="dollar" unicode="$" 
d="M232 -70v83q-48 3 -89 20t-75 43l28 41q37 -27 76 -41t84 -14q65 0 101.5 29t36.5 84q0 40 -21.5 67.5t-69.5 45.5l-83 31q-62 23 -97.5 58.5t-35.5 98.5q0 70 44 110.5t111 49.5v84h55v-83q82 -5 156 -60l-30 -42q-36 27 -70.5 39t-79.5 12q-57 0 -92 -24.5t-35 -77.5
q0 -47 25.5 -71.5t71.5 -41.5l79 -30q60 -22 95 -58.5t35 -101.5q0 -73 -45.5 -117t-121.5 -51v-83h-53z" />
    <glyph glyph-name="percent" unicode="%" horiz-adv-x="656" 
d="M123 0l354 660h56l-354 -660h-56zM147 327q-55 0 -87 41t-32 114v29q0 73 32 114t87 41q56 0 87.5 -41t31.5 -114v-29q0 -73 -31.5 -114t-87.5 -41zM147 371q32 0 50.5 28.5t18.5 84.5v25q0 56 -19.5 84.5t-49.5 28.5q-31 0 -50 -28.5t-19 -84.5v-25q0 -56 19 -84.5
t50 -28.5zM509 -9q-55 0 -87 41t-32 114v29q0 73 32 114t87 41q56 0 87.5 -41t31.5 -114v-29q0 -73 -31.5 -114t-87.5 -41zM509 35q32 0 50.5 28.5t18.5 84.5v25q0 56 -19.5 84.5t-49.5 28.5q-31 0 -50 -28.5t-19 -84.5v-25q0 -56 19 -84.5t50 -28.5z" />
    <glyph glyph-name="ampersand" unicode="&#x26;" horiz-adv-x="620" 
d="M251 -15q-52 0 -97 18.5t-72.5 56t-27.5 94.5q0 63 37 108.5t110 83.5q-36 40 -59.5 83t-23.5 93q0 47 21.5 81t58 53t80.5 19q39 0 72 -15.5t53.5 -47t20.5 -80.5q0 -52 -22.5 -87.5t-56.5 -60t-69 -41.5l170 -183q47 89 54 224h54q-7 -162 -70 -264l89 -97l-36 -35
l-84 89q-39 -44 -90 -68t-112 -24zM174 524q0 -46 23.5 -83.5t54.5 -71.5q52 32 84 66.5t32 90.5q0 52 -26.5 76t-66.5 24q-42 0 -71.5 -25.5t-29.5 -76.5zM110 162q0 -49 22 -76.5t54.5 -39t66.5 -11.5q101 0 164 80l-191 204q-64 -40 -90 -75t-26 -82z" />
    <glyph glyph-name="quotesingle" unicode="'" horiz-adv-x="135" 
d="M45 491l-6 209h57l-6 -209h-45z" />
    <glyph glyph-name="parenleft" unicode="(" horiz-adv-x="305" 
d="M195 -190q-52 107 -74.5 213.5t-22.5 213.5v61q0 104 22.5 211.5t74.5 216.5h58q-50 -111 -72 -219.5t-22 -212.5v-53q0 -107 22 -214.5t72 -216.5h-58z" />
    <glyph glyph-name="parenright" unicode=")" horiz-adv-x="305" 
d="M52 -190q50 109 72 216.5t22 214.5v53q0 104 -22 212.5t-72 219.5h58q52 -109 74.5 -216.5t22.5 -211.5v-61q0 -107 -22.5 -213.5t-74.5 -213.5h-58z" />
    <glyph glyph-name="asterisk" unicode="*" horiz-adv-x="355" 
d="M110 426l-42 28l78 110l-120 38l17 48l115 -49l-5 138h49l-6 -138l116 49l17 -48l-120 -38l78 -110l-42 -28l-68 114z" />
    <glyph glyph-name="plus" unicode="+" 
d="M244 119v189h-164v49h164v189h55v-189h164v-49h-164v-189h-55z" />
    <glyph glyph-name="comma" unicode="," horiz-adv-x="196" 
d="M60 -120l-24 26q45 44 59 84q-18 1 -30 14t-12 32q0 20 13 33t32 13q21 0 33 -14t12 -38q0 -34 -23 -76t-60 -74z" />
    <glyph glyph-name="hyphen" unicode="-" horiz-adv-x="362" 
d="M44 281v55h274v-55h-274z" />
    <glyph glyph-name="period" unicode="." horiz-adv-x="196" 
d="M98 -10q-20 0 -32.5 13.5t-12.5 32.5t12.5 32.5t32.5 13.5t32.5 -13.5t12.5 -32.5t-12.5 -32.5t-32.5 -13.5z" />
    <glyph glyph-name="slash" unicode="/" horiz-adv-x="373" 
d="M30 0l255 700h58l-255 -700h-58z" />
    <glyph glyph-name="zero" unicode="0" 
d="M272 -15q-220 0 -220 312v66q0 312 220 312q219 0 219 -311v-68q0 -157 -56 -234t-163 -77zM272 38q80 0 120 63t40 200v58q0 137 -40 200t-120 63q-81 0 -121 -63t-40 -200v-58q0 -137 40 -200t121 -63z" />
    <glyph glyph-name="one" unicode="1" 
d="M111 0v51h137v558h-132v51h190v-609h141v-51h-336z" />
    <glyph glyph-name="two" unicode="2" 
d="M58 0v46l230 279q42 50 60.5 88t18.5 81q0 67 -35 97.5t-85 30.5q-48 0 -82 -20t-61 -54l-40 32q28 37 73 66t115 29q77 0 126 -47t49 -130q0 -54 -25.5 -100.5t-74.5 -107.5l-193 -238h311v-52h-387z" />
    <glyph glyph-name="three" unicode="3" 
d="M235 -15q-58 0 -109 19t-88 59l35 39q29 -30 71 -47t91 -17q71 0 112.5 37t41.5 107t-42.5 105t-116.5 35h-70v46l197 240h-279v52h344v-51l-199 -239h31q62 0 105.5 -24.5t66.5 -67t23 -97.5t-24 -99.5t-71.5 -70.5t-118.5 -26z" />
    <glyph glyph-name="four" unicode="4" 
d="M343 0v169h-311v49l288 442h79v-441h98v-50h-98v-169h-56zM333 598l-245 -379h255v379h-10z" />
    <glyph glyph-name="five" unicode="5" 
d="M248 -15q-66 0 -114 19.5t-83 56.5l34 40q30 -31 70 -47t93 -16q65 0 106 36t41 110q0 77 -40.5 112.5t-109.5 35.5h-146v328h335v-52h-279v-224h99q97 0 149 -54.5t52 -145.5q0 -87 -54 -143t-153 -56z" />
    <glyph glyph-name="six" unicode="6" 
d="M268 -15q-62 0 -108 28t-71 78.5t-25 116.5q0 41 11 85t37 97.5t71 121.5l99 148h65l-116 -173q-57 -85 -81 -142q26 33 61.5 51t78.5 18q52 0 94.5 -26t67.5 -73t25 -112t-26 -114.5t-73 -76.5t-110 -27zM122 208q0 -49 19 -88t52.5 -61.5t77.5 -22.5q68 0 108 47
t40 120q0 71 -38.5 115.5t-109.5 44.5q-37 0 -74 -17t-67 -60q-4 -19 -6 -38.5t-2 -39.5z" />
    <glyph glyph-name="seven" unicode="7" 
d="M137 0l256 608h-330v52h391v-50l-251 -610h-66z" />
    <glyph glyph-name="eight" unicode="8" 
d="M271 -15q-60 0 -108.5 22t-76.5 64.5t-28 103.5q0 124 116 170q-49 18 -73 57.5t-24 94.5q0 88 55 133t139 45t139 -45t55 -133q0 -55 -24 -94.5t-73 -57.5q117 -46 117 -170q0 -61 -28.5 -103.5t-76.5 -64.5t-109 -22zM271 365q59 0 99 32.5t40 97.5t-40 97.5t-99 32.5
t-99 -32.5t-40 -97.5t40 -97.5t99 -32.5zM271 35q68 0 111 36t43 105q0 70 -43 105.5t-111 35.5q-67 0 -110.5 -35.5t-43.5 -105.5q0 -69 43.5 -105t110.5 -36z" />
    <glyph glyph-name="nine" unicode="9" 
d="M196 0l116 173q57 85 81 142q-26 -33 -61.5 -51t-78.5 -18q-52 0 -94.5 26t-67.5 73.5t-25 111.5q0 66 26 115t73.5 76t109.5 27q63 0 108.5 -28t70.5 -78t25 -117q0 -41 -11 -85.5t-36.5 -97.5t-71.5 -121l-99 -148h-65zM124 457q0 -71 38.5 -115.5t109.5 -44.5
q37 0 74 17t67 60q4 19 6 38.5t2 39.5q0 49 -18.5 88t-52 61.5t-78.5 22.5q-67 0 -107.5 -47t-40.5 -120z" />
    <glyph glyph-name="colon" unicode=":" horiz-adv-x="196" 
d="M98 -10q-20 0 -32.5 13.5t-12.5 32.5t12.5 32.5t32.5 13.5t32.5 -13.5t12.5 -32.5t-12.5 -32.5t-32.5 -13.5zM98 416q-20 0 -32.5 13.5t-12.5 32.5t12.5 32.5t32.5 13.5t32.5 -13.5t12.5 -32.5t-12.5 -32.5t-32.5 -13.5z" />
    <glyph glyph-name="semicolon" unicode=";" horiz-adv-x="196" 
d="M60 -120l-24 26q45 44 59 84q-18 1 -30 14t-12 32q0 20 13 33t32 13q21 0 33 -14t12 -38q0 -34 -23 -76t-60 -74zM98 416q-20 0 -32.5 13.5t-12.5 32.5t12.5 32.5t32.5 13.5t32.5 -13.5t12.5 -32.5t-12.5 -32.5t-32.5 -13.5z" />
    <glyph glyph-name="less" unicode="&#x3c;" 
d="M455 140l-367 161v76l367 161v-53l-319 -141v-10l319 -141v-53z" />
    <glyph glyph-name="equal" unicode="=" 
d="M82 403v49h379v-49h-379zM82 200v49h379v-49h-379z" />
    <glyph glyph-name="greater" unicode="&#x3e;" 
d="M88 140v53l319 141v10l-319 141v53l367 -161v-76z" />
    <glyph glyph-name="question" unicode="?" horiz-adv-x="428" 
d="M161 164l-4 159l39 11q65 19 96 59t31 98q0 65 -37 99t-94 34q-38 0 -71 -13t-59 -42l-35 35q28 32 70 51.5t97 19.5q86 0 136 -48t50 -137q0 -76 -40.5 -124.5t-127.5 -75.5l-7 -126h-44zM183 -10q-20 0 -32.5 13.5t-12.5 32.5t12.5 32.5t32.5 13.5t32.5 -13.5
t12.5 -32.5t-12.5 -32.5t-32.5 -13.5z" />
    <glyph glyph-name="at" unicode="@" horiz-adv-x="950" 
d="M454 16q-71 0 -117 58t-46 158v34q0 101 46 159t116 58q49 0 82.5 -26t53.5 -65v81h50v-305q0 -58 24.5 -80.5t53.5 -22.5q44 0 72.5 46t28.5 152v30q0 114 -37 197t-111 127.5t-184 44.5q-165 0 -257.5 -102t-92.5 -292v-30q0 -127 44 -213.5t120.5 -131.5t173.5 -45
q56 0 103 14.5t81 38.5l27 -41q-40 -28 -92 -45t-119 -17q-111 0 -200.5 49t-141.5 146.5t-52 242.5v34q0 218 108 330t298 112q127 0 213.5 -50.5t130.5 -144t44 -222.5v-34q0 -88 -22.5 -142t-59 -78.5t-78.5 -24.5t-77 23.5t-45 69.5q-20 -40 -54 -66.5t-84 -26.5z
M347 234q0 -85 33.5 -127t85.5 -42q44 0 73.5 26t45.5 62v193q-16 36 -45.5 62t-73.5 26q-52 0 -85.5 -42.5t-33.5 -127.5v-30z" />
    <glyph glyph-name="A" unicode="A" horiz-adv-x="525" 
d="M9 0l207 660h93l207 -660h-62l-58 188h-270l-58 -188h-59zM255 608l-114 -370h239l-114 370h-11z" />
    <glyph glyph-name="B" unicode="B" horiz-adv-x="554" 
d="M82 0v660h221q50 0 89.5 -19t63 -55t23.5 -89v-20q0 -50 -24 -85t-65 -51q49 -14 78.5 -52t29.5 -99v-20q0 -53 -24.5 -91.5t-66 -58.5t-93.5 -20h-232zM301 609h-160v-246h160q57 0 88.5 30t31.5 85v15q0 56 -31.5 86t-88.5 30zM141 51h173q53 0 89 28t36 95v15
q0 65 -36 94t-89 29h-173v-261z" />
    <glyph glyph-name="C" unicode="C" horiz-adv-x="534" 
d="M300 -15q-75 0 -130.5 38t-85.5 108t-30 166v66q0 97 30 166.5t85.5 107.5t130.5 38q116 0 196 -92l-37 -37q-72 76 -157 76q-87 0 -138 -67.5t-51 -195.5v-58q0 -127 51.5 -195t137.5 -68q46 0 85 19.5t72 56.5l37 -37q-37 -42 -85.5 -67t-110.5 -25z" />
    <glyph glyph-name="D" unicode="D" horiz-adv-x="599" 
d="M82 0v660h196q131 0 199 -82t68 -222v-52q0 -139 -68 -221.5t-199 -82.5h-196zM279 608h-138v-556h138q101 0 154 66t53 190v44q0 125 -53 190.5t-154 65.5z" />
    <glyph glyph-name="E" unicode="E" horiz-adv-x="500" 
d="M82 0v660h361v-52h-302v-246h275v-51h-275v-259h311v-52h-370z" />
    <glyph glyph-name="F" unicode="F" horiz-adv-x="483" 
d="M82 0v660h359v-52h-300v-263h273v-52h-273v-293h-59z" />
    <glyph glyph-name="G" unicode="G" horiz-adv-x="585" 
d="M302 -15q-118 0 -183 84t-65 228v66q0 97 30.5 166.5t87.5 107.5t134 38q65 0 114 -24.5t86 -67.5l-37 -37q-34 38 -74 57t-89 19q-89 0 -141 -67.5t-52 -195.5v-58q0 -127 49.5 -195t139.5 -68q78 0 125.5 48t47.5 148v67h-158v51h216v-117q0 -118 -63.5 -184
t-167.5 -66z" />
    <glyph glyph-name="H" unicode="H" horiz-adv-x="623" 
d="M82 0v660h59v-301h341v301h59v-660h-59v307h-341v-307h-59z" />
    <glyph glyph-name="I" unicode="I" horiz-adv-x="223" 
d="M82 0v660h59v-660h-59z" />
    <glyph glyph-name="J" unicode="J" horiz-adv-x="402" 
d="M149 -15q-85 0 -145 56l30 42q29 -24 55.5 -34.5t58.5 -10.5q64 0 93.5 39t29.5 121v462h59v-463q0 -79 -22.5 -125t-63.5 -66.5t-95 -20.5z" />
    <glyph glyph-name="K" unicode="K" horiz-adv-x="553" 
d="M82 0v660h59v-301h113l208 301h67l-226 -323l234 -337h-74l-212 308h-110v-308h-59z" />
    <glyph glyph-name="L" unicode="L" horiz-adv-x="467" 
d="M82 0v660h59v-608h298v-52h-357z" />
    <glyph glyph-name="M" unicode="M" horiz-adv-x="742" 
d="M82 0v660h101l185 -496h11l182 496h99v-660h-57v604h-10l-184 -496h-73l-187 496h-10v-604h-57z" />
    <glyph glyph-name="N" unicode="N" horiz-adv-x="626" 
d="M82 0v660h96l299 -603h10v603h57v-660h-96l-299 603h-10v-603h-57z" />
    <glyph glyph-name="O" unicode="O" horiz-adv-x="602" 
d="M301 -15q-118 0 -182.5 83.5t-64.5 228.5v66q0 145 64.5 228.5t182.5 83.5t182.5 -83.5t64.5 -228.5v-66q0 -145 -64.5 -228.5t-182.5 -83.5zM301 38q89 0 138.5 67t49.5 196v58q0 129 -49.5 196t-138.5 67t-138.5 -67t-49.5 -196v-58q0 -129 49.5 -196t138.5 -67z" />
    <glyph glyph-name="P" unicode="P" horiz-adv-x="520" 
d="M82 0v660h210q87 0 140.5 -50t53.5 -134v-20q0 -84 -53.5 -134t-140.5 -50h-151v-272h-59zM292 609h-151v-286h151q65 0 100 35t35 100v16q0 65 -35 100t-100 35z" />
    <glyph glyph-name="Q" unicode="Q" horiz-adv-x="602" 
d="M514 -90l-280 84q-82 25 -131 101.5t-49 201.5v66q0 145 64.5 228.5t182.5 83.5t182.5 -83.5t64.5 -228.5v-66q0 -115 -41.5 -190.5t-129.5 -105.5l151 -43zM301 38q89 0 138.5 67t49.5 196v58q0 129 -49.5 196t-138.5 67t-138.5 -67t-49.5 -196v-58q0 -129 49.5 -196
t138.5 -67z" />
    <glyph glyph-name="R" unicode="R" horiz-adv-x="541" 
d="M82 0v660h213q56 0 99 -21.5t67.5 -61.5t24.5 -95v-20q0 -71 -37.5 -113.5t-88.5 -57.5l151 -291h-70l-142 282h-158v-282h-59zM296 609h-155v-276h155q62 0 96.5 34.5t34.5 95.5v16q0 62 -34.5 96t-96.5 34z" />
    <glyph glyph-name="S" unicode="S" horiz-adv-x="497" 
d="M232 -15q-54 0 -101 16.5t-97 54.5l29 44q44 -32 84.5 -47t86.5 -15q75 0 115.5 35t40.5 98q0 48 -26.5 80.5t-86.5 48.5l-76 21q-68 19 -105.5 63t-37.5 111q0 85 56.5 132.5t147.5 47.5q50 0 96 -16t92 -52l-31 -43q-40 30 -80.5 44t-78.5 14q-61 0 -101 -32t-40 -92
q0 -45 25.5 -77t82.5 -48l76 -21q71 -19 109.5 -64t38.5 -115q0 -85 -57.5 -136.5t-161.5 -51.5z" />
    <glyph glyph-name="T" unicode="T" horiz-adv-x="503" 
d="M222 0v608h-204v52h467v-52h-204v-608h-59z" />
    <glyph glyph-name="U" unicode="U" horiz-adv-x="595" 
d="M297 -15q-108 0 -166.5 70t-58.5 218v387h59v-386q0 -88 19.5 -140t56.5 -74t91 -22t91.5 22t56.5 74t19 140v386h58v-387q0 -148 -59 -218t-167 -70z" />
    <glyph glyph-name="V" unicode="V" horiz-adv-x="524" 
d="M215 0l-203 660h62l183 -609h12l184 609h59l-202 -660h-95z" />
    <glyph glyph-name="W" unicode="W" horiz-adv-x="781" 
d="M160 0l-140 660h60l124 -609h12l129 589h93l129 -589h12l124 609h58l-141 -660h-94l-129 589h-12l-132 -589h-93z" />
    <glyph glyph-name="X" unicode="X" horiz-adv-x="540" 
d="M16 0l215 333l-203 327h72l167 -282h10l167 282h68l-204 -325l216 -335h-72l-180 290h-10l-178 -290h-68z" />
    <glyph glyph-name="Y" unicode="Y" horiz-adv-x="494" 
d="M216 0v269l-208 391h66l171 -328h10l167 328h64l-209 -393v-267h-61z" />
    <glyph glyph-name="Z" unicode="Z" horiz-adv-x="470" 
d="M26 0v50l348 558h-328v52h396v-50l-348 -558h350v-52h-418z" />
    <glyph glyph-name="bracketleft" unicode="[" horiz-adv-x="331" 
d="M124 -190v916h189v-51h-131v-814h131v-51h-189z" />
    <glyph glyph-name="backslash" unicode="\" horiz-adv-x="373" 
d="M285 0l-255 700h58l255 -700h-58z" />
    <glyph glyph-name="bracketright" unicode="]" horiz-adv-x="331" 
d="M18 -190v51h131v814h-131v51h189v-916h-189z" />
    <glyph glyph-name="asciicircum" unicode="^" 
d="M89 279l154 381h58l153 -381h-57l-121 313h-10l-123 -313h-54z" />
    <glyph glyph-name="underscore" unicode="_" horiz-adv-x="450" 
d="M0 -130v50h450v-50h-450z" />
    <glyph glyph-name="grave" unicode="`" horiz-adv-x="480" 
d="M279 575l-113 143l40 30l107 -148z" />
    <glyph glyph-name="a" unicode="a" horiz-adv-x="447" 
d="M167 -10q-67 0 -103 39.5t-36 100.5q0 65 43.5 107.5t128.5 42.5h114v31q0 77 -27.5 112t-86.5 35q-37 0 -65 -12t-52 -36l-34 36q29 29 67 45.5t87 16.5q83 0 124.5 -47.5t41.5 -149.5v-216q0 -35 10.5 -46.5t31.5 -11.5h7.5t8.5 1v-46q-7 -1 -15.5 -1.5t-15.5 -0.5
q-46 0 -62.5 27.5t-16.5 75.5q-30 -58 -70.5 -80.5t-79.5 -22.5zM182 38q35 0 71 23t61 80v93h-110q-58 0 -88.5 -27t-30.5 -75q0 -46 25.5 -70t71.5 -24z" />
    <glyph glyph-name="b" unicode="b" horiz-adv-x="492" 
d="M66 0v700h56v-296q20 42 56.5 72t91.5 30q81 0 128.5 -62t47.5 -176v-40q0 -114 -47.5 -176t-128.5 -62q-57 0 -94 31.5t-57 74.5v-96h-53zM256 456q-50 0 -83.5 -33.5t-50.5 -75.5v-198q17 -42 50 -75.5t84 -33.5q59 0 96.5 46.5t37.5 144.5v34q0 98 -37.5 144.5
t-96.5 46.5z" />
    <glyph glyph-name="c" unicode="c" horiz-adv-x="415" 
d="M237 -12q-85 0 -138 63t-53 178v40q0 113 51.5 176t138.5 63q49 0 86.5 -20t64.5 -55l-36 -33q-22 28 -49 43t-63 15q-62 0 -99.5 -47t-37.5 -145v-34q0 -100 38.5 -147t101.5 -47q37 0 64.5 16t49.5 42l35 -32q-28 -36 -65.5 -56t-88.5 -20z" />
    <glyph glyph-name="d" unicode="d" horiz-adv-x="492" 
d="M222 -10q-81 0 -128.5 62t-47.5 176v40q0 114 47.5 176t128.5 62q55 0 91.5 -30t56.5 -72v296h56v-700h-53v96q-20 -43 -57 -74.5t-94 -31.5zM102 231q0 -98 37.5 -144.5t96.5 -46.5q51 0 84 33.5t50 75.5v198q-17 42 -50.5 75.5t-83.5 33.5q-59 0 -96.5 -46.5
t-37.5 -144.5v-34z" />
    <glyph glyph-name="e" unicode="e" horiz-adv-x="457" 
d="M243 -12q-97 0 -147 65t-50 175v40q0 110 48.5 175t139.5 65q61 0 101.5 -31t61 -85.5t20.5 -124.5v-33h-316v-2q0 -95 36.5 -144.5t108.5 -49.5q43 0 72.5 15t51.5 40l34 -32q-30 -36 -69 -54.5t-92 -18.5zM233 458q-60 0 -94.5 -46t-37.5 -132h262q-4 82 -36 130
t-94 48z" />
    <glyph glyph-name="f" unicode="f" horiz-adv-x="284" 
d="M104 0v448h-78v48h78v37q0 98 36 138.5t106 40.5q26 0 38 -3v-49q-6 1 -13.5 1.5t-19.5 0.5q-54 0 -72.5 -30t-18.5 -101v-35h124v-48h-124v-448h-56z" />
    <glyph glyph-name="g" unicode="g" horiz-adv-x="491" 
d="M222 -10q-81 0 -128.5 62t-47.5 176v40q0 114 47.5 176t128.5 62q57 0 93.5 -31t56.5 -73v94h53v-488q0 -113 -55 -161.5t-145 -48.5q-55 0 -92.5 15.5t-67.5 43.5l30 39q26 -23 56 -35.5t74 -12.5q64 0 104.5 35t40.5 125v84q-20 -42 -56.5 -72t-91.5 -30zM102 231
q0 -98 37.5 -144.5t96.5 -46.5q49 0 82.5 32.5t50.5 74.5v203q-17 40 -50 73t-83 33q-59 0 -96.5 -46.5t-37.5 -144.5v-34z" />
    <glyph glyph-name="h" unicode="h" horiz-adv-x="480" 
d="M66 0v700h56v-296q21 43 57.5 71.5t91.5 28.5q69 0 109 -47t40 -148v-309h-56v303q0 80 -27.5 115.5t-80.5 35.5q-50 0 -83.5 -32t-50.5 -75v-347h-56z" />
    <glyph glyph-name="i" unicode="i" horiz-adv-x="188" 
d="M94 595q-18 0 -29.5 12t-11.5 29t11.5 29.5t29.5 12.5t29.5 -12.5t11.5 -29.5t-11.5 -29t-29.5 -12zM66 0v496h56v-496h-56z" />
    <glyph glyph-name="j" unicode="j" horiz-adv-x="188" 
d="M94 595q-18 0 -29.5 12t-11.5 29t11.5 29.5t29.5 12.5t29.5 -12.5t11.5 -29.5t-11.5 -29t-29.5 -12zM31 -202q-10 0 -17 0.5t-18 1.5v48q8 -1 13 -1h10q26 0 36.5 15.5t10.5 62.5v571h56v-576q0 -61 -19.5 -91.5t-71.5 -30.5z" />
    <glyph glyph-name="k" unicode="k" horiz-adv-x="435" 
d="M66 0v700h56v-413h78l143 209h65l-162 -230l173 -266h-68l-151 237h-78v-237h-56z" />
    <glyph glyph-name="l" unicode="l" horiz-adv-x="216" 
d="M158 -10q-52 0 -72 28t-20 75v607h56v-602q0 -33 11.5 -46.5t35.5 -13.5h11t12 1v-46q-16 -3 -34 -3z" />
    <glyph glyph-name="m" unicode="m" horiz-adv-x="762" 
d="M66 0v496h53v-98q20 44 56.5 75t92.5 31q50 0 85 -27.5t50 -84.5q20 45 57.5 78.5t97.5 33.5q67 0 105.5 -47.5t38.5 -147.5v-309h-56v303q0 79 -26 115t-77 36q-50 0 -82 -32t-49 -73v-349h-56v303q0 79 -27 115t-77 36q-51 0 -82.5 -33t-47.5 -75v-346h-56z" />
    <glyph glyph-name="n" unicode="n" horiz-adv-x="480" 
d="M66 0v496h53v-98q21 45 58 75.5t94 30.5q69 0 109 -47t40 -148v-309h-56v303q0 80 -27.5 115.5t-80.5 35.5q-50 0 -83.5 -32t-50.5 -75v-347h-56z" />
    <glyph glyph-name="o" unicode="o" horiz-adv-x="480" 
d="M240 -12q-92 0 -143 64.5t-51 175.5v40q0 111 51 175.5t143 64.5t143 -64.5t51 -175.5v-40q0 -111 -51 -175.5t-143 -64.5zM240 38q64 0 101 49t37 144v34q0 95 -37 144t-101 49t-101 -49t-37 -144v-34q0 -95 37 -144t101 -49z" />
    <glyph glyph-name="p" unicode="p" horiz-adv-x="492" 
d="M66 -190v686h53v-96q20 43 57 74.5t94 31.5q81 0 128.5 -62t47.5 -176v-40q0 -114 -47.5 -176t-128.5 -62q-55 0 -91.5 30t-56.5 72v-282h-56zM256 456q-51 0 -84 -33.5t-50 -75.5v-198q17 -42 50.5 -75.5t83.5 -33.5q59 0 96.5 46.5t37.5 144.5v34q0 98 -37.5 144.5
t-96.5 46.5z" />
    <glyph glyph-name="q" unicode="q" horiz-adv-x="492" 
d="M222 -10q-81 0 -128.5 62t-47.5 176v40q0 114 47.5 176t128.5 62q57 0 94 -31.5t57 -74.5v96h53v-686h-56v282q-20 -42 -56.5 -72t-91.5 -30zM102 231q0 -98 37.5 -144.5t96.5 -46.5q50 0 83.5 33.5t50.5 75.5v198q-17 42 -50 75.5t-84 33.5q-59 0 -96.5 -46.5
t-37.5 -144.5v-34z" />
    <glyph glyph-name="r" unicode="r" horiz-adv-x="326" 
d="M66 0v496h53v-115q11 31 32 58.5t52 44.5t73 17q17 0 32 -3v-52q-7 1 -15.5 1.5t-17.5 0.5q-60 0 -97.5 -35t-55.5 -81v-332h-56z" />
    <glyph glyph-name="s" unicode="s" horiz-adv-x="397" 
d="M187 -12q-53 0 -91.5 18.5t-70.5 49.5l33 37q27 -27 58 -41t71 -14q50 0 81 24t31 68q0 32 -18 54.5t-60 32.5l-60 15q-54 14 -84 49t-30 87q0 63 41.5 101.5t113.5 38.5q47 0 84 -15.5t72 -44.5l-32 -38q-25 23 -54.5 35.5t-66.5 12.5q-47 0 -74.5 -23t-27.5 -64
q0 -31 18 -54t60 -34l60 -15q58 -14 86.5 -49.5t28.5 -85.5q0 -66 -46 -105.5t-123 -39.5z" />
    <glyph glyph-name="t" unicode="t" horiz-adv-x="298" 
d="M224 -10q-70 0 -98.5 39.5t-28.5 127.5v291h-81v48h81v120l56 14v-134h123v-48h-123v-289q0 -70 20 -95t63 -25q9 0 20 0.5t20 1.5v-46q-25 -5 -52 -5z" />
    <glyph glyph-name="u" unicode="u" horiz-adv-x="478" 
d="M208 -10q-68 0 -108 48.5t-40 149.5v308h56v-303q0 -80 28 -116.5t77 -36.5q52 0 85 33.5t50 76.5v346h56v-496h-53v99q-21 -46 -57.5 -77.5t-93.5 -31.5z" />
    <glyph glyph-name="v" unicode="v" horiz-adv-x="425" 
d="M169 0l-159 496h61l138 -447h9l139 447h58l-160 -496h-86z" />
    <glyph glyph-name="w" unicode="w" horiz-adv-x="689" 
d="M615 496h58l-131 -496h-82l-110 436h-9l-111 -436h-83l-131 496h61l109 -446h9l110 436h83l109 -436h9z" />
    <glyph glyph-name="x" unicode="x" horiz-adv-x="410" 
d="M9 0l160 251l-154 245h67l120 -208h9l122 208h62l-152 -244l158 -252h-67l-126 214h-9l-128 -214h-62z" />
    <glyph glyph-name="y" unicode="y" horiz-adv-x="424" 
d="M135 -190l62 190h-28l-159 496h61l137 -447h9l139 447h58l-222 -686h-57z" />
    <glyph glyph-name="z" unicode="z" horiz-adv-x="394" 
d="M20 0v46l285 402h-262v48h323v-46l-284 -402h281v-48h-343z" />
    <glyph glyph-name="braceleft" unicode="{" horiz-adv-x="342" 
d="M269 -190q-69 0 -100.5 35.5t-31.5 111.5v168q0 60 -17 87t-56 27h-11v55h11q39 0 56 26.5t17 86.5v172q0 77 31.5 112t100.5 35h55v-51h-51q-41 0 -60.5 -23t-19.5 -73v-172q0 -51 -15 -85t-49 -51v-10q34 -17 49 -51t15 -85v-168q0 -50 19.5 -73t60.5 -23h51v-51h-55z
" />
    <glyph glyph-name="bar" unicode="|" horiz-adv-x="238" 
d="M90 -190v916h58v-916h-58z" />
    <glyph glyph-name="braceright" unicode="}" horiz-adv-x="342" 
d="M18 -190v51h51q41 0 60.5 23t19.5 73v168q0 51 15 85t49 51v10q-34 17 -49 51t-15 85v172q0 50 -19.5 73t-60.5 23h-51v51h55q69 0 100.5 -35t31.5 -112v-172q0 -60 17 -86.5t56 -26.5h11v-55h-11q-39 0 -56 -27t-17 -87v-168q0 -76 -31.5 -111.5t-100.5 -35.5h-55z" />
    <glyph glyph-name="asciitilde" unicode="~" 
d="M371 244q-27 0 -46 10t-45 36l-46 46q-19 20 -31.5 26.5t-26.5 6.5q-30 0 -43.5 -27t-13.5 -89h-50q0 80 27 123t77 43q27 0 46 -10t45 -36l46 -46q20 -19 32 -26t26 -7q30 0 43.5 27.5t13.5 88.5h50q0 -80 -27 -123t-77 -43z" />
    <glyph glyph-name="uni00A0" unicode="&#xa0;" horiz-adv-x="191" 
 />
    <glyph glyph-name="exclamdown" unicode="&#xa1;" horiz-adv-x="284" 
d="M142 508q20 0 32.5 -13.5t12.5 -32.5t-12.5 -32.5t-32.5 -13.5t-32.5 13.5t-12.5 32.5t12.5 32.5t32.5 13.5zM120 334h44l10 -496h-64z" />
    <glyph glyph-name="cent" unicode="&#xa2;" 
d="M260 0v107q-60 13 -99 64.5t-39 133.5v50q0 82 40 136t105 65v104h53v-103q35 -5 62.5 -21.5t48.5 -41.5l-32 -35q-20 23 -44 36t-55 13q-52 0 -87 -40.5t-35 -115.5v-44q0 -75 37 -115.5t88 -40.5q33 0 57.5 14.5t43.5 36.5l32 -32q-22 -28 -52.5 -46.5t-70.5 -21.5
v-103h-53z" />
    <glyph glyph-name="sterling" unicode="&#xa3;" 
d="M82 0v47q30 41 52 89t22 106q0 17 -2 36t-5 39h-79v51h71q-4 29 -7.5 57.5t-3.5 54.5q0 65 23.5 108.5t63 65t88.5 21.5q64 0 108.5 -31.5t71.5 -72.5l-40 -35q-26 40 -60 63t-77 23q-31 0 -58.5 -13.5t-44.5 -45.5t-17 -86q0 -25 4 -53l8 -56h167v-51h-158q3 -19 5 -38
t2 -36q0 -49 -16.5 -99.5t-45.5 -92.5h313v-51h-385z" />
    <glyph glyph-name="currency" unicode="&#xa4;" 
d="M98 113l-37 36l67 71q-36 50 -36 117t36 117l-67 71l37 36l66 -70q46 35 108 35t108 -35l66 70l37 -36l-67 -71q36 -50 36 -117t-36 -117l67 -71l-37 -36l-66 70q-46 -35 -108 -35t-108 35zM272 199q54 0 88 39.5t34 98.5t-34 98.5t-88 39.5t-88 -39.5t-34 -98.5
t34 -98.5t88 -39.5z" />
    <glyph glyph-name="yen" unicode="&#xa5;" 
d="M64 125v51h180v91h-180v51h150l-179 342h66l169 -329h11l166 329h63l-180 -342h151v-51h-179v-91h179v-51h-179v-125h-58v125h-180z" />
    <glyph glyph-name="section" unicode="&#xa7;" horiz-adv-x="461" 
d="M60 -16l30 38q54 -57 129 -57q53 0 83 23.5t30 66.5q0 67 -80 88l-60 16q-55 15 -85 49.5t-30 84.5q0 37 17.5 67t57.5 51q-72 37 -72 121q0 64 42.5 101.5t114.5 37.5q44 0 80.5 -15t71.5 -48l-27 -40q-59 53 -126 53q-46 0 -73 -23t-27 -64q0 -68 78 -89l60 -16
q115 -31 115 -135q0 -37 -16.5 -68t-55.5 -50q34 -18 53 -47t19 -71q0 -66 -46.5 -105t-123.5 -39q-95 0 -159 70zM274 192l6 -2q53 40 53 101q0 69 -80 89l-61 16l-6 2q-53 -42 -53 -101q0 -68 80 -89z" />
    <glyph glyph-name="dieresis" unicode="&#xa8;" horiz-adv-x="480" 
d="M150 597q-18 0 -28.5 11.5t-10.5 27.5q0 17 10.5 28t28.5 11t28.5 -11t10.5 -28q0 -16 -10.5 -27.5t-28.5 -11.5zM330 597q-18 0 -28.5 11.5t-10.5 27.5q0 17 10.5 28t28.5 11t28.5 -11t10.5 -28q0 -16 -10.5 -27.5t-28.5 -11.5z" />
    <glyph glyph-name="copyright" unicode="&#xa9;" horiz-adv-x="734" 
d="M366 -15q-102 0 -173.5 45t-109 123t-37.5 177t37.5 177t109 123t173.5 45q103 0 175 -45t109.5 -123t37.5 -177t-37.5 -177t-109.5 -123t-175 -45zM366 33q91 0 150 38t88.5 105t29.5 154t-29.5 154t-88.5 105t-150 38q-89 0 -148.5 -38t-88.5 -105t-29 -154t29.5 -154
t88.5 -105t148 -38zM374 162q-58 0 -93 42t-35 111v30q0 69 35 111t93 42q62 0 100 -50l-33 -32q-28 35 -65 35t-57 -29.5t-20 -79.5v-24q0 -50 20 -79.5t57 -29.5t65 35l33 -32q-38 -50 -100 -50z" />
    <glyph glyph-name="ordfeminine" unicode="&#xaa;" horiz-adv-x="296" 
d="M109 349q-37 0 -59.5 24t-22.5 64q0 44 29.5 69.5t78.5 25.5h57v11q0 75 -60 75q-39 0 -67 -28l-25 36q37 40 95 40q107 0 107 -122v-113q0 -32 22 -32q5 0 10 1v-46q-6 -1 -12 -1.5t-12 -0.5q-49 0 -55 51q-30 -54 -86 -54zM124 395q43 0 68 46v50h-51
q-29 0 -45.5 -13.5t-16.5 -37.5q0 -21 12 -33t33 -12z" />
    <glyph glyph-name="guillemotleft" unicode="&#xab;" horiz-adv-x="483" 
d="M199 71l-159 160v60l159 160l35 -35l-133 -149v-12l133 -149zM408 71l-159 160v60l159 160l35 -35l-133 -149v-12l133 -149z" />
    <glyph glyph-name="logicalnot" unicode="&#xac;" 
d="M447 394v-225h-54v176h-314v49h368z" />
    <glyph glyph-name="uni00AD" unicode="&#xad;" horiz-adv-x="362" 
d="M44 281v55h274v-55h-274z" />
    <glyph glyph-name="registered" unicode="&#xae;" horiz-adv-x="514" 
d="M257 241q-64 0 -109.5 28.5t-70 77.5t-24.5 111t24.5 111t70 77.5t109.5 28.5q65 0 110.5 -28.5t69.5 -77.5t24 -111t-24 -111t-69.5 -77.5t-110.5 -28.5zM257 282q80 0 119 49.5t39 126.5t-39 126.5t-119 49.5q-79 0 -118.5 -49.5t-39.5 -126.5t39.5 -126.5t118.5 -49.5
zM193 361v201h70q29 0 49.5 -15t20.5 -45v-6q0 -21 -10 -34.5t-26 -19.5l43 -81h-44l-35 75h-29v-75h-39zM263 529h-31v-61h31q30 0 30 28v5q0 28 -30 28z" />
    <glyph glyph-name="macron" unicode="&#xaf;" horiz-adv-x="480" 
d="M122 609v42h236v-42h-236z" />
    <glyph glyph-name="degree" unicode="&#xb0;" horiz-adv-x="406" 
d="M203 414q-59 0 -91.5 37t-32.5 93q0 57 32.5 94t91.5 37t91.5 -37t32.5 -94q0 -56 -32.5 -93t-91.5 -37zM203 458q37 0 57 25t20 61q0 37 -20 62t-57 25t-57 -25t-20 -62q0 -36 20 -61t57 -25z" />
    <glyph glyph-name="plusminus" unicode="&#xb1;" 
d="M244 217v178h-164v49h164v178h55v-178h164v-49h-164v-178h-55zM80 86v49h383v-49h-383z" />
    <glyph glyph-name="uni00B2" unicode="&#xb2;" horiz-adv-x="255" 
d="M23 439v41l108 124q33 37 33 68q0 27 -14 40.5t-34 13.5t-34.5 -10.5t-26.5 -29.5l-32 29q16 24 39 39t58 15q41 0 67.5 -24t26.5 -68q0 -29 -12.5 -52.5t-39.5 -54.5l-77 -88h136v-43h-198z" />
    <glyph glyph-name="uni00B3" unicode="&#xb3;" horiz-adv-x="275" 
d="M123 430q-63 0 -101 41l26 34q29 -32 75 -32q29 0 44.5 15t15.5 42q0 55 -64 55h-37v36l81 96h-121v43h179v-41l-81 -93q43 0 69 -26t26 -70q0 -45 -30.5 -72.5t-81.5 -27.5z" />
    <glyph glyph-name="acute" unicode="&#xb4;" horiz-adv-x="480" 
d="M201 575l-34 25l107 148l40 -30z" />
    <glyph glyph-name="mu" unicode="&#xb5;" 
d="M66 -190v686h56v-302q0 -82 28.5 -118t79.5 -36q48 0 81.5 33.5t50.5 76.5v346h56v-398q0 -34 11 -46.5t36 -12.5q12 0 24 2v-48q-18 -3 -35 -3q-49 0 -69 27.5t-20 73.5v5q-21 -45 -57.5 -75.5t-83.5 -30.5q-33 0 -59.5 12t-44.5 40v-232h-54z" />
    <glyph glyph-name="paragraph" unicode="&#xb6;" horiz-adv-x="507" 
d="M349 700h56v-828h-56v828zM257 700h33v-828h-55v410q-85 6 -135.5 59.5t-50.5 138.5v21q0 91 57 145t151 54z" />
    <glyph glyph-name="periodcentered" unicode="&#xb7;" horiz-adv-x="196" 
d="M98 207q-20 0 -32.5 13.5t-12.5 32.5t12.5 32.5t32.5 13.5t32.5 -13.5t12.5 -32.5t-12.5 -32.5t-32.5 -13.5z" />
    <glyph glyph-name="cedilla" unicode="&#xb8;" horiz-adv-x="480" 
d="M212 -202q-17 0 -42 4v45q22 -5 43 -5q48 0 48 37q0 36 -51 36h-21l24 107h40l-17 -68q74 -9 74 -75q0 -81 -98 -81z" />
    <glyph glyph-name="uni00B9" unicode="&#xb9;" horiz-adv-x="190" 
d="M77 439v278h-57v43h108v-321h-51z" />
    <glyph glyph-name="ordmasculine" unicode="&#xba;" horiz-adv-x="313" 
d="M157 349q-59 0 -91.5 40t-32.5 107v23q0 67 32.5 107t91.5 40q58 0 90.5 -40t32.5 -107v-23q0 -67 -32.5 -107t-90.5 -40zM157 398q33 0 52 26t19 73v21q0 47 -19 73t-52 26t-52 -26t-19 -73v-21q0 -47 19 -73t52 -26z" />
    <glyph glyph-name="guillemotright" unicode="&#xbb;" horiz-adv-x="483" 
d="M75 451l159 -160v-60l-159 -160l-35 35l133 149v12l-133 149zM284 451l159 -160v-60l-159 -160l-35 35l133 149v12l-133 149z" />
    <glyph glyph-name="onequarter" unicode="&#xbc;" horiz-adv-x="523" 
d="M20 0l354 660h56l-354 -660h-56zM78 339v278h-57v43h108v-321h-51zM409 0v75h-141v41l124 205h66v-202h42v-44h-42v-75h-49zM403 267l-89 -148h95v148h-6z" />
    <glyph glyph-name="onehalf" unicode="&#xbd;" horiz-adv-x="514" 
d="M20 0l354 660h56l-354 -660h-56zM78 339v278h-57v43h108v-321h-51zM282 0v41l108 124q33 37 33 68q0 27 -14 40.5t-34 13.5t-34.5 -10.5t-26.5 -29.5l-32 29q16 24 39 39t58 15q41 0 67.5 -24t26.5 -68q0 -29 -12.5 -52.5t-39.5 -54.5l-77 -88h136v-43h-198z" />
    <glyph glyph-name="threequarters" unicode="&#xbe;" horiz-adv-x="607" 
d="M104 0l354 660h56l-354 -660h-56zM123 330q-63 0 -101 41l26 34q29 -32 75 -32q29 0 44.5 15t15.5 42q0 55 -64 55h-37v36l81 96h-121v43h179v-41l-81 -93q43 0 69 -26t26 -70q0 -45 -30.5 -72.5t-81.5 -27.5zM493 0v75h-141v41l124 205h66v-202h42v-44h-42v-75h-49z
M487 267l-89 -148h95v148h-6z" />
    <glyph glyph-name="questiondown" unicode="&#xbf;" horiz-adv-x="409" 
d="M245 416q-20 0 -32.5 13.5t-12.5 32.5t12.5 32.5t32.5 13.5t32.5 -13.5t12.5 -32.5t-12.5 -32.5t-32.5 -13.5zM234 -177q-85 0 -135.5 48t-50.5 137q0 76 40.5 124.5t127.5 75.5l7 126h44l4 -159l-39 -11q-65 -19 -96 -59t-31 -98q0 -65 37 -99t94 -34q38 0 71.5 13.5
t58.5 41.5l35 -35q-28 -32 -70 -51.5t-97 -19.5z" />
    <glyph glyph-name="Agrave" unicode="&#xc0;" horiz-adv-x="525" 
d="M9 0l207 660h93l207 -660h-62l-58 188h-270l-58 -188h-59zM255 608l-114 -370h239l-114 370h-11zM271 720l-139 124l35 37l134 -129z" />
    <glyph glyph-name="Aacute" unicode="&#xc1;" horiz-adv-x="525" 
d="M9 0l207 660h93l207 -660h-62l-58 188h-270l-58 -188h-59zM255 608l-114 -370h239l-114 370h-11zM255 720l-30 32l134 129l35 -37z" />
    <glyph glyph-name="Acircumflex" unicode="&#xc2;" horiz-adv-x="525" 
d="M9 0l207 660h93l207 -660h-62l-58 188h-270l-58 -188h-59zM255 608l-114 -370h239l-114 370h-11zM149 720l-28 33l119 108h46l119 -108l-28 -33l-109 93h-10z" />
    <glyph glyph-name="Atilde" unicode="&#xc3;" horiz-adv-x="525" 
d="M9 0l207 660h93l207 -660h-62l-58 188h-270l-58 -188h-59zM255 608l-114 -370h239l-114 370h-11zM330 715q-29 0 -65 28l-30 24q-24 19 -38 19q-16 0 -23 -15t-8 -50h-42q0 107 72 107q29 0 65 -28l30 -24q24 -19 38 -19q16 0 23 15t8 50h42q0 -107 -72 -107z" />
    <glyph glyph-name="Adieresis" unicode="&#xc4;" horiz-adv-x="525" 
d="M9 0l207 660h93l207 -660h-62l-58 188h-270l-58 -188h-59zM255 608l-114 -370h239l-114 370h-11zM173 730q-18 0 -29.5 12.5t-11.5 29.5t11.5 28.5t29.5 11.5t28.5 -11.5t10.5 -28.5t-10.5 -29.5t-28.5 -12.5zM353 730q-19 0 -29 12.5t-10 29.5t10 28.5t29 11.5
q18 0 29.5 -11.5t11.5 -28.5t-11.5 -29.5t-29.5 -12.5z" />
    <glyph glyph-name="Aring" unicode="&#xc5;" horiz-adv-x="525" 
d="M9 0l207 660h93l207 -660h-62l-58 188h-270l-58 -188h-59zM255 608l-114 -370h239l-114 370h-11zM263 720q-40 0 -67.5 26t-27.5 69q0 44 27.5 69.5t67.5 25.5t67.5 -25.5t27.5 -69.5q0 -43 -27.5 -69t-67.5 -26zM263 756q25 0 39.5 16t14.5 43t-14.5 43t-39.5 16
t-39.5 -16t-14.5 -43t14.5 -43t39.5 -16z" />
    <glyph glyph-name="AE" unicode="&#xc6;" horiz-adv-x="798" 
d="M9 0l261 660h471v-52h-302v-246h275v-51h-275v-259h311v-52h-370v209h-228l-82 -209h-61zM308 609l-137 -350h209v350h-72z" />
    <glyph glyph-name="Ccedilla" unicode="&#xc7;" horiz-adv-x="534" 
d="M300 -15q-75 0 -130.5 38t-85.5 108t-30 166v66q0 97 30 166.5t85.5 107.5t130.5 38q116 0 196 -92l-37 -37q-72 76 -157 76q-87 0 -138 -67.5t-51 -195.5v-58q0 -127 51.5 -195t137.5 -68q46 0 85 19.5t72 56.5l37 -37q-37 -42 -85.5 -67t-110.5 -25zM285 -202
q-18 0 -43 4v46q23 -5 43 -5q48 0 48 37q0 35 -51 35h-21l24 108h41l-17 -67q75 -10 75 -77q0 -81 -99 -81z" />
    <glyph glyph-name="Egrave" unicode="&#xc8;" horiz-adv-x="500" 
d="M82 0v660h361v-52h-302v-246h275v-51h-275v-259h311v-52h-370zM275 720l-139 124l35 37l134 -129z" />
    <glyph glyph-name="Eacute" unicode="&#xc9;" horiz-adv-x="500" 
d="M82 0v660h361v-52h-302v-246h275v-51h-275v-259h311v-52h-370zM259 720l-30 32l134 129l35 -37z" />
    <glyph glyph-name="Ecircumflex" unicode="&#xca;" horiz-adv-x="500" 
d="M82 0v660h361v-52h-302v-246h275v-51h-275v-259h311v-52h-370zM153 720l-28 33l119 108h46l119 -108l-28 -33l-109 93h-10z" />
    <glyph glyph-name="Edieresis" unicode="&#xcb;" horiz-adv-x="500" 
d="M82 0v660h361v-52h-302v-246h275v-51h-275v-259h311v-52h-370zM177 730q-18 0 -29.5 12.5t-11.5 29.5t11.5 28.5t29.5 11.5t28.5 -11.5t10.5 -28.5t-10.5 -29.5t-28.5 -12.5zM357 730q-19 0 -29 12.5t-10 29.5t10 28.5t29 11.5q18 0 29.5 -11.5t11.5 -28.5t-11.5 -29.5
t-29.5 -12.5z" />
    <glyph glyph-name="Igrave" unicode="&#xcc;" horiz-adv-x="223" 
d="M82 0v660h59v-660h-59zM120 720l-139 124l35 37l134 -129z" />
    <glyph glyph-name="Iacute" unicode="&#xcd;" horiz-adv-x="223" 
d="M82 0v660h59v-660h-59zM104 720l-30 32l134 129l35 -37z" />
    <glyph glyph-name="Icircumflex" unicode="&#xce;" horiz-adv-x="223" 
d="M82 0v660h59v-660h-59zM-2 720l-28 33l119 108h46l119 -108l-28 -33l-109 93h-10z" />
    <glyph glyph-name="Idieresis" unicode="&#xcf;" horiz-adv-x="223" 
d="M82 0v660h59v-660h-59zM22 730q-18 0 -29.5 12.5t-11.5 29.5t11.5 28.5t29.5 11.5t28.5 -11.5t10.5 -28.5t-10.5 -29.5t-28.5 -12.5zM202 730q-19 0 -29 12.5t-10 29.5t10 28.5t29 11.5q18 0 29.5 -11.5t11.5 -28.5t-11.5 -29.5t-29.5 -12.5z" />
    <glyph glyph-name="Eth" unicode="&#xd0;" horiz-adv-x="599" 
d="M82 0v308h-75v51h75v301h196q131 0 199 -82t68 -222v-52q0 -139 -68 -221.5t-199 -82.5h-196zM253 308h-112v-256h138q101 0 154 66t53 190v44q0 125 -53 190.5t-154 65.5h-138v-249h112v-51z" />
    <glyph glyph-name="Ntilde" unicode="&#xd1;" horiz-adv-x="626" 
d="M82 0v660h96l299 -603h10v603h57v-660h-96l-299 603h-10v-603h-57zM380 715q-29 0 -65 28l-30 24q-24 19 -38 19q-16 0 -23 -15t-8 -50h-42q0 107 72 107q29 0 65 -28l30 -24q24 -19 38 -19q16 0 23 15t8 50h42q0 -107 -72 -107z" />
    <glyph glyph-name="Ograve" unicode="&#xd2;" horiz-adv-x="602" 
d="M301 -15q-118 0 -182.5 83.5t-64.5 228.5v66q0 145 64.5 228.5t182.5 83.5t182.5 -83.5t64.5 -228.5v-66q0 -145 -64.5 -228.5t-182.5 -83.5zM301 38q89 0 138.5 67t49.5 196v58q0 129 -49.5 196t-138.5 67t-138.5 -67t-49.5 -196v-58q0 -129 49.5 -196t138.5 -67z
M309 720l-139 124l35 37l134 -129z" />
    <glyph glyph-name="Oacute" unicode="&#xd3;" horiz-adv-x="602" 
d="M301 -15q-118 0 -182.5 83.5t-64.5 228.5v66q0 145 64.5 228.5t182.5 83.5t182.5 -83.5t64.5 -228.5v-66q0 -145 -64.5 -228.5t-182.5 -83.5zM301 38q89 0 138.5 67t49.5 196v58q0 129 -49.5 196t-138.5 67t-138.5 -67t-49.5 -196v-58q0 -129 49.5 -196t138.5 -67z
M293 720l-30 32l134 129l35 -37z" />
    <glyph glyph-name="Ocircumflex" unicode="&#xd4;" horiz-adv-x="602" 
d="M301 -15q-118 0 -182.5 83.5t-64.5 228.5v66q0 145 64.5 228.5t182.5 83.5t182.5 -83.5t64.5 -228.5v-66q0 -145 -64.5 -228.5t-182.5 -83.5zM301 38q89 0 138.5 67t49.5 196v58q0 129 -49.5 196t-138.5 67t-138.5 -67t-49.5 -196v-58q0 -129 49.5 -196t138.5 -67z
M187 720l-28 33l119 108h46l119 -108l-28 -33l-109 93h-10z" />
    <glyph glyph-name="Otilde" unicode="&#xd5;" horiz-adv-x="602" 
d="M301 -15q-118 0 -182.5 83.5t-64.5 228.5v66q0 145 64.5 228.5t182.5 83.5t182.5 -83.5t64.5 -228.5v-66q0 -145 -64.5 -228.5t-182.5 -83.5zM301 38q89 0 138.5 67t49.5 196v58q0 129 -49.5 196t-138.5 67t-138.5 -67t-49.5 -196v-58q0 -129 49.5 -196t138.5 -67z
M368 715q-29 0 -65 28l-30 24q-24 19 -38 19q-16 0 -23 -15t-8 -50h-42q0 107 72 107q29 0 65 -28l30 -24q24 -19 38 -19q16 0 23 15t8 50h42q0 -107 -72 -107z" />
    <glyph glyph-name="Odieresis" unicode="&#xd6;" horiz-adv-x="602" 
d="M301 -15q-118 0 -182.5 83.5t-64.5 228.5v66q0 145 64.5 228.5t182.5 83.5t182.5 -83.5t64.5 -228.5v-66q0 -145 -64.5 -228.5t-182.5 -83.5zM301 38q89 0 138.5 67t49.5 196v58q0 129 -49.5 196t-138.5 67t-138.5 -67t-49.5 -196v-58q0 -129 49.5 -196t138.5 -67z
M211 730q-18 0 -29.5 12.5t-11.5 29.5t11.5 28.5t29.5 11.5t28.5 -11.5t10.5 -28.5t-10.5 -29.5t-28.5 -12.5zM391 730q-19 0 -29 12.5t-10 29.5t10 28.5t29 11.5q18 0 29.5 -11.5t11.5 -28.5t-11.5 -29.5t-29.5 -12.5z" />
    <glyph glyph-name="multiply" unicode="&#xd7;" 
d="M133 148l-37 35l141 147l-141 146l37 35l139 -145l139 145l37 -35l-141 -146l141 -147l-37 -35l-139 145z" />
    <glyph glyph-name="Oslash" unicode="&#xd8;" horiz-adv-x="628" 
d="M314 -15q-57 0 -101.5 20t-76.5 58l-61 -78l-39 34l71 89q-40 76 -40 189v66q0 145 64.5 228.5t182.5 83.5q57 0 101.5 -20t76.5 -58l61 78l39 -34l-71 -89q40 -76 40 -189v-66q0 -145 -64.5 -228.5t-182.5 -83.5zM126 301q0 -83 21 -142l309 391q-49 72 -142 72
q-89 0 -138.5 -67t-49.5 -196v-58zM314 38q89 0 138.5 67t49.5 196v58q0 83 -21 141l-308 -391q48 -71 141 -71z" />
    <glyph glyph-name="Ugrave" unicode="&#xd9;" horiz-adv-x="595" 
d="M297 -15q-108 0 -166.5 70t-58.5 218v387h59v-386q0 -88 19.5 -140t56.5 -74t91 -22t91.5 22t56.5 74t19 140v386h58v-387q0 -148 -59 -218t-167 -70zM306 720l-139 124l35 37l134 -129z" />
    <glyph glyph-name="Uacute" unicode="&#xda;" horiz-adv-x="595" 
d="M297 -15q-108 0 -166.5 70t-58.5 218v387h59v-386q0 -88 19.5 -140t56.5 -74t91 -22t91.5 22t56.5 74t19 140v386h58v-387q0 -148 -59 -218t-167 -70zM290 720l-30 32l134 129l35 -37z" />
    <glyph glyph-name="Ucircumflex" unicode="&#xdb;" horiz-adv-x="595" 
d="M297 -15q-108 0 -166.5 70t-58.5 218v387h59v-386q0 -88 19.5 -140t56.5 -74t91 -22t91.5 22t56.5 74t19 140v386h58v-387q0 -148 -59 -218t-167 -70zM184 720l-28 33l119 108h46l119 -108l-28 -33l-109 93h-10z" />
    <glyph glyph-name="Udieresis" unicode="&#xdc;" horiz-adv-x="595" 
d="M297 -15q-108 0 -166.5 70t-58.5 218v387h59v-386q0 -88 19.5 -140t56.5 -74t91 -22t91.5 22t56.5 74t19 140v386h58v-387q0 -148 -59 -218t-167 -70zM208 730q-18 0 -29.5 12.5t-11.5 29.5t11.5 28.5t29.5 11.5t28.5 -11.5t10.5 -28.5t-10.5 -29.5t-28.5 -12.5zM388 730
q-19 0 -29 12.5t-10 29.5t10 28.5t29 11.5q18 0 29.5 -11.5t11.5 -28.5t-11.5 -29.5t-29.5 -12.5z" />
    <glyph glyph-name="Yacute" unicode="&#xdd;" horiz-adv-x="494" 
d="M216 0v269l-208 391h66l171 -328h10l167 328h64l-209 -393v-267h-61zM240 720l-30 32l134 129l35 -37z" />
    <glyph glyph-name="Thorn" unicode="&#xde;" horiz-adv-x="520" 
d="M82 0v660h59v-131h151q87 0 140.5 -50t53.5 -134v-20q0 -84 -53.5 -134t-140.5 -50h-151v-141h-59zM292 478h-151v-286h151q65 0 100 35t35 100v16q0 65 -35 100t-100 35z" />
    <glyph glyph-name="germandbls" unicode="&#xdf;" horiz-adv-x="503" 
d="M270 -12q-25 0 -44.5 4.5t-42.5 14.5l15 46q38 -16 73 -16q33 0 61 13.5t45.5 44t17.5 80.5v24q0 74 -38.5 106t-92.5 32h-29v49h23q44 0 73.5 33.5t29.5 98.5v20q0 61 -33 93t-86 32q-54 0 -87 -36t-33 -110v-517h-56v517q0 98 48 146.5t128 48.5t127 -45.5t47 -126.5
v-24q0 -63 -27.5 -100.5t-72.5 -50.5q55 -7 95 -46.5t40 -117.5v-28q0 -90 -50.5 -137.5t-130.5 -47.5z" />
    <glyph glyph-name="agrave" unicode="&#xe0;" horiz-adv-x="447" 
d="M167 -10q-67 0 -103 39.5t-36 100.5q0 65 43.5 107.5t128.5 42.5h114v31q0 77 -27.5 112t-86.5 35q-37 0 -65 -12t-52 -36l-34 36q29 29 67 45.5t87 16.5q83 0 124.5 -47.5t41.5 -149.5v-216q0 -35 10.5 -46.5t31.5 -11.5h7.5t8.5 1v-46q-7 -1 -15.5 -1.5t-15.5 -0.5
q-46 0 -62.5 27.5t-16.5 75.5q-30 -58 -70.5 -80.5t-79.5 -22.5zM182 38q35 0 71 23t61 80v93h-110q-58 0 -88.5 -27t-30.5 -75q0 -46 25.5 -70t71.5 -24zM219 575l-113 143l40 30l107 -148z" />
    <glyph glyph-name="aacute" unicode="&#xe1;" horiz-adv-x="447" 
d="M167 -10q-67 0 -103 39.5t-36 100.5q0 65 43.5 107.5t128.5 42.5h114v31q0 77 -27.5 112t-86.5 35q-37 0 -65 -12t-52 -36l-34 36q29 29 67 45.5t87 16.5q83 0 124.5 -47.5t41.5 -149.5v-216q0 -35 10.5 -46.5t31.5 -11.5h7.5t8.5 1v-46q-7 -1 -15.5 -1.5t-15.5 -0.5
q-46 0 -62.5 27.5t-16.5 75.5q-30 -58 -70.5 -80.5t-79.5 -22.5zM182 38q35 0 71 23t61 80v93h-110q-58 0 -88.5 -27t-30.5 -75q0 -46 25.5 -70t71.5 -24zM207 575l-34 25l107 148l40 -30z" />
    <glyph glyph-name="acircumflex" unicode="&#xe2;" horiz-adv-x="447" 
d="M167 -10q-67 0 -103 39.5t-36 100.5q0 65 43.5 107.5t128.5 42.5h114v31q0 77 -27.5 112t-86.5 35q-37 0 -65 -12t-52 -36l-34 36q29 29 67 45.5t87 16.5q83 0 124.5 -47.5t41.5 -149.5v-216q0 -35 10.5 -46.5t31.5 -11.5h7.5t8.5 1v-46q-7 -1 -15.5 -1.5t-15.5 -0.5
q-46 0 -62.5 27.5t-16.5 75.5q-30 -58 -70.5 -80.5t-79.5 -22.5zM182 38q35 0 71 23t61 80v93h-110q-58 0 -88.5 -27t-30.5 -75q0 -46 25.5 -70t71.5 -24zM104 575l-30 28l116 134h46l116 -134l-30 -28l-104 112h-10z" />
    <glyph glyph-name="atilde" unicode="&#xe3;" horiz-adv-x="447" 
d="M167 -10q-67 0 -103 39.5t-36 100.5q0 65 43.5 107.5t128.5 42.5h114v31q0 77 -27.5 112t-86.5 35q-37 0 -65 -12t-52 -36l-34 36q29 29 67 45.5t87 16.5q83 0 124.5 -47.5t41.5 -149.5v-216q0 -35 10.5 -46.5t31.5 -11.5h7.5t8.5 1v-46q-7 -1 -15.5 -1.5t-15.5 -0.5
q-46 0 -62.5 27.5t-16.5 75.5q-30 -58 -70.5 -80.5t-79.5 -22.5zM182 38q35 0 71 23t61 80v93h-110q-58 0 -88.5 -27t-30.5 -75q0 -46 25.5 -70t71.5 -24zM280 581q-16 0 -30 6t-35 22l-29 22q-12 9 -21.5 14t-17.5 5q-15 0 -22 -14.5t-8 -49.5h-41q0 105 70 105
q16 0 30 -5.5t35 -22.5l29 -22q12 -9 21.5 -14t17.5 -5q15 0 22 15t8 49h41q0 -105 -70 -105z" />
    <glyph glyph-name="adieresis" unicode="&#xe4;" horiz-adv-x="447" 
d="M167 -10q-67 0 -103 39.5t-36 100.5q0 65 43.5 107.5t128.5 42.5h114v31q0 77 -27.5 112t-86.5 35q-37 0 -65 -12t-52 -36l-34 36q29 29 67 45.5t87 16.5q83 0 124.5 -47.5t41.5 -149.5v-216q0 -35 10.5 -46.5t31.5 -11.5h7.5t8.5 1v-46q-7 -1 -15.5 -1.5t-15.5 -0.5
q-46 0 -62.5 27.5t-16.5 75.5q-30 -58 -70.5 -80.5t-79.5 -22.5zM182 38q35 0 71 23t61 80v93h-110q-58 0 -88.5 -27t-30.5 -75q0 -46 25.5 -70t71.5 -24zM123 597q-18 0 -28.5 11.5t-10.5 27.5q0 17 10.5 28t28.5 11t28.5 -11t10.5 -28q0 -16 -10.5 -27.5t-28.5 -11.5z
M303 597q-18 0 -28.5 11.5t-10.5 27.5q0 17 10.5 28t28.5 11t28.5 -11t10.5 -28q0 -16 -10.5 -27.5t-28.5 -11.5z" />
    <glyph glyph-name="aring" unicode="&#xe5;" horiz-adv-x="447" 
d="M167 -10q-67 0 -103 39.5t-36 100.5q0 65 43.5 107.5t128.5 42.5h114v31q0 77 -27.5 112t-86.5 35q-37 0 -65 -12t-52 -36l-34 36q29 29 67 45.5t87 16.5q83 0 124.5 -47.5t41.5 -149.5v-216q0 -35 10.5 -46.5t31.5 -11.5h7.5t8.5 1v-46q-7 -1 -15.5 -1.5t-15.5 -0.5
q-46 0 -62.5 27.5t-16.5 75.5q-30 -58 -70.5 -80.5t-79.5 -22.5zM182 38q35 0 71 23t61 80v93h-110q-58 0 -88.5 -27t-30.5 -75q0 -46 25.5 -70t71.5 -24zM213 575q-40 0 -67 25t-27 68t27 68t67 25t67 -25t27 -68t-27 -68t-67 -25zM213 610q25 0 39.5 16t14.5 42t-14.5 42
t-39.5 16t-39.5 -16t-14.5 -42t14.5 -42t39.5 -16z" />
    <glyph glyph-name="ae" unicode="&#xe6;" horiz-adv-x="725" 
d="M167 -10q-67 0 -103 39.5t-36 100.5q0 65 43.5 107.5t128.5 42.5h114v31q0 77 -27.5 112t-86.5 35q-37 0 -65 -12t-52 -36l-34 36q29 29 67 45.5t87 16.5q55 0 91.5 -22.5t55.5 -77.5q23 52 61.5 76t90.5 24q61 0 101.5 -31t61 -85.5t20.5 -124.5v-33h-316v-2
q0 -95 36.5 -144.5t108.5 -49.5q43 0 72.5 15t51.5 40l34 -32q-30 -36 -69 -54.5t-92 -18.5q-69 0 -114 33t-66 93q-20 -47 -47.5 -74t-58 -38.5t-58.5 -11.5zM501 458q-60 0 -94.5 -46t-37.5 -132h262q-4 82 -36 130t-94 48zM182 38q37 0 75 26.5t63 91.5q-6 33 -6 72v7
h-110q-58 0 -88.5 -27.5t-30.5 -75.5q0 -46 25.5 -70t71.5 -24z" />
    <glyph glyph-name="ccedilla" unicode="&#xe7;" horiz-adv-x="415" 
d="M237 -12q-85 0 -138 63t-53 178v40q0 113 51.5 176t138.5 63q49 0 86.5 -20t64.5 -55l-36 -33q-22 28 -49 43t-63 15q-62 0 -99.5 -47t-37.5 -145v-34q0 -100 38.5 -147t101.5 -47q37 0 64.5 16t49.5 42l35 -32q-28 -36 -65.5 -56t-88.5 -20zM221 -202q-17 0 -42 4v45
q22 -5 43 -5q48 0 48 37q0 36 -51 36h-21l24 107h40l-17 -68q74 -9 74 -75q0 -81 -98 -81z" />
    <glyph glyph-name="egrave" unicode="&#xe8;" horiz-adv-x="457" 
d="M243 -12q-97 0 -147 65t-50 175v40q0 110 48.5 175t139.5 65q61 0 101.5 -31t61 -85.5t20.5 -124.5v-33h-316v-2q0 -95 36.5 -144.5t108.5 -49.5q43 0 72.5 15t51.5 40l34 -32q-30 -36 -69 -54.5t-92 -18.5zM233 458q-60 0 -94.5 -46t-37.5 -132h262q-4 82 -36 130
t-94 48zM238 575l-113 143l40 30l107 -148z" />
    <glyph glyph-name="eacute" unicode="&#xe9;" horiz-adv-x="457" 
d="M243 -12q-97 0 -147 65t-50 175v40q0 110 48.5 175t139.5 65q61 0 101.5 -31t61 -85.5t20.5 -124.5v-33h-316v-2q0 -95 36.5 -144.5t108.5 -49.5q43 0 72.5 15t51.5 40l34 -32q-30 -36 -69 -54.5t-92 -18.5zM233 458q-60 0 -94.5 -46t-37.5 -132h262q-4 82 -36 130
t-94 48zM226 575l-34 25l107 148l40 -30z" />
    <glyph glyph-name="ecircumflex" unicode="&#xea;" horiz-adv-x="457" 
d="M243 -12q-97 0 -147 65t-50 175v40q0 110 48.5 175t139.5 65q61 0 101.5 -31t61 -85.5t20.5 -124.5v-33h-316v-2q0 -95 36.5 -144.5t108.5 -49.5q43 0 72.5 15t51.5 40l34 -32q-30 -36 -69 -54.5t-92 -18.5zM233 458q-60 0 -94.5 -46t-37.5 -132h262q-4 82 -36 130
t-94 48zM123 575l-30 28l116 134h46l116 -134l-30 -28l-104 112h-10z" />
    <glyph glyph-name="edieresis" unicode="&#xeb;" horiz-adv-x="457" 
d="M243 -12q-97 0 -147 65t-50 175v40q0 110 48.5 175t139.5 65q61 0 101.5 -31t61 -85.5t20.5 -124.5v-33h-316v-2q0 -95 36.5 -144.5t108.5 -49.5q43 0 72.5 15t51.5 40l34 -32q-30 -36 -69 -54.5t-92 -18.5zM233 458q-60 0 -94.5 -46t-37.5 -132h262q-4 82 -36 130
t-94 48zM142 597q-18 0 -28.5 11.5t-10.5 27.5q0 17 10.5 28t28.5 11t28.5 -11t10.5 -28q0 -16 -10.5 -27.5t-28.5 -11.5zM322 597q-18 0 -28.5 11.5t-10.5 27.5q0 17 10.5 28t28.5 11t28.5 -11t10.5 -28q0 -16 -10.5 -27.5t-28.5 -11.5z" />
    <glyph glyph-name="igrave" unicode="&#xec;" horiz-adv-x="188" 
d="M66 0v496h56v-496h-56zM100 575l-113 143l40 30l107 -148z" />
    <glyph glyph-name="iacute" unicode="&#xed;" horiz-adv-x="188" 
d="M66 0v496h56v-496h-56zM88 575l-34 25l107 148l40 -30z" />
    <glyph glyph-name="icircumflex" unicode="&#xee;" horiz-adv-x="188" 
d="M66 0v496h56v-496h-56zM-4 575l-30 28l106 134h44l106 -134l-30 -28l-93 112h-10z" />
    <glyph glyph-name="idieresis" unicode="&#xef;" horiz-adv-x="188" 
d="M66 0v496h56v-496h-56zM17 597q-18 0 -28.5 11.5t-10.5 27.5q0 17 10.5 28t28.5 11t28.5 -11t10.5 -28q0 -16 -10.5 -27.5t-28.5 -11.5zM171 597q-18 0 -28.5 11.5t-10.5 27.5q0 17 10.5 28t28.5 11t28.5 -11t10.5 -28q0 -16 -10.5 -27.5t-28.5 -11.5z" />
    <glyph glyph-name="eth" unicode="&#xf0;" horiz-adv-x="487" 
d="M239 -12q-56 0 -99.5 29t-67.5 80t-24 116v39q0 64 24 113.5t65.5 77.5t95.5 28q70 0 118 -58q-30 74 -95 154l-137 -49v47l107 38q-39 45 -92 97h70q41 -40 73 -78l160 57v-47l-130 -47q69 -87 99.5 -167.5t30.5 -164.5q0 -127 -51.5 -196t-146.5 -69zM104 213
q0 -77 38 -126t97 -49q69 0 105.5 54.5t36.5 160.5q0 42 -7 80q-44 88 -123 88q-67 0 -107 -45t-40 -124v-39z" />
    <glyph glyph-name="ntilde" unicode="&#xf1;" horiz-adv-x="480" 
d="M66 0v496h53v-98q21 45 58 75.5t94 30.5q69 0 109 -47t40 -148v-309h-56v303q0 80 -27.5 115.5t-80.5 35.5q-50 0 -83.5 -32t-50.5 -75v-347h-56zM310 581q-16 0 -30 6t-35 22l-29 22q-12 9 -21.5 14t-17.5 5q-15 0 -22 -14.5t-8 -49.5h-41q0 105 70 105q16 0 30 -5.5
t35 -22.5l29 -22q12 -9 21.5 -14t17.5 -5q15 0 22 15t8 49h41q0 -105 -70 -105z" />
    <glyph glyph-name="ograve" unicode="&#xf2;" horiz-adv-x="480" 
d="M240 -12q-92 0 -143 64.5t-51 175.5v40q0 111 51 175.5t143 64.5t143 -64.5t51 -175.5v-40q0 -111 -51 -175.5t-143 -64.5zM240 38q64 0 101 49t37 144v34q0 95 -37 144t-101 49t-101 -49t-37 -144v-34q0 -95 37 -144t101 -49zM247 575l-113 143l40 30l107 -148z" />
    <glyph glyph-name="oacute" unicode="&#xf3;" horiz-adv-x="480" 
d="M240 -12q-92 0 -143 64.5t-51 175.5v40q0 111 51 175.5t143 64.5t143 -64.5t51 -175.5v-40q0 -111 -51 -175.5t-143 -64.5zM240 38q64 0 101 49t37 144v34q0 95 -37 144t-101 49t-101 -49t-37 -144v-34q0 -95 37 -144t101 -49zM235 575l-34 25l107 148l40 -30z" />
    <glyph glyph-name="ocircumflex" unicode="&#xf4;" horiz-adv-x="480" 
d="M240 -12q-92 0 -143 64.5t-51 175.5v40q0 111 51 175.5t143 64.5t143 -64.5t51 -175.5v-40q0 -111 -51 -175.5t-143 -64.5zM240 38q64 0 101 49t37 144v34q0 95 -37 144t-101 49t-101 -49t-37 -144v-34q0 -95 37 -144t101 -49zM132 575l-30 28l116 134h46l116 -134
l-30 -28l-104 112h-10z" />
    <glyph glyph-name="otilde" unicode="&#xf5;" horiz-adv-x="480" 
d="M240 -12q-92 0 -143 64.5t-51 175.5v40q0 111 51 175.5t143 64.5t143 -64.5t51 -175.5v-40q0 -111 -51 -175.5t-143 -64.5zM240 38q64 0 101 49t37 144v34q0 95 -37 144t-101 49t-101 -49t-37 -144v-34q0 -95 37 -144t101 -49zM308 581q-16 0 -30 6t-35 22l-29 22
q-12 9 -21.5 14t-17.5 5q-15 0 -22 -14.5t-8 -49.5h-41q0 105 70 105q16 0 30 -5.5t35 -22.5l29 -22q12 -9 21.5 -14t17.5 -5q15 0 22 15t8 49h41q0 -105 -70 -105z" />
    <glyph glyph-name="odieresis" unicode="&#xf6;" horiz-adv-x="480" 
d="M240 -12q-92 0 -143 64.5t-51 175.5v40q0 111 51 175.5t143 64.5t143 -64.5t51 -175.5v-40q0 -111 -51 -175.5t-143 -64.5zM240 38q64 0 101 49t37 144v34q0 95 -37 144t-101 49t-101 -49t-37 -144v-34q0 -95 37 -144t101 -49zM151 597q-18 0 -28.5 11.5t-10.5 27.5
q0 17 10.5 28t28.5 11t28.5 -11t10.5 -28q0 -16 -10.5 -27.5t-28.5 -11.5zM331 597q-18 0 -28.5 11.5t-10.5 27.5q0 17 10.5 28t28.5 11t28.5 -11t10.5 -28q0 -16 -10.5 -27.5t-28.5 -11.5z" />
    <glyph glyph-name="divide" unicode="&#xf7;" 
d="M272 479q-19 0 -30 12t-11 30t11 30t30 12t30 -12t11 -30t-11 -30t-30 -12zM80 308v49h383v-49h-383zM272 102q-19 0 -30 12t-11 30t11 30t30 12t30 -12t11 -30t-11 -30t-30 -12z" />
    <glyph glyph-name="oslash" unicode="&#xf8;" horiz-adv-x="488" 
d="M244 -12q-86 0 -137 57l-48 -57l-34 32l55 66q-29 58 -29 142v40q0 110 50.5 175t142.5 65q86 0 137 -57l48 57l34 -32l-55 -66q30 -58 30 -142v-40q0 -111 -51 -175.5t-143 -64.5zM107 231q0 -56 13 -97l226 274q-36 50 -102 50q-64 0 -100.5 -49t-36.5 -144v-34z
M244 38q64 0 101 49t37 144v34q0 57 -14 98l-226 -274q36 -51 102 -51z" />
    <glyph glyph-name="ugrave" unicode="&#xf9;" horiz-adv-x="478" 
d="M208 -10q-68 0 -108 48.5t-40 149.5v308h56v-303q0 -80 28 -116.5t77 -36.5q52 0 85 33.5t50 76.5v346h56v-496h-53v99q-21 -46 -57.5 -77.5t-93.5 -31.5zM242 575l-113 143l40 30l107 -148z" />
    <glyph glyph-name="uacute" unicode="&#xfa;" horiz-adv-x="478" 
d="M208 -10q-68 0 -108 48.5t-40 149.5v308h56v-303q0 -80 28 -116.5t77 -36.5q52 0 85 33.5t50 76.5v346h56v-496h-53v99q-21 -46 -57.5 -77.5t-93.5 -31.5zM230 575l-34 25l107 148l40 -30z" />
    <glyph glyph-name="ucircumflex" unicode="&#xfb;" horiz-adv-x="478" 
d="M208 -10q-68 0 -108 48.5t-40 149.5v308h56v-303q0 -80 28 -116.5t77 -36.5q52 0 85 33.5t50 76.5v346h56v-496h-53v99q-21 -46 -57.5 -77.5t-93.5 -31.5zM127 575l-30 28l116 134h46l116 -134l-30 -28l-104 112h-10z" />
    <glyph glyph-name="udieresis" unicode="&#xfc;" horiz-adv-x="478" 
d="M208 -10q-68 0 -108 48.5t-40 149.5v308h56v-303q0 -80 28 -116.5t77 -36.5q52 0 85 33.5t50 76.5v346h56v-496h-53v99q-21 -46 -57.5 -77.5t-93.5 -31.5zM146 597q-18 0 -28.5 11.5t-10.5 27.5q0 17 10.5 28t28.5 11t28.5 -11t10.5 -28q0 -16 -10.5 -27.5t-28.5 -11.5z
M326 597q-18 0 -28.5 11.5t-10.5 27.5q0 17 10.5 28t28.5 11t28.5 -11t10.5 -28q0 -16 -10.5 -27.5t-28.5 -11.5z" />
    <glyph glyph-name="yacute" unicode="&#xfd;" horiz-adv-x="424" 
d="M135 -190l62 190h-28l-159 496h61l137 -447h9l139 447h58l-222 -686h-57zM208 575l-34 25l107 148l40 -30z" />
    <glyph glyph-name="thorn" unicode="&#xfe;" horiz-adv-x="492" 
d="M66 -190v890h56v-296q20 41 56.5 70.5t91.5 29.5q81 0 128.5 -61t47.5 -174v-40q0 -115 -47.5 -177t-128.5 -62q-55 0 -91.5 30t-56.5 72v-282h-56zM256 454q-51 0 -84 -33.5t-50 -75.5v-196q17 -42 50.5 -75.5t83.5 -33.5q59 0 96.5 46.5t37.5 145.5v34q0 98 -37.5 143
t-96.5 45z" />
    <glyph glyph-name="ydieresis" unicode="&#xff;" horiz-adv-x="424" 
d="M135 -190l62 190h-28l-159 496h61l137 -447h9l139 447h58l-222 -686h-57zM124 597q-18 0 -28.5 11.5t-10.5 27.5q0 17 10.5 28t28.5 11t28.5 -11t10.5 -28q0 -16 -10.5 -27.5t-28.5 -11.5zM304 597q-18 0 -28.5 11.5t-10.5 27.5q0 17 10.5 28t28.5 11t28.5 -11t10.5 -28
q0 -16 -10.5 -27.5t-28.5 -11.5z" />
    <glyph glyph-name="Amacron" unicode="&#x100;" horiz-adv-x="525" 
d="M9 0l207 660h93l207 -660h-62l-58 188h-270l-58 -188h-59zM255 608l-114 -370h239l-114 370h-11zM144 749v44h238v-44h-238z" />
    <glyph glyph-name="amacron" unicode="&#x101;" horiz-adv-x="447" 
d="M167 -10q-67 0 -103 39.5t-36 100.5q0 65 43.5 107.5t128.5 42.5h114v31q0 77 -27.5 112t-86.5 35q-37 0 -65 -12t-52 -36l-34 36q29 29 67 45.5t87 16.5q83 0 124.5 -47.5t41.5 -149.5v-216q0 -35 10.5 -46.5t31.5 -11.5h7.5t8.5 1v-46q-7 -1 -15.5 -1.5t-15.5 -0.5
q-46 0 -62.5 27.5t-16.5 75.5q-30 -58 -70.5 -80.5t-79.5 -22.5zM182 38q35 0 71 23t61 80v93h-110q-58 0 -88.5 -27t-30.5 -75q0 -46 25.5 -70t71.5 -24zM95 609v42h236v-42h-236z" />
    <glyph glyph-name="Abreve" unicode="&#x102;" horiz-adv-x="525" 
d="M9 0l207 660h93l207 -660h-62l-58 188h-270l-58 -188h-59zM255 608l-114 -370h239l-114 370h-11zM263 720q-64 0 -95 36t-35 84h44q4 -30 24.5 -52t61.5 -22t61.5 22t24.5 52h44q-4 -48 -35 -84t-95 -36z" />
    <glyph glyph-name="abreve" unicode="&#x103;" horiz-adv-x="447" 
d="M167 -10q-67 0 -103 39.5t-36 100.5q0 65 43.5 107.5t128.5 42.5h114v31q0 77 -27.5 112t-86.5 35q-37 0 -65 -12t-52 -36l-34 36q29 29 67 45.5t87 16.5q83 0 124.5 -47.5t41.5 -149.5v-216q0 -35 10.5 -46.5t31.5 -11.5h7.5t8.5 1v-46q-7 -1 -15.5 -1.5t-15.5 -0.5
q-46 0 -62.5 27.5t-16.5 75.5q-30 -58 -70.5 -80.5t-79.5 -22.5zM182 38q35 0 71 23t61 80v93h-110q-58 0 -88.5 -27t-30.5 -75q0 -46 25.5 -70t71.5 -24zM213 575q-62 0 -93 35.5t-34 82.5h43q4 -30 24 -51.5t60 -21.5q41 0 60.5 21.5t23.5 51.5h43q-3 -47 -34 -82.5
t-93 -35.5z" />
    <glyph glyph-name="Aogonek" unicode="&#x104;" horiz-adv-x="525" 
d="M9 0l207 660h93l207 -660h-62l-58 188h-270l-58 -188h-59zM255 608l-114 -370h239l-114 370h-11zM476 -202q-43 0 -71.5 25.5t-28.5 70.5q0 36 17.5 62t46 43t60.5 26l16 -25q-37 -13 -63 -37.5t-26 -60.5q0 -24 11 -36t26 -16.5t27 -4.5q6 0 14.5 1t14.5 2v-46
q-13 -2 -25 -3t-19 -1z" />
    <glyph glyph-name="aogonek" unicode="&#x105;" horiz-adv-x="447" 
d="M167 -10q-67 0 -103 39.5t-36 100.5q0 65 43.5 107.5t128.5 42.5h114v31q0 77 -27.5 112t-86.5 35q-37 0 -65 -12t-52 -36l-34 36q29 29 67 45.5t87 16.5q83 0 124.5 -47.5t41.5 -149.5v-214q0 -35 10.5 -46.5t31.5 -11.5h7.5t8.5 1v-46q-37 -8 -63 -32t-26 -60
q0 -24 11 -36t26 -16.5t27 -4.5q6 0 14.5 1t14.5 2v-46q-21 -4 -44 -4q-43 0 -71.5 24t-28.5 69q0 37 22 64.5t55 41.5q-27 10 -37 35t-10 61q-30 -58 -70.5 -80.5t-79.5 -22.5zM182 38q35 0 71 23t61 80v93h-110q-58 0 -88.5 -27t-30.5 -75q0 -46 25.5 -70t71.5 -24z" />
    <glyph glyph-name="Cacute" unicode="&#x106;" horiz-adv-x="534" 
d="M300 -15q-75 0 -130.5 38t-85.5 108t-30 166v66q0 97 30 166.5t85.5 107.5t130.5 38q116 0 196 -92l-37 -37q-72 76 -157 76q-87 0 -138 -67.5t-51 -195.5v-58q0 -127 51.5 -195t137.5 -68q46 0 85 19.5t72 56.5l37 -37q-37 -42 -85.5 -67t-110.5 -25zM298 720l-30 32
l134 129l35 -37z" />
    <glyph glyph-name="cacute" unicode="&#x107;" horiz-adv-x="415" 
d="M237 -12q-85 0 -138 63t-53 178v40q0 113 51.5 176t138.5 63q49 0 86.5 -20t64.5 -55l-36 -33q-22 28 -49 43t-63 15q-62 0 -99.5 -47t-37.5 -145v-34q0 -100 38.5 -147t101.5 -47q37 0 64.5 16t49.5 42l35 -32q-28 -36 -65.5 -56t-88.5 -20zM231 575l-34 25l107 148
l40 -30z" />
    <glyph glyph-name="Cdotaccent" unicode="&#x10a;" horiz-adv-x="534" 
d="M300 -15q-75 0 -130.5 38t-85.5 108t-30 166v66q0 97 30 166.5t85.5 107.5t130.5 38q116 0 196 -92l-37 -37q-72 76 -157 76q-87 0 -138 -67.5t-51 -195.5v-58q0 -127 51.5 -195t137.5 -68q46 0 85 19.5t72 56.5l37 -37q-37 -42 -85.5 -67t-110.5 -25zM306 730
q-18 0 -29.5 12t-11.5 29t11.5 29.5t29.5 12.5t29.5 -12.5t11.5 -29.5t-11.5 -29t-29.5 -12z" />
    <glyph glyph-name="cdotaccent" unicode="&#x10b;" horiz-adv-x="415" 
d="M237 -12q-85 0 -138 63t-53 178v40q0 113 51.5 176t138.5 63q49 0 86.5 -20t64.5 -55l-36 -33q-22 28 -49 43t-63 15q-62 0 -99.5 -47t-37.5 -145v-34q0 -100 38.5 -147t101.5 -47q37 0 64.5 16t49.5 42l35 -32q-28 -36 -65.5 -56t-88.5 -20zM237 595q-18 0 -29.5 12
t-11.5 29t11.5 29.5t29.5 12.5t29.5 -12.5t11.5 -29.5t-11.5 -29t-29.5 -12z" />
    <glyph glyph-name="Ccaron" unicode="&#x10c;" horiz-adv-x="534" 
d="M300 -15q-75 0 -130.5 38t-85.5 108t-30 166v66q0 97 30 166.5t85.5 107.5t130.5 38q116 0 196 -92l-37 -37q-72 76 -157 76q-87 0 -138 -67.5t-51 -195.5v-58q0 -127 51.5 -195t137.5 -68q46 0 85 19.5t72 56.5l37 -37q-37 -42 -85.5 -67t-110.5 -25zM192 871l109 -93
h10l109 93l28 -33l-119 -108h-46l-119 108z" />
    <glyph glyph-name="ccaron" unicode="&#x10d;" horiz-adv-x="415" 
d="M237 -12q-85 0 -138 63t-53 178v40q0 113 51.5 176t138.5 63q49 0 86.5 -20t64.5 -55l-36 -33q-22 28 -49 43t-63 15q-62 0 -99.5 -47t-37.5 -145v-34q0 -100 38.5 -147t101.5 -47q37 0 64.5 16t49.5 42l35 -32q-28 -36 -65.5 -56t-88.5 -20zM128 747l104 -112h10
l104 112l30 -28l-116 -134h-46l-116 134z" />
    <glyph glyph-name="Dcaron" unicode="&#x10e;" horiz-adv-x="599" 
d="M82 0v660h196q131 0 199 -82t68 -222v-52q0 -139 -68 -221.5t-199 -82.5h-196zM279 608h-138v-556h138q101 0 154 66t53 190v44q0 125 -53 190.5t-154 65.5zM164 871l109 -93h10l109 93l28 -33l-119 -108h-46l-119 108z" />
    <glyph glyph-name="dcaron" unicode="&#x10f;" horiz-adv-x="529" 
d="M222 -10q-81 0 -128.5 62t-47.5 176v40q0 114 47.5 176t128.5 62q55 0 91.5 -30t56.5 -72v296h56v-700h-53v96q-20 -43 -57 -74.5t-94 -31.5zM102 231q0 -98 37.5 -144.5t96.5 -46.5q51 0 84 33.5t50 75.5v198q-17 42 -50.5 75.5t-83.5 33.5q-59 0 -96.5 -46.5
t-37.5 -144.5v-34zM478 511l25 189h55l-33 -189h-47z" />
    <glyph glyph-name="Dcroat" unicode="&#x110;" horiz-adv-x="599" 
d="M82 0v308h-75v51h75v301h196q131 0 199 -82t68 -222v-52q0 -139 -68 -221.5t-199 -82.5h-196zM253 308h-112v-256h138q101 0 154 66t53 190v44q0 125 -53 190.5t-154 65.5h-138v-249h112v-51z" />
    <glyph glyph-name="dcroat" unicode="&#x111;" horiz-adv-x="492" 
d="M222 -10q-81 0 -128.5 62t-47.5 177v40q0 113 47.5 174t128.5 61q55 0 91.5 -29.5t56.5 -70.5v177h-153v44h153v75h56v-75h53v-44h-53v-581h-53v98q-20 -44 -57 -76t-94 -32zM102 232q0 -99 37.5 -145.5t96.5 -46.5q50 0 83.5 33.5t50.5 75.5v196q-17 42 -50 75.5
t-84 33.5q-60 0 -97 -45t-37 -143v-34z" />
    <glyph glyph-name="Emacron" unicode="&#x112;" horiz-adv-x="500" 
d="M82 0v660h361v-52h-302v-246h275v-51h-275v-259h311v-52h-370zM148 749v44h238v-44h-238z" />
    <glyph glyph-name="emacron" unicode="&#x113;" horiz-adv-x="457" 
d="M243 -12q-97 0 -147 65t-50 175v40q0 110 48.5 175t139.5 65q61 0 101.5 -31t61 -85.5t20.5 -124.5v-33h-316v-2q0 -95 36.5 -144.5t108.5 -49.5q43 0 72.5 15t51.5 40l34 -32q-30 -36 -69 -54.5t-92 -18.5zM233 458q-60 0 -94.5 -46t-37.5 -132h262q-4 82 -36 130
t-94 48zM114 609v42h236v-42h-236z" />
    <glyph glyph-name="Edotaccent" unicode="&#x116;" horiz-adv-x="500" 
d="M82 0v660h361v-52h-302v-246h275v-51h-275v-259h311v-52h-370zM267 730q-18 0 -29.5 12t-11.5 29t11.5 29.5t29.5 12.5t29.5 -12.5t11.5 -29.5t-11.5 -29t-29.5 -12z" />
    <glyph glyph-name="edotaccent" unicode="&#x117;" horiz-adv-x="457" 
d="M243 -12q-97 0 -147 65t-50 175v40q0 110 48.5 175t139.5 65q61 0 101.5 -31t61 -85.5t20.5 -124.5v-33h-316v-2q0 -95 36.5 -144.5t108.5 -49.5q43 0 72.5 15t51.5 40l34 -32q-30 -36 -69 -54.5t-92 -18.5zM233 458q-60 0 -94.5 -46t-37.5 -132h262q-4 82 -36 130
t-94 48zM232 595q-18 0 -29.5 12t-11.5 29t11.5 29.5t29.5 12.5t29.5 -12.5t11.5 -29.5t-11.5 -29t-29.5 -12z" />
    <glyph glyph-name="Eogonek" unicode="&#x118;" horiz-adv-x="500" 
d="M82 0v660h361v-52h-302v-246h275v-51h-275v-259h311v-52h-370zM412 -202q-43 0 -71.5 25.5t-28.5 70.5q0 36 17.5 62t46 43t60.5 26l16 -25q-37 -13 -63 -37.5t-26 -60.5q0 -24 11 -36t26 -16.5t27 -4.5q6 0 14.5 1t14.5 2v-46q-13 -2 -25 -3t-19 -1z" />
    <glyph glyph-name="eogonek" unicode="&#x119;" horiz-adv-x="457" 
d="M243 -12q-97 0 -147 65t-50 175v40q0 110 48.5 175t139.5 65q61 0 101.5 -31t61 -85.5t20.5 -124.5v-33h-316v-2q0 -95 36.5 -144.5t108.5 -49.5q43 0 72.5 15t51.5 40l34 -32q-30 -36 -69 -54.5t-92 -18.5zM233 458q-60 0 -94.5 -46t-37.5 -132h262q-4 82 -36 130
t-94 48zM279 -202q-43 0 -71.5 25.5t-28.5 70.5q0 36 17.5 61.5t46.5 40t61 17.5l15 -13q-37 -13 -63 -37.5t-26 -60.5q0 -24 11 -36t26 -16.5t27 -4.5q6 0 14.5 1t14.5 2v-46q-13 -2 -25 -3t-19 -1z" />
    <glyph glyph-name="Ecaron" unicode="&#x11a;" horiz-adv-x="500" 
d="M82 0v660h361v-52h-302v-246h275v-51h-275v-259h311v-52h-370zM153 871l109 -93h10l109 93l28 -33l-119 -108h-46l-119 108z" />
    <glyph glyph-name="ecaron" unicode="&#x11b;" horiz-adv-x="457" 
d="M243 -12q-97 0 -147 65t-50 175v40q0 110 48.5 175t139.5 65q61 0 101.5 -31t61 -85.5t20.5 -124.5v-33h-316v-2q0 -95 36.5 -144.5t108.5 -49.5q43 0 72.5 15t51.5 40l34 -32q-30 -36 -69 -54.5t-92 -18.5zM233 458q-60 0 -94.5 -46t-37.5 -132h262q-4 82 -36 130
t-94 48zM123 747l104 -112h10l104 112l30 -28l-116 -134h-46l-116 134z" />
    <glyph glyph-name="Gbreve" unicode="&#x11e;" horiz-adv-x="585" 
d="M302 -15q-118 0 -183 84t-65 228v66q0 97 30.5 166.5t87.5 107.5t134 38q65 0 114 -24.5t86 -67.5l-37 -37q-34 38 -74 57t-89 19q-89 0 -141 -67.5t-52 -195.5v-58q0 -127 49.5 -195t139.5 -68q78 0 125.5 48t47.5 148v67h-158v51h216v-117q0 -118 -63.5 -184
t-167.5 -66zM306 720q-64 0 -95 36t-35 84h44q4 -30 24.5 -52t61.5 -22t61.5 22t24.5 52h44q-4 -48 -35 -84t-95 -36z" />
    <glyph glyph-name="gbreve" unicode="&#x11f;" horiz-adv-x="491" 
d="M222 -10q-81 0 -128.5 62t-47.5 176v40q0 114 47.5 176t128.5 62q57 0 93.5 -31t56.5 -73v94h53v-488q0 -113 -55 -161.5t-145 -48.5q-55 0 -92.5 15.5t-67.5 43.5l30 39q26 -23 56 -35.5t74 -12.5q64 0 104.5 35t40.5 125v84q-20 -42 -56.5 -72t-91.5 -30zM102 231
q0 -98 37.5 -144.5t96.5 -46.5q49 0 82.5 32.5t50.5 74.5v203q-17 40 -50 73t-83 33q-59 0 -96.5 -46.5t-37.5 -144.5v-34zM242 575q-62 0 -93 35.5t-34 82.5h43q4 -30 24 -51.5t60 -21.5q41 0 60.5 21.5t23.5 51.5h43q-3 -47 -34 -82.5t-93 -35.5z" />
    <glyph glyph-name="Gdotaccent" unicode="&#x120;" horiz-adv-x="585" 
d="M302 -15q-118 0 -183 84t-65 228v66q0 97 30.5 166.5t87.5 107.5t134 38q65 0 114 -24.5t86 -67.5l-37 -37q-34 38 -74 57t-89 19q-89 0 -141 -67.5t-52 -195.5v-58q0 -127 49.5 -195t139.5 -68q78 0 125.5 48t47.5 148v67h-158v51h216v-117q0 -118 -63.5 -184
t-167.5 -66zM306 730q-18 0 -29.5 12t-11.5 29t11.5 29.5t29.5 12.5t29.5 -12.5t11.5 -29.5t-11.5 -29t-29.5 -12z" />
    <glyph glyph-name="gdotaccent" unicode="&#x121;" horiz-adv-x="491" 
d="M222 -10q-81 0 -128.5 62t-47.5 176v40q0 114 47.5 176t128.5 62q57 0 93.5 -31t56.5 -73v94h53v-488q0 -113 -55 -161.5t-145 -48.5q-55 0 -92.5 15.5t-67.5 43.5l30 39q26 -23 56 -35.5t74 -12.5q64 0 104.5 35t40.5 125v84q-20 -42 -56.5 -72t-91.5 -30zM102 231
q0 -98 37.5 -144.5t96.5 -46.5q49 0 82.5 32.5t50.5 74.5v203q-17 40 -50 73t-83 33q-59 0 -96.5 -46.5t-37.5 -144.5v-34zM242 595q-18 0 -29.5 12t-11.5 29t11.5 29.5t29.5 12.5t29.5 -12.5t11.5 -29.5t-11.5 -29t-29.5 -12z" />
    <glyph glyph-name="uni0122" unicode="&#x122;" horiz-adv-x="585" 
d="M302 -15q-118 0 -183 84t-65 228v66q0 97 30.5 166.5t87.5 107.5t134 38q65 0 114 -24.5t86 -67.5l-37 -37q-34 38 -74 57t-89 19q-89 0 -141 -67.5t-52 -195.5v-58q0 -127 49.5 -195t139.5 -68q78 0 125.5 48t47.5 148v67h-158v51h216v-117q0 -118 -63.5 -184
t-167.5 -66zM270 -244l-22 23q41 40 53 76q-16 1 -26.5 12.5t-10.5 28.5q0 19 11.5 30.5t28.5 11.5q19 0 30 -12.5t11 -34.5q0 -30 -21 -68t-54 -67z" />
    <glyph glyph-name="uni0123" unicode="&#x123;" horiz-adv-x="491" 
d="M222 -10q-81 0 -128.5 62t-47.5 176v40q0 114 47.5 176t128.5 62q57 0 93.5 -31t56.5 -73v94h53v-488q0 -113 -55 -161.5t-145 -48.5q-55 0 -92.5 15.5t-67.5 43.5l30 39q26 -23 56 -35.5t74 -12.5q64 0 104.5 35t40.5 125v84q-20 -42 -56.5 -72t-91.5 -30zM102 231
q0 -98 37.5 -144.5t96.5 -46.5q49 0 82.5 32.5t50.5 74.5v203q-17 40 -50 73t-83 33q-59 0 -96.5 -46.5t-37.5 -144.5v-34zM242 572q-19 0 -30 12.5t-11 34.5q0 30 21 68t54 67l22 -23q-41 -40 -53 -76q16 -1 26.5 -12.5t10.5 -28.5q0 -19 -11.5 -30.5t-28.5 -11.5z" />
    <glyph glyph-name="Hbar" unicode="&#x126;" horiz-adv-x="629" 
d="M85 0v521h-63v49h63v90h59v-90h341v90h59v-90h63v-49h-63v-521h-59v307h-341v-307h-59zM144 359h341v162h-341v-162z" />
    <glyph glyph-name="hbar" unicode="&#x127;" horiz-adv-x="480" 
d="M66 0v581h-53v44h53v75h56v-75h153v-44h-153v-177q21 43 57.5 71.5t91.5 28.5q69 0 109 -47t40 -148v-309h-56v303q0 80 -27.5 115.5t-80.5 35.5q-50 0 -83.5 -32t-50.5 -75v-347h-56z" />
    <glyph glyph-name="Itilde" unicode="&#x128;" horiz-adv-x="223" 
d="M82 0v660h59v-660h-59zM179 715q-29 0 -65 28l-30 24q-24 19 -38 19q-16 0 -23 -15t-8 -50h-42q0 107 72 107q29 0 65 -28l30 -24q24 -19 38 -19q16 0 23 15t8 50h42q0 -107 -72 -107z" />
    <glyph glyph-name="itilde" unicode="&#x129;" horiz-adv-x="188" 
d="M66 0v496h56v-496h-56zM154 581q-14 0 -27 5t-31 21l-27 24q-10 8 -18 13t-16 5q-13 0 -18 -14t-7 -49h-41q0 104 65 104q14 0 27 -4.5t31 -21.5l27 -24q10 -8 18.5 -13t15.5 -5q13 0 18.5 14.5t6.5 48.5h41q0 -104 -65 -104z" />
    <glyph glyph-name="Imacron" unicode="&#x12a;" horiz-adv-x="223" 
d="M82 0v660h59v-660h-59zM-7 749v44h238v-44h-238z" />
    <glyph glyph-name="imacron" unicode="&#x12b;" horiz-adv-x="188" 
d="M66 0v496h56v-496h-56zM-11 609v42h210v-42h-210z" />
    <glyph glyph-name="Iogonek" unicode="&#x12e;" horiz-adv-x="223" 
d="M82 0v660h59v-660h-59zM101 -202q-43 0 -71.5 25.5t-28.5 70.5q0 36 17.5 62t46 43t60.5 26l16 -25q-37 -13 -63 -37.5t-26 -60.5q0 -24 11 -36t26 -16.5t27 -4.5q6 0 14.5 1t14.5 2v-46q-13 -2 -25 -3t-19 -1z" />
    <glyph glyph-name="iogonek" unicode="&#x12f;" horiz-adv-x="188" 
d="M94 595q-18 0 -29.5 12t-11.5 29t11.5 29.5t29.5 12.5t29.5 -12.5t11.5 -29.5t-11.5 -29t-29.5 -12zM66 0v496h56v-496h-56zM82 -202q-43 0 -71.5 24t-28.5 69q0 53 38.5 85.5t90.5 38.5l11 -15q-37 -13 -63 -37.5t-26 -60.5q0 -24 11 -36t26 -16.5t27 -4.5q6 0 14.5 1
t14.5 2v-46q-21 -4 -44 -4z" />
    <glyph glyph-name="Idotaccent" unicode="&#x130;" horiz-adv-x="223" 
d="M82 0v660h59v-660h-59zM112 730q-18 0 -29.5 12t-11.5 29t11.5 29.5t29.5 12.5t29.5 -12.5t11.5 -29.5t-11.5 -29t-29.5 -12z" />
    <glyph glyph-name="dotlessi" unicode="&#x131;" horiz-adv-x="188" 
d="M66 0v496h56v-496h-56z" />
    <glyph glyph-name="IJ" unicode="&#x132;" horiz-adv-x="560" 
d="M82 169v491h59v-491h-59zM289 -15q-50 0 -94 17.5t-70 46.5l32 43q21 -24 56.5 -39t73.5 -15t70 15.5t52 51t20 93.5v462h59v-463q0 -76 -27.5 -122.5t-73 -68t-98.5 -21.5z" />
    <glyph glyph-name="ij" unicode="&#x133;" horiz-adv-x="376" 
d="M94 595q-18 0 -29.5 12t-11.5 29t11.5 29.5t29.5 12.5t29.5 -12.5t11.5 -29.5t-11.5 -29t-29.5 -12zM66 0v496h56v-496h-56zM282 595q-18 0 -29.5 12t-11.5 29t11.5 29.5t29.5 12.5t29.5 -12.5t11.5 -29.5t-11.5 -29t-29.5 -12zM219 -202q-10 0 -17 0.5t-18 1.5v48
q8 -1 13 -1h10q26 0 36.5 15.5t10.5 62.5v571h56v-576q0 -61 -19.5 -91.5t-71.5 -30.5z" />
    <glyph glyph-name="uni0136" unicode="&#x136;" horiz-adv-x="553" 
d="M82 0v660h59v-301h113l208 301h67l-226 -323l234 -337h-74l-212 308h-110v-308h-59zM272 -244l-22 23q41 40 53 76q-16 1 -26.5 12.5t-10.5 28.5q0 19 11.5 30.5t28.5 11.5q19 0 30 -12.5t11 -34.5q0 -30 -21 -68t-54 -67z" />
    <glyph glyph-name="uni0137" unicode="&#x137;" horiz-adv-x="435" 
d="M66 0v700h56v-413h78l143 209h65l-162 -230l173 -266h-68l-151 237h-78v-237h-56zM205 -244l-22 23q41 40 53 76q-16 1 -26.5 12.5t-10.5 28.5q0 19 11.5 30.5t28.5 11.5q19 0 30 -12.5t11 -34.5q0 -30 -21 -68t-54 -67z" />
    <glyph glyph-name="kgreenlandic" unicode="&#x138;" horiz-adv-x="435" 
d="M66 0v496h56v-209h78l143 209h65l-162 -230l173 -266h-68l-151 237h-78v-237h-56z" />
    <glyph glyph-name="Lacute" unicode="&#x139;" horiz-adv-x="467" 
d="M82 0v660h59v-608h298v-52h-357zM104 720l-30 32l134 129l35 -37z" />
    <glyph glyph-name="lacute" unicode="&#x13a;" horiz-adv-x="216" 
d="M158 -10q-52 0 -72 28t-20 75v607h56v-602q0 -33 11.5 -46.5t35.5 -13.5h11t12 1v-46q-16 -3 -34 -3zM89 760l-29 31l131 127l34 -36z" />
    <glyph glyph-name="uni013B" unicode="&#x13b;" horiz-adv-x="467" 
d="M82 0v660h59v-608h298v-52h-357zM229 -244l-22 23q41 40 53 76q-16 1 -26.5 12.5t-10.5 28.5q0 19 11.5 30.5t28.5 11.5q19 0 30 -12.5t11 -34.5q0 -30 -21 -68t-54 -67z" />
    <glyph glyph-name="uni013C" unicode="&#x13c;" horiz-adv-x="216" 
d="M158 -10q-52 0 -72 28t-20 75v607h56v-602q0 -33 11.5 -46.5t35.5 -13.5h11t12 1v-46q-16 -3 -34 -3zM99 -244l-22 23q41 40 53 76q-16 1 -26.5 12.5t-10.5 28.5q0 19 11.5 30.5t28.5 11.5q19 0 30 -12.5t11 -34.5q0 -30 -21 -68t-54 -67z" />
    <glyph glyph-name="Lcaron" unicode="&#x13d;" horiz-adv-x="467" 
d="M82 0v660h59v-608h298v-52h-357zM252 470l25 189h55l-33 -189h-47z" />
    <glyph glyph-name="lcaron" unicode="&#x13e;" horiz-adv-x="248" 
d="M158 -10q-52 0 -72 28t-20 75v607h56v-602q0 -33 11.5 -46.5t35.5 -13.5h11t12 1v-46q-16 -3 -34 -3zM180 511l25 189h55l-33 -189h-47z" />
    <glyph glyph-name="Lslash" unicode="&#x141;" horiz-adv-x="472" 
d="M87 0v291l-61 -41v51l61 41v318h59v-279l173 115v-51l-173 -115v-278h298v-52h-357z" />
    <glyph glyph-name="lslash" unicode="&#x142;" horiz-adv-x="233" 
d="M170 -10q-52 0 -72 28t-20 75v233l-63 -41v49l63 41v325h56v-289l80 51v-49l-80 -51v-264q0 -33 11.5 -46.5t35.5 -13.5h11t12 1v-46q-16 -3 -34 -3z" />
    <glyph glyph-name="Nacute" unicode="&#x143;" horiz-adv-x="626" 
d="M82 0v660h96l299 -603h10v603h57v-660h-96l-299 603h-10v-603h-57zM305 720l-30 32l134 129l35 -37z" />
    <glyph glyph-name="nacute" unicode="&#x144;" horiz-adv-x="480" 
d="M66 0v496h53v-98q21 45 58 75.5t94 30.5q69 0 109 -47t40 -148v-309h-56v303q0 80 -27.5 115.5t-80.5 35.5q-50 0 -83.5 -32t-50.5 -75v-347h-56zM237 575l-34 25l107 148l40 -30z" />
    <glyph glyph-name="uni0145" unicode="&#x145;" horiz-adv-x="626" 
d="M82 0v660h96l299 -603h10v603h57v-660h-96l-299 603h-10v-603h-57zM281 -244l-22 23q41 40 53 76q-16 1 -26.5 12.5t-10.5 28.5q0 19 11.5 30.5t28.5 11.5q19 0 30 -12.5t11 -34.5q0 -30 -21 -68t-54 -67z" />
    <glyph glyph-name="uni0146" unicode="&#x146;" horiz-adv-x="480" 
d="M66 0v496h53v-98q21 45 58 75.5t94 30.5q69 0 109 -47t40 -148v-309h-56v303q0 80 -27.5 115.5t-80.5 35.5q-50 0 -83.5 -32t-50.5 -75v-347h-56zM211 -244l-22 23q41 40 53 76q-16 1 -26.5 12.5t-10.5 28.5q0 19 11.5 30.5t28.5 11.5q19 0 30 -12.5t11 -34.5
q0 -30 -21 -68t-54 -67z" />
    <glyph glyph-name="Ncaron" unicode="&#x147;" horiz-adv-x="626" 
d="M82 0v660h96l299 -603h10v603h57v-660h-96l-299 603h-10v-603h-57zM199 871l109 -93h10l109 93l28 -33l-119 -108h-46l-119 108z" />
    <glyph glyph-name="ncaron" unicode="&#x148;" horiz-adv-x="480" 
d="M66 0v496h53v-98q21 45 58 75.5t94 30.5q69 0 109 -47t40 -148v-309h-56v303q0 80 -27.5 115.5t-80.5 35.5q-50 0 -83.5 -32t-50.5 -75v-347h-56zM134 747l104 -112h10l104 112l30 -28l-116 -134h-46l-116 134z" />
    <glyph glyph-name="Eng" unicode="&#x14a;" horiz-adv-x="626" 
d="M82 0v660h96l299 -603h10v603h57v-753q0 -46 -20.5 -77.5t-73.5 -31.5q-14 0 -34 3v47q6 -1 12.5 -1.5t11.5 -0.5q26 0 36.5 14t10.5 47v93h-39l-299 603h-10v-603h-57z" />
    <glyph glyph-name="eng" unicode="&#x14b;" horiz-adv-x="480" 
d="M66 0v496h53v-98q21 45 58 75.5t94 30.5q69 0 109 -47t40 -148v-389q0 -61 -19.5 -91.5t-71.5 -30.5q-10 0 -17 0.5t-18 1.5v48q8 -1 13 -1h10q26 0 36.5 15.5t10.5 62.5v378q0 80 -27.5 115.5t-80.5 35.5q-50 0 -83.5 -32t-50.5 -75v-347h-56z" />
    <glyph glyph-name="Ohungarumlaut" unicode="&#x150;" horiz-adv-x="602" 
d="M301 -15q-118 0 -182.5 83.5t-64.5 228.5v66q0 145 64.5 228.5t182.5 83.5t182.5 -83.5t64.5 -228.5v-66q0 -145 -64.5 -228.5t-182.5 -83.5zM301 38q89 0 138.5 67t49.5 196v58q0 129 -49.5 196t-138.5 67t-138.5 -67t-49.5 -196v-58q0 -129 49.5 -196t138.5 -67z
M366 720l-27 33l129 127l33 -38zM234 720l-27 33l129 127l32 -38z" />
    <glyph glyph-name="ohungarumlaut" unicode="&#x151;" horiz-adv-x="480" 
d="M240 -12q-92 0 -143 64.5t-51 175.5v40q0 111 51 175.5t143 64.5t143 -64.5t51 -175.5v-40q0 -111 -51 -175.5t-143 -64.5zM240 38q64 0 101 49t37 144v34q0 95 -37 144t-101 49t-101 -49t-37 -144v-34q0 -95 37 -144t101 -49zM195 575l-34 25l107 148l40 -30zM307 575
l-34 25l107 148l40 -30z" />
    <glyph glyph-name="OE" unicode="&#x152;" horiz-adv-x="835" 
d="M302 0q-78 0 -133.5 38t-85 105t-29.5 154v66q0 87 29.5 154t85 105t133.5 38h476v-52h-302v-246h275v-51h-275v-259h311v-52h-485zM302 53h115v554h-115q-87 0 -138 -66.5t-51 -181.5v-58q0 -115 51 -181.5t138 -66.5z" />
    <glyph glyph-name="oe" unicode="&#x153;" horiz-adv-x="789" 
d="M239 -12q-92 0 -142.5 64.5t-50.5 175.5v40q0 110 50.5 175t142.5 65q58 0 100.5 -28.5t65.5 -88.5q23 60 63.5 88.5t97.5 28.5q61 0 101.5 -31t61 -85.5t20.5 -124.5v-33h-316v-2q0 -95 36.5 -144.5t108.5 -49.5q43 0 72.5 15t51.5 40l34 -32q-30 -36 -69 -54.5
t-92 -18.5q-62 0 -104.5 28.5t-65.5 88.5q-23 -60 -65.5 -88.5t-100.5 -28.5zM565 458q-60 0 -94.5 -46t-37.5 -132h262q-4 82 -36 130t-94 48zM239 38q64 0 101 49t37 144v34q0 95 -37 144t-101 49t-100.5 -49t-36.5 -144v-34q0 -95 36.5 -144t100.5 -49z" />
    <glyph glyph-name="Racute" unicode="&#x154;" horiz-adv-x="541" 
d="M82 0v660h213q56 0 99 -21.5t67.5 -61.5t24.5 -95v-20q0 -71 -37.5 -113.5t-88.5 -57.5l151 -291h-70l-142 282h-158v-282h-59zM296 609h-155v-276h155q62 0 96.5 34.5t34.5 95.5v16q0 62 -34.5 96t-96.5 34zM276 720l-30 32l134 129l35 -37z" />
    <glyph glyph-name="racute" unicode="&#x155;" horiz-adv-x="326" 
d="M66 0v496h53v-115q11 31 32 58.5t52 44.5t73 17q17 0 32 -3v-52q-7 1 -15.5 1.5t-17.5 0.5q-60 0 -97.5 -35t-55.5 -81v-332h-56zM181 575l-34 25l107 148l40 -30z" />
    <glyph glyph-name="Rcaron" unicode="&#x158;" horiz-adv-x="541" 
d="M82 0v660h213q56 0 99 -21.5t67.5 -61.5t24.5 -95v-20q0 -71 -37.5 -113.5t-88.5 -57.5l151 -291h-70l-142 282h-158v-282h-59zM296 609h-155v-276h155q62 0 96.5 34.5t34.5 95.5v16q0 62 -34.5 96t-96.5 34zM170 871l109 -93h10l109 93l28 -33l-119 -108h-46l-119 108z
" />
    <glyph glyph-name="rcaron" unicode="&#x159;" horiz-adv-x="326" 
d="M66 0v496h53v-115q11 31 32 58.5t52 44.5t73 17q17 0 32 -3v-52q-7 1 -15.5 1.5t-17.5 0.5q-60 0 -97.5 -35t-55.5 -81v-332h-56zM78 747l104 -112h10l104 112l30 -28l-116 -134h-46l-116 134z" />
    <glyph glyph-name="Sacute" unicode="&#x15a;" horiz-adv-x="497" 
d="M232 -15q-54 0 -101 16.5t-97 54.5l29 44q44 -32 84.5 -47t86.5 -15q75 0 115.5 35t40.5 98q0 48 -26.5 80.5t-86.5 48.5l-76 21q-68 19 -105.5 63t-37.5 111q0 85 56.5 132.5t147.5 47.5q50 0 96 -16t92 -52l-31 -43q-40 30 -80.5 44t-78.5 14q-61 0 -101 -32t-40 -92
q0 -45 25.5 -77t82.5 -48l76 -21q71 -19 109.5 -64t38.5 -115q0 -85 -57.5 -136.5t-161.5 -51.5zM246 720l-30 32l134 129l35 -37z" />
    <glyph glyph-name="sacute" unicode="&#x15b;" horiz-adv-x="397" 
d="M187 -12q-53 0 -91.5 18.5t-70.5 49.5l33 37q27 -27 58 -41t71 -14q50 0 81 24t31 68q0 32 -18 54.5t-60 32.5l-60 15q-54 14 -84 49t-30 87q0 63 41.5 101.5t113.5 38.5q47 0 84 -15.5t72 -44.5l-32 -38q-25 23 -54.5 35.5t-66.5 12.5q-47 0 -74.5 -23t-27.5 -64
q0 -31 18 -54t60 -34l60 -15q58 -14 86.5 -49.5t28.5 -85.5q0 -66 -46 -105.5t-123 -39.5zM198 575l-34 25l107 148l40 -30z" />
    <glyph glyph-name="Scedilla" unicode="&#x15e;" horiz-adv-x="497" 
d="M232 -15q-54 0 -101 16.5t-97 54.5l29 44q44 -32 84.5 -47t86.5 -15q75 0 115.5 35t40.5 98q0 48 -26.5 80.5t-86.5 48.5l-76 21q-68 19 -105.5 63t-37.5 111q0 85 56.5 132.5t147.5 47.5q50 0 96 -16t92 -52l-31 -43q-40 30 -80.5 44t-78.5 14q-61 0 -101 -32t-40 -92
q0 -45 25.5 -77t82.5 -48l76 -21q71 -19 109.5 -64t38.5 -115q0 -85 -57.5 -136.5t-161.5 -51.5zM223 -202q-18 0 -43 4v46q23 -5 43 -5q48 0 48 37q0 35 -51 35h-21l24 108h41l-17 -67q75 -10 75 -77q0 -81 -99 -81z" />
    <glyph glyph-name="scedilla" unicode="&#x15f;" horiz-adv-x="397" 
d="M187 -12q-53 0 -91.5 18.5t-70.5 49.5l33 37q27 -27 58 -41t71 -14q50 0 81 24t31 68q0 32 -18 54.5t-60 32.5l-60 15q-54 14 -84 49t-30 87q0 63 41.5 101.5t113.5 38.5q47 0 84 -15.5t72 -44.5l-32 -38q-25 23 -54.5 35.5t-66.5 12.5q-47 0 -74.5 -23t-27.5 -64
q0 -31 18 -54t60 -34l60 -15q58 -14 86.5 -49.5t28.5 -85.5q0 -66 -46 -105.5t-123 -39.5zM178 -202q-17 0 -42 4v45q22 -5 43 -5q48 0 48 37q0 36 -51 36h-21l24 107h40l-17 -68q74 -9 74 -75q0 -81 -98 -81z" />
    <glyph glyph-name="Scaron" unicode="&#x160;" horiz-adv-x="497" 
d="M232 -15q-54 0 -101 16.5t-97 54.5l29 44q44 -32 84.5 -47t86.5 -15q75 0 115.5 35t40.5 98q0 48 -26.5 80.5t-86.5 48.5l-76 21q-68 19 -105.5 63t-37.5 111q0 85 56.5 132.5t147.5 47.5q50 0 96 -16t92 -52l-31 -43q-40 30 -80.5 44t-78.5 14q-61 0 -101 -32t-40 -92
q0 -45 25.5 -77t82.5 -48l76 -21q71 -19 109.5 -64t38.5 -115q0 -85 -57.5 -136.5t-161.5 -51.5zM140 871l109 -93h10l109 93l28 -33l-119 -108h-46l-119 108z" />
    <glyph glyph-name="scaron" unicode="&#x161;" horiz-adv-x="397" 
d="M187 -12q-53 0 -91.5 18.5t-70.5 49.5l33 37q27 -27 58 -41t71 -14q50 0 81 24t31 68q0 32 -18 54.5t-60 32.5l-60 15q-54 14 -84 49t-30 87q0 63 41.5 101.5t113.5 38.5q47 0 84 -15.5t72 -44.5l-32 -38q-25 23 -54.5 35.5t-66.5 12.5q-47 0 -74.5 -23t-27.5 -64
q0 -31 18 -54t60 -34l60 -15q58 -14 86.5 -49.5t28.5 -85.5q0 -66 -46 -105.5t-123 -39.5zM95 747l104 -112h10l104 112l30 -28l-116 -134h-46l-116 134z" />
    <glyph glyph-name="uni0162" unicode="&#x162;" horiz-adv-x="503" 
d="M222 0v608h-204v52h467v-52h-204v-608h-59zM237 -202q-18 0 -43 4v46q23 -5 43 -5q48 0 48 37q0 35 -51 35h-21l24 108h41l-17 -67q75 -10 75 -77q0 -81 -99 -81z" />
    <glyph glyph-name="uni0163" unicode="&#x163;" horiz-adv-x="298" 
d="M224 -10q-70 0 -98.5 39.5t-28.5 127.5v291h-81v48h81v120l56 14v-134h123v-48h-123v-289q0 -70 20 -95t63 -25q9 0 20 0.5t20 1.5v-46q-25 -5 -52 -5zM171 -202q-17 0 -42 4v45q22 -5 43 -5q48 0 48 37q0 36 -51 36h-21l24 107h40l-17 -68q74 -9 74 -75q0 -81 -98 -81z
" />
    <glyph glyph-name="Tcaron" unicode="&#x164;" horiz-adv-x="503" 
d="M222 0v608h-204v52h467v-52h-204v-608h-59zM138 871l109 -93h10l109 93l28 -33l-119 -108h-46l-119 108z" />
    <glyph glyph-name="tcaron" unicode="&#x165;" horiz-adv-x="298" 
d="M224 -10q-70 0 -98.5 39.5t-28.5 127.5v291h-81v48h81v120l56 14v-134h123v-48h-123v-289q0 -70 20 -95t63 -25q9 0 20 0.5t20 1.5v-46q-25 -5 -52 -5zM228 553l19 147h55l-29 -147h-45z" />
    <glyph glyph-name="Tbar" unicode="&#x166;" horiz-adv-x="503" 
d="M222 0v299h-142v52h142v257h-204v52h467v-52h-204v-257h142v-52h-142v-299h-59z" />
    <glyph glyph-name="tbar" unicode="&#x167;" horiz-adv-x="298" 
d="M224 -10q-70 0 -98.5 39.5t-28.5 127.5v91h-81v47h81v153h-81v48h81v120l56 14v-134h123v-48h-123v-153h123v-47h-123v-89q0 -70 20 -95t63 -25q9 0 20 0.5t20 1.5v-46q-25 -5 -52 -5z" />
    <glyph glyph-name="Utilde" unicode="&#x168;" horiz-adv-x="595" 
d="M297 -15q-108 0 -166.5 70t-58.5 218v387h59v-386q0 -88 19.5 -140t56.5 -74t91 -22t91.5 22t56.5 74t19 140v386h58v-387q0 -148 -59 -218t-167 -70zM365 715q-29 0 -65 28l-30 24q-24 19 -38 19q-16 0 -23 -15t-8 -50h-42q0 107 72 107q29 0 65 -28l30 -24
q24 -19 38 -19q16 0 23 15t8 50h42q0 -107 -72 -107z" />
    <glyph glyph-name="utilde" unicode="&#x169;" horiz-adv-x="478" 
d="M208 -10q-68 0 -108 48.5t-40 149.5v308h56v-303q0 -80 28 -116.5t77 -36.5q52 0 85 33.5t50 76.5v346h56v-496h-53v99q-21 -46 -57.5 -77.5t-93.5 -31.5zM303 581q-16 0 -30 6t-35 22l-29 22q-12 9 -21.5 14t-17.5 5q-15 0 -22 -14.5t-8 -49.5h-41q0 105 70 105
q16 0 30 -5.5t35 -22.5l29 -22q12 -9 21.5 -14t17.5 -5q15 0 22 15t8 49h41q0 -105 -70 -105z" />
    <glyph glyph-name="Umacron" unicode="&#x16a;" horiz-adv-x="595" 
d="M297 -15q-108 0 -166.5 70t-58.5 218v387h59v-386q0 -88 19.5 -140t56.5 -74t91 -22t91.5 22t56.5 74t19 140v386h58v-387q0 -148 -59 -218t-167 -70zM179 749v44h238v-44h-238z" />
    <glyph glyph-name="umacron" unicode="&#x16b;" horiz-adv-x="478" 
d="M208 -10q-68 0 -108 48.5t-40 149.5v308h56v-303q0 -80 28 -116.5t77 -36.5q52 0 85 33.5t50 76.5v346h56v-496h-53v99q-21 -46 -57.5 -77.5t-93.5 -31.5zM118 609v42h236v-42h-236z" />
    <glyph glyph-name="Uring" unicode="&#x16e;" horiz-adv-x="595" 
d="M297 -15q-108 0 -166.5 70t-58.5 218v387h59v-386q0 -88 19.5 -140t56.5 -74t91 -22t91.5 22t56.5 74t19 140v386h58v-387q0 -148 -59 -218t-167 -70zM298 720q-40 0 -67.5 26t-27.5 69q0 44 27.5 69.5t67.5 25.5t67.5 -25.5t27.5 -69.5q0 -43 -27.5 -69t-67.5 -26z
M298 756q25 0 39.5 16t14.5 43t-14.5 43t-39.5 16t-39.5 -16t-14.5 -43t14.5 -43t39.5 -16z" />
    <glyph glyph-name="uring" unicode="&#x16f;" horiz-adv-x="478" 
d="M208 -10q-68 0 -108 48.5t-40 149.5v308h56v-303q0 -80 28 -116.5t77 -36.5q52 0 85 33.5t50 76.5v346h56v-496h-53v99q-21 -46 -57.5 -77.5t-93.5 -31.5zM236 575q-40 0 -67 25t-27 68t27 68t67 25t67 -25t27 -68t-27 -68t-67 -25zM236 610q25 0 39.5 16t14.5 42
t-14.5 42t-39.5 16t-39.5 -16t-14.5 -42t14.5 -42t39.5 -16z" />
    <glyph glyph-name="Uhungarumlaut" unicode="&#x170;" horiz-adv-x="595" 
d="M297 -15q-108 0 -166.5 70t-58.5 218v387h59v-386q0 -88 19.5 -140t56.5 -74t91 -22t91.5 22t56.5 74t19 140v386h58v-387q0 -148 -59 -218t-167 -70zM363 720l-27 33l129 127l33 -38zM231 720l-27 33l129 127l32 -38z" />
    <glyph glyph-name="uhungarumlaut" unicode="&#x171;" horiz-adv-x="478" 
d="M208 -10q-68 0 -108 48.5t-40 149.5v308h56v-303q0 -80 28 -116.5t77 -36.5q52 0 85 33.5t50 76.5v346h56v-496h-53v99q-21 -46 -57.5 -77.5t-93.5 -31.5zM190 575l-34 25l107 148l40 -30zM302 575l-34 25l107 148l40 -30z" />
    <glyph glyph-name="Uogonek" unicode="&#x172;" horiz-adv-x="595" 
d="M297 -15q-108 0 -166.5 70t-58.5 218v387h59v-386q0 -88 19.5 -140t56.5 -74t91 -22t91.5 22t56.5 74t19 140v386h58v-387q0 -148 -59 -218t-167 -70zM346 -202q-38 0 -66.5 22.5t-28.5 71.5q0 50 34 83.5t86 37.5l16 -13q-35 -13 -60.5 -39.5t-25.5 -61.5
q0 -23 10.5 -34.5t24.5 -15.5t23 -4q20 0 32 3v-46q-13 -2 -25 -3t-20 -1z" />
    <glyph glyph-name="uogonek" unicode="&#x173;" horiz-adv-x="478" 
d="M208 -10q-68 0 -108 48.5t-40 149.5v308h56v-303q0 -80 28 -116.5t77 -36.5q52 0 85 33.5t50 76.5v346h56v-496h-53v99q-21 -46 -57.5 -77.5t-93.5 -31.5zM372 -202q-43 0 -71.5 24t-28.5 69q0 53 38.5 85.5t90.5 38.5l11 -15q-37 -13 -63 -37.5t-26 -60.5q0 -24 11 -36
t26 -16.5t27 -4.5q6 0 14.5 1t14.5 2v-46q-21 -4 -44 -4z" />
    <glyph glyph-name="Wcircumflex" unicode="&#x174;" horiz-adv-x="781" 
d="M160 0l-140 660h60l124 -609h12l129 589h93l129 -589h12l124 609h58l-141 -660h-94l-129 589h-12l-132 -589h-93zM278 720l-28 33l119 108h46l119 -108l-28 -33l-109 93h-10z" />
    <glyph glyph-name="wcircumflex" unicode="&#x175;" horiz-adv-x="689" 
d="M615 496h58l-131 -496h-82l-110 436h-9l-111 -436h-83l-131 496h61l109 -446h9l110 436h83l109 -436h9zM238 575l-30 28l116 134h46l116 -134l-30 -28l-104 112h-10z" />
    <glyph glyph-name="Ycircumflex" unicode="&#x176;" horiz-adv-x="494" 
d="M216 0v269l-208 391h66l171 -328h10l167 328h64l-209 -393v-267h-61zM134 720l-28 33l119 108h46l119 -108l-28 -33l-109 93h-10z" />
    <glyph glyph-name="ycircumflex" unicode="&#x177;" horiz-adv-x="424" 
d="M135 -190l62 190h-28l-159 496h61l137 -447h9l139 447h58l-222 -686h-57zM105 575l-30 28l116 134h46l116 -134l-30 -28l-104 112h-10z" />
    <glyph glyph-name="Ydieresis" unicode="&#x178;" horiz-adv-x="494" 
d="M216 0v269l-208 391h66l171 -328h10l167 328h64l-209 -393v-267h-61zM158 730q-18 0 -29.5 12.5t-11.5 29.5t11.5 28.5t29.5 11.5t28.5 -11.5t10.5 -28.5t-10.5 -29.5t-28.5 -12.5zM338 730q-19 0 -29 12.5t-10 29.5t10 28.5t29 11.5q18 0 29.5 -11.5t11.5 -28.5
t-11.5 -29.5t-29.5 -12.5z" />
    <glyph glyph-name="Zacute" unicode="&#x179;" horiz-adv-x="470" 
d="M26 0v50l348 558h-328v52h396v-50l-348 -558h350v-52h-418zM236 720l-30 32l134 129l35 -37z" />
    <glyph glyph-name="zacute" unicode="&#x17a;" horiz-adv-x="394" 
d="M20 0v46l285 402h-262v48h323v-46l-284 -402h281v-48h-343zM199 575l-34 25l107 148l40 -30z" />
    <glyph glyph-name="Zdotaccent" unicode="&#x17b;" horiz-adv-x="470" 
d="M26 0v50l348 558h-328v52h396v-50l-348 -558h350v-52h-418zM244 730q-18 0 -29.5 12t-11.5 29t11.5 29.5t29.5 12.5t29.5 -12.5t11.5 -29.5t-11.5 -29t-29.5 -12z" />
    <glyph glyph-name="zdotaccent" unicode="&#x17c;" horiz-adv-x="394" 
d="M20 0v46l285 402h-262v48h323v-46l-284 -402h281v-48h-343zM205 595q-18 0 -29.5 12t-11.5 29t11.5 29.5t29.5 12.5t29.5 -12.5t11.5 -29.5t-11.5 -29t-29.5 -12z" />
    <glyph glyph-name="Zcaron" unicode="&#x17d;" horiz-adv-x="470" 
d="M26 0v50l348 558h-328v52h396v-50l-348 -558h350v-52h-418zM130 871l109 -93h10l109 93l28 -33l-119 -108h-46l-119 108z" />
    <glyph glyph-name="zcaron" unicode="&#x17e;" horiz-adv-x="394" 
d="M20 0v46l285 402h-262v48h323v-46l-284 -402h281v-48h-343zM96 747l104 -112h10l104 112l30 -28l-116 -134h-46l-116 134z" />
    <glyph glyph-name="florin" unicode="&#x192;" 
d="M108 -250q-19 0 -38 5.5t-51 20.5l16 42q48 -18 73 -18q62 0 74 77l94 620h-91l9 52h90l19 123q8 56 41.5 87t85.5 31q20 0 39 -5.5t50 -20.5l-16 -42q-48 18 -73 18q-62 0 -74 -77l-17 -114h146l-9 -52h-145l-96 -629q-8 -55 -41 -86.5t-86 -31.5z" />
    <glyph glyph-name="uni0218" unicode="&#x218;" horiz-adv-x="497" 
d="M232 -15q-54 0 -101 16.5t-97 54.5l29 44q44 -32 84.5 -47t86.5 -15q75 0 115.5 35t40.5 98q0 48 -26.5 80.5t-86.5 48.5l-76 21q-68 19 -105.5 63t-37.5 111q0 85 56.5 132.5t147.5 47.5q50 0 96 -16t92 -52l-31 -43q-40 30 -80.5 44t-78.5 14q-61 0 -101 -32t-40 -92
q0 -45 25.5 -77t82.5 -48l76 -21q71 -19 109.5 -64t38.5 -115q0 -85 -57.5 -136.5t-161.5 -51.5zM206 -244l-22 23q41 40 53 76q-16 1 -26.5 12.5t-10.5 28.5q0 19 11.5 30.5t28.5 11.5q19 0 30 -12.5t11 -34.5q0 -30 -21 -68t-54 -67z" />
    <glyph glyph-name="uni0219" unicode="&#x219;" horiz-adv-x="397" 
d="M187 -12q-53 0 -91.5 18.5t-70.5 49.5l33 37q27 -27 58 -41t71 -14q50 0 81 24t31 68q0 32 -18 54.5t-60 32.5l-60 15q-54 14 -84 49t-30 87q0 63 41.5 101.5t113.5 38.5q47 0 84 -15.5t72 -44.5l-32 -38q-25 23 -54.5 35.5t-66.5 12.5q-47 0 -74.5 -23t-27.5 -64
q0 -31 18 -54t60 -34l60 -15q58 -14 86.5 -49.5t28.5 -85.5q0 -66 -46 -105.5t-123 -39.5zM162 -244l-22 23q41 40 53 76q-16 1 -26.5 12.5t-10.5 28.5q0 19 11.5 30.5t28.5 11.5q19 0 30 -12.5t11 -34.5q0 -30 -21 -68t-54 -67z" />
    <glyph glyph-name="uni021A" unicode="&#x21a;" horiz-adv-x="503" 
d="M222 0v608h-204v52h467v-52h-204v-608h-59zM220 -244l-22 23q41 40 53 76q-16 1 -26.5 12.5t-10.5 28.5q0 19 11.5 30.5t28.5 11.5q19 0 30 -12.5t11 -34.5q0 -30 -21 -68t-54 -67z" />
    <glyph glyph-name="uni021B" unicode="&#x21b;" horiz-adv-x="298" 
d="M224 -10q-70 0 -98.5 39.5t-28.5 127.5v291h-81v48h81v120l56 14v-134h123v-48h-123v-289q0 -70 20 -95t63 -25q9 0 20 0.5t20 1.5v-46q-25 -5 -52 -5zM155 -244l-22 23q41 40 53 76q-16 1 -26.5 12.5t-10.5 28.5q0 19 11.5 30.5t28.5 11.5q19 0 30 -12.5t11 -34.5
q0 -30 -21 -68t-54 -67z" />
    <glyph glyph-name="circumflex" unicode="&#x2c6;" horiz-adv-x="480" 
d="M131 575l-30 28l116 134h46l116 -134l-30 -28l-104 112h-10z" />
    <glyph glyph-name="caron" unicode="&#x2c7;" horiz-adv-x="480" 
d="M131 747l104 -112h10l104 112l30 -28l-116 -134h-46l-116 134z" />
    <glyph glyph-name="breve" unicode="&#x2d8;" horiz-adv-x="480" 
d="M240 575q-62 0 -93 35.5t-34 82.5h43q4 -30 24 -51.5t60 -21.5q41 0 60.5 21.5t23.5 51.5h43q-3 -47 -34 -82.5t-93 -35.5z" />
    <glyph glyph-name="dotaccent" unicode="&#x2d9;" horiz-adv-x="480" 
d="M240 595q-18 0 -29.5 12t-11.5 29t11.5 29.5t29.5 12.5t29.5 -12.5t11.5 -29.5t-11.5 -29t-29.5 -12z" />
    <glyph glyph-name="ring" unicode="&#x2da;" horiz-adv-x="480" 
d="M240 575q-40 0 -67 25t-27 68t27 68t67 25t67 -25t27 -68t-27 -68t-67 -25zM240 610q25 0 39.5 16t14.5 42t-14.5 42t-39.5 16t-39.5 -16t-14.5 -42t14.5 -42t39.5 -16z" />
    <glyph glyph-name="ogonek" unicode="&#x2db;" horiz-adv-x="480" 
d="M267 -202q-43 0 -71.5 24t-28.5 69q0 53 38.5 85.5t90.5 38.5l11 -15q-37 -13 -63 -37.5t-26 -60.5q0 -24 11 -36t26 -16.5t27 -4.5q6 0 14.5 1t14.5 2v-46q-21 -4 -44 -4z" />
    <glyph glyph-name="tilde" unicode="&#x2dc;" horiz-adv-x="480" 
d="M307 581q-16 0 -30 6t-35 22l-29 22q-12 9 -21.5 14t-17.5 5q-15 0 -22 -14.5t-8 -49.5h-41q0 105 70 105q16 0 30 -5.5t35 -22.5l29 -22q12 -9 21.5 -14t17.5 -5q15 0 22 15t8 49h41q0 -105 -70 -105z" />
    <glyph glyph-name="hungarumlaut" unicode="&#x2dd;" horiz-adv-x="480" 
d="M145 575l-34 25l107 148l40 -30zM257 575l-34 25l107 148l40 -30z" />
    <glyph glyph-name="gravecomb" unicode="&#x300;" horiz-adv-x="0" 
d="M6 575l-113 143l40 30l107 -148z" />
    <glyph glyph-name="acutecomb" unicode="&#x301;" horiz-adv-x="0" 
d="M-6 575l-34 25l107 148l40 -30z" />
    <glyph glyph-name="uni0302" unicode="&#x302;" horiz-adv-x="0" 
d="M-109 575l-30 28l116 134h46l116 -134l-30 -28l-104 112h-10z" />
    <glyph glyph-name="tildecomb" unicode="&#x303;" horiz-adv-x="0" 
d="M67 581q-16 0 -30 6t-35 22l-29 22q-12 9 -21.5 14t-17.5 5q-15 0 -22 -14.5t-8 -49.5h-41q0 105 70 105q16 0 30 -5.5t35 -22.5l29 -22q12 -9 21.5 -14t17.5 -5q15 0 22 15t8 49h41q0 -105 -70 -105z" />
    <glyph glyph-name="uni0304" unicode="&#x304;" horiz-adv-x="0" 
d="M-118 609v42h236v-42h-236z" />
    <glyph glyph-name="uni0306" unicode="&#x306;" horiz-adv-x="0" 
d="M0 575q-62 0 -93 35.5t-34 82.5h43q4 -30 24 -51.5t60 -21.5q41 0 60.5 21.5t23.5 51.5h43q-3 -47 -34 -82.5t-93 -35.5z" />
    <glyph glyph-name="uni0307" unicode="&#x307;" horiz-adv-x="0" 
d="M0 595q-18 0 -29.5 12t-11.5 29t11.5 29.5t29.5 12.5t29.5 -12.5t11.5 -29.5t-11.5 -29t-29.5 -12z" />
    <glyph glyph-name="uni0308" unicode="&#x308;" horiz-adv-x="0" 
d="M-90 597q-18 0 -28.5 11.5t-10.5 27.5q0 17 10.5 28t28.5 11t28.5 -11t10.5 -28q0 -16 -10.5 -27.5t-28.5 -11.5zM90 597q-18 0 -28.5 11.5t-10.5 27.5q0 17 10.5 28t28.5 11t28.5 -11t10.5 -28q0 -16 -10.5 -27.5t-28.5 -11.5z" />
    <glyph glyph-name="uni030A" unicode="&#x30a;" horiz-adv-x="0" 
d="M0 575q-40 0 -67 25t-27 68t27 68t67 25t67 -25t27 -68t-27 -68t-67 -25zM0 610q25 0 39.5 16t14.5 42t-14.5 42t-39.5 16t-39.5 -16t-14.5 -42t14.5 -42t39.5 -16z" />
    <glyph glyph-name="uni030B" unicode="&#x30b;" horiz-adv-x="0" 
d="M-46 575l-34 25l107 148l40 -30zM66 575l-34 25l107 148l40 -30z" />
    <glyph glyph-name="uni030C" unicode="&#x30c;" horiz-adv-x="0" 
d="M-109 747l104 -112h10l104 112l30 -28l-116 -134h-46l-116 134z" />
    <glyph glyph-name="uni0312" unicode="&#x312;" horiz-adv-x="0" 
d="M0 572q-19 0 -30 12.5t-11 34.5q0 30 21 68t54 67l22 -23q-41 -40 -53 -76q16 -1 26.5 -12.5t10.5 -28.5q0 -19 -11.5 -30.5t-28.5 -11.5z" />
    <glyph glyph-name="uni0315" unicode="&#x315;" horiz-adv-x="0" 
d="M-21 511l25 189h55l-33 -189h-47z" />
    <glyph glyph-name="dotbelowcomb" unicode="&#x323;" horiz-adv-x="0" 
d="M0 -125q-18 0 -29.5 12t-11.5 29t11.5 29.5t29.5 12.5t29.5 -12.5t11.5 -29.5t-11.5 -29t-29.5 -12z" />
    <glyph glyph-name="uni0326" unicode="&#x326;" horiz-adv-x="0" 
d="M-32 -244l-22 23q41 40 53 76q-16 1 -26.5 12.5t-10.5 28.5q0 19 11.5 30.5t28.5 11.5q19 0 30 -12.5t11 -34.5q0 -30 -21 -68t-54 -67z" />
    <glyph glyph-name="uni0327" unicode="&#x327;" horiz-adv-x="0" 
d="M-16 -202q-17 0 -42 4v45q22 -5 43 -5q48 0 48 37q0 36 -51 36h-21l24 107h40l-17 -68q74 -9 74 -75q0 -81 -98 -81z" />
    <glyph glyph-name="uni0328" unicode="&#x328;" horiz-adv-x="0" 
d="M-40 -202q-43 0 -71.5 24t-28.5 69q0 53 38.5 85.5t90.5 38.5l11 -15q-37 -13 -63 -37.5t-26 -60.5q0 -24 11 -36t26 -16.5t27 -4.5q6 0 14.5 1t14.5 2v-46q-21 -4 -44 -4z" />
    <glyph glyph-name="uni0344" unicode="&#x344;" horiz-adv-x="0" 
d="M-37 594l54 152h59l-70 -152h-43zM-111 592q-18 0 -29.5 11t-11.5 30t11.5 30.5t29.5 11.5t29.5 -11.5t11.5 -30.5t-11.5 -30t-29.5 -11zM110 592q-18 0 -29.5 11t-11.5 30t11.5 30.5t29.5 11.5q19 0 30 -11.5t11 -30.5t-11 -30t-30 -11z" />
    <glyph glyph-name="uni0374" unicode="&#x374;" horiz-adv-x="171" 
d="M25 461l49 199h65l-71 -199h-43z" />
    <glyph glyph-name="uni0375" unicode="&#x375;" horiz-adv-x="171" 
d="M32 -124l71 199h43l-49 -199h-65z" />
    <glyph glyph-name="uni037E" unicode="&#x37e;" horiz-adv-x="196" 
d="M60 -120l-24 26q45 44 59 84q-18 1 -30 14t-12 32q0 20 13 33t32 13q21 0 33 -14t12 -38q0 -34 -23 -76t-60 -74zM98 416q-20 0 -32.5 13.5t-12.5 32.5t12.5 32.5t32.5 13.5t32.5 -13.5t12.5 -32.5t-12.5 -32.5t-32.5 -13.5z" />
    <glyph glyph-name="tonos" unicode="&#x384;" horiz-adv-x="498" 
d="M195 594l50 167h61l-70 -167h-41z" />
    <glyph glyph-name="dieresistonos" unicode="&#x385;" horiz-adv-x="498" 
d="M213 594l54 152h59l-70 -152h-43zM139 592q-18 0 -29.5 11t-11.5 30t11.5 30.5t29.5 11.5t29.5 -11.5t11.5 -30.5t-11.5 -30t-29.5 -11zM360 592q-18 0 -29.5 11t-11.5 30t11.5 30.5t29.5 11.5q19 0 30 -11.5t11 -30.5t-11 -30t-30 -11z" />
    <glyph glyph-name="Alphatonos" unicode="&#x386;" horiz-adv-x="618" 
d="M40 0l207 660h93l207 -660h-62l-58 188h-270l-58 -188h-59zM286 608l-114 -370h239l-114 370h-11zM36 465l57 195h61l-73 -195h-45z" />
    <glyph glyph-name="anoteleia" unicode="&#x387;" horiz-adv-x="196" 
d="M98 416q-20 0 -32.5 13.5t-12.5 32.5t12.5 32.5t32.5 13.5t32.5 -13.5t12.5 -32.5t-12.5 -32.5t-32.5 -13.5z" />
    <glyph glyph-name="Epsilontonos" unicode="&#x388;" horiz-adv-x="706" 
d="M230 0v660h361v-52h-302v-246h275v-51h-275v-259h311v-52h-370zM36 465l57 195h61l-73 -195h-45z" />
    <glyph glyph-name="Etatonos" unicode="&#x389;" horiz-adv-x="844" 
d="M230 0v660h59v-301h341v301h59v-660h-59v307h-341v-307h-59zM36 465l57 195h61l-73 -195h-45z" />
    <glyph glyph-name="Iotatonos" unicode="&#x38a;" horiz-adv-x="399" 
d="M230 0v660h59v-660h-59zM36 465l57 195h61l-73 -195h-45z" />
    <glyph glyph-name="Omicrontonos" unicode="&#x38c;" horiz-adv-x="800" 
d="M425 -15q-118 0 -182.5 83.5t-64.5 228.5v66q0 145 64.5 228.5t182.5 83.5t182.5 -83.5t64.5 -228.5v-66q0 -145 -64.5 -228.5t-182.5 -83.5zM425 38q89 0 138.5 67t49.5 196v58q0 129 -49.5 196t-138.5 67t-138.5 -67t-49.5 -196v-58q0 -129 49.5 -196t138.5 -67z
M36 465l57 195h61l-73 -195h-45z" />
    <glyph glyph-name="Upsilontonos" unicode="&#x38e;" horiz-adv-x="688" 
d="M410 0v269l-208 391h66l171 -328h10l167 328h64l-209 -393v-267h-61zM36 465l57 195h61l-73 -195h-45z" />
    <glyph glyph-name="Omegatonos" unicode="&#x38f;" horiz-adv-x="830" 
d="M610 334v25q0 129 -49.5 196t-138.5 67t-138.5 -67t-49.5 -196v-25q0 -91 37.5 -166.5t101.5 -121.5v-46h-214v50h148q-64 49 -98 122.5t-34 161.5v29q0 145 64.5 228.5t182.5 83.5t182.5 -83.5t64.5 -228.5v-29q0 -88 -34 -161.5t-98 -122.5h148v-50h-214v46
q64 46 101.5 121.5t37.5 166.5zM34 465l57 195h61l-73 -195h-45z" />
    <glyph glyph-name="iotadieresistonos" unicode="&#x390;" horiz-adv-x="242" 
d="M177 -10q-62 0 -88.5 37t-26.5 100v369h56v-360q0 -56 17 -76.5t51 -20.5q22 0 40 3v-48q-24 -4 -49 -4zM53 594l54 152h59l-70 -152h-43zM-21 592q-18 0 -29.5 11t-11.5 30t11.5 30.5t29.5 11.5t29.5 -11.5t11.5 -30.5t-11.5 -30t-29.5 -11zM200 592q-18 0 -29.5 11
t-11.5 30t11.5 30.5t29.5 11.5q19 0 30 -11.5t11 -30.5t-11 -30t-30 -11z" />
    <glyph glyph-name="Alpha" unicode="&#x391;" horiz-adv-x="525" 
d="M9 0l207 660h93l207 -660h-62l-58 188h-270l-58 -188h-59zM255 608l-114 -370h239l-114 370h-11z" />
    <glyph glyph-name="Beta" unicode="&#x392;" horiz-adv-x="554" 
d="M82 0v660h221q50 0 89.5 -19t63 -55t23.5 -89v-20q0 -50 -24 -85t-65 -51q49 -14 78.5 -52t29.5 -99v-20q0 -53 -24.5 -91.5t-66 -58.5t-93.5 -20h-232zM301 609h-160v-246h160q57 0 88.5 30t31.5 85v15q0 56 -31.5 86t-88.5 30zM141 51h173q53 0 89 28t36 95v15
q0 65 -36 94t-89 29h-173v-261z" />
    <glyph glyph-name="Gamma" unicode="&#x393;" horiz-adv-x="445" 
d="M82 0v660h344v-52h-285v-608h-59z" />
    <glyph glyph-name="uni0394" unicode="&#x394;" 
d="M24 0v47l201 613h93l201 -613v-47h-495zM264 608l-179 -557h370l-180 557h-11z" />
    <glyph glyph-name="Epsilon" unicode="&#x395;" horiz-adv-x="500" 
d="M82 0v660h361v-52h-302v-246h275v-51h-275v-259h311v-52h-370z" />
    <glyph glyph-name="Zeta" unicode="&#x396;" horiz-adv-x="470" 
d="M26 0v50l348 558h-328v52h396v-50l-348 -558h350v-52h-418z" />
    <glyph glyph-name="Eta" unicode="&#x397;" horiz-adv-x="623" 
d="M82 0v660h59v-301h341v301h59v-660h-59v307h-341v-307h-59z" />
    <glyph glyph-name="Theta" unicode="&#x398;" horiz-adv-x="602" 
d="M301 -15q-118 0 -182.5 83.5t-64.5 228.5v66q0 145 64.5 228.5t182.5 83.5t182.5 -83.5t64.5 -228.5v-66q0 -145 -64.5 -228.5t-182.5 -83.5zM301 38q89 0 138.5 67t49.5 196v58q0 129 -49.5 196t-138.5 67t-138.5 -67t-49.5 -196v-58q0 -129 49.5 -196t138.5 -67z
M197 310v54h208v-54h-208z" />
    <glyph glyph-name="Iota" unicode="&#x399;" horiz-adv-x="223" 
d="M82 0v660h59v-660h-59z" />
    <glyph glyph-name="Kappa" unicode="&#x39a;" horiz-adv-x="553" 
d="M82 0v660h59v-301h113l208 301h67l-226 -323l234 -337h-74l-212 308h-110v-308h-59z" />
    <glyph glyph-name="Lambda" unicode="&#x39b;" horiz-adv-x="511" 
d="M9 0l200 660h93l200 -660h-62l-181 608h-11l-180 -608h-59z" />
    <glyph glyph-name="Mu" unicode="&#x39c;" horiz-adv-x="742" 
d="M82 0v660h101l185 -496h11l182 496h99v-660h-57v604h-10l-184 -496h-73l-187 496h-10v-604h-57z" />
    <glyph glyph-name="Nu" unicode="&#x39d;" horiz-adv-x="626" 
d="M82 0v660h96l299 -603h10v603h57v-660h-96l-299 603h-10v-603h-57z" />
    <glyph glyph-name="Xi" unicode="&#x39e;" horiz-adv-x="504" 
d="M49 606v54h405v-54h-405zM129 306v54h247v-54h-247zM43 0v54h418v-54h-418z" />
    <glyph glyph-name="Omicron" unicode="&#x39f;" horiz-adv-x="602" 
d="M301 -15q-118 0 -182.5 83.5t-64.5 228.5v66q0 145 64.5 228.5t182.5 83.5t182.5 -83.5t64.5 -228.5v-66q0 -145 -64.5 -228.5t-182.5 -83.5zM301 38q89 0 138.5 67t49.5 196v58q0 129 -49.5 196t-138.5 67t-138.5 -67t-49.5 -196v-58q0 -129 49.5 -196t138.5 -67z" />
    <glyph glyph-name="Pi" unicode="&#x3a0;" horiz-adv-x="616" 
d="M82 660h452v-660h-59v608h-334v-608h-59v660z" />
    <glyph glyph-name="Rho" unicode="&#x3a1;" horiz-adv-x="520" 
d="M82 0v660h210q87 0 140.5 -50t53.5 -134v-20q0 -84 -53.5 -134t-140.5 -50h-151v-272h-59zM292 609h-151v-286h151q65 0 100 35t35 100v16q0 65 -35 100t-100 35z" />
    <glyph glyph-name="Sigma" unicode="&#x3a3;" horiz-adv-x="482" 
d="M36 0v50l246 284l-228 276v50h391v-52h-317l207 -251v-42l-228 -263h347v-52h-418z" />
    <glyph glyph-name="Tau" unicode="&#x3a4;" horiz-adv-x="503" 
d="M222 0v608h-204v52h467v-52h-204v-608h-59z" />
    <glyph glyph-name="Upsilon" unicode="&#x3a5;" horiz-adv-x="494" 
d="M216 0v269l-208 391h66l171 -328h10l167 328h64l-209 -393v-267h-61z" />
    <glyph glyph-name="Phi" unicode="&#x3a6;" horiz-adv-x="692" 
d="M648 326q0 -87 -34 -149t-95.5 -95.5t-143.5 -35.5v-71h-58v71q-82 2 -143.5 35.5t-95.5 95.5t-34 149v14q0 87 34 149t95.5 95.5t143.5 35.5v65h58v-65q82 -2 143.5 -35.5t95.5 -95.5t34 -149v-14zM589 339q0 62 -22 113.5t-69 83t-124 34.5v-474q77 3 124 34.5t69 83
t22 113.5v12zM103 327q0 -62 22 -113.5t69 -83t124 -34.5v474q-77 -3 -124 -34.5t-69 -83t-22 -113.5v-12z" />
    <glyph glyph-name="Chi" unicode="&#x3a7;" horiz-adv-x="540" 
d="M16 0l215 333l-203 327h72l167 -282h10l167 282h68l-204 -325l216 -335h-72l-180 290h-10l-178 -290h-68z" />
    <glyph glyph-name="Psi" unicode="&#x3a8;" horiz-adv-x="667" 
d="M304 0v200q-90 4 -146 37t-82 91t-26 135v197h59v-197q0 -98 44.5 -151.5t150.5 -58.5v407h59v-407q106 5 150.5 58.5t44.5 151.5v197h59v-197q0 -77 -26 -135t-82 -91t-146 -37v-200h-59z" />
    <glyph glyph-name="uni03A9" unicode="&#x3a9;" horiz-adv-x="634" 
d="M505 334v25q0 129 -49.5 196t-138.5 67t-138.5 -67t-49.5 -196v-25q0 -91 37.5 -166.5t101.5 -121.5v-46h-214v50h148q-64 49 -98 122.5t-34 161.5v29q0 145 64.5 228.5t182.5 83.5t182.5 -83.5t64.5 -228.5v-29q0 -88 -34 -161.5t-98 -122.5h148v-50h-214v46
q64 46 101.5 121.5t37.5 166.5z" />
    <glyph glyph-name="Iotadieresis" unicode="&#x3aa;" horiz-adv-x="223" 
d="M82 0v660h59v-660h-59zM22 730q-18 0 -29.5 12.5t-11.5 29.5t11.5 28.5t29.5 11.5t28.5 -11.5t10.5 -28.5t-10.5 -29.5t-28.5 -12.5zM202 730q-19 0 -29 12.5t-10 29.5t10 28.5t29 11.5q18 0 29.5 -11.5t11.5 -28.5t-11.5 -29.5t-29.5 -12.5z" />
    <glyph glyph-name="Upsilondieresis" unicode="&#x3ab;" horiz-adv-x="494" 
d="M216 0v269l-208 391h66l171 -328h10l167 328h64l-209 -393v-267h-61zM158 730q-18 0 -29.5 12.5t-11.5 29.5t11.5 28.5t29.5 11.5t28.5 -11.5t10.5 -28.5t-10.5 -29.5t-28.5 -12.5zM338 730q-19 0 -29 12.5t-10 29.5t10 28.5t29 11.5q18 0 29.5 -11.5t11.5 -28.5
t-11.5 -29.5t-29.5 -12.5z" />
    <glyph glyph-name="alphatonos" unicode="&#x3ac;" horiz-adv-x="517" 
d="M222 -10q-81 0 -128.5 62t-47.5 177v40q0 113 47.5 174t128.5 61q54 0 90 -28.5t56 -68.5q7 47 16 89h56q-13 -64 -21 -134t-8 -134v-114q0 -40 13.5 -57.5t43.5 -17.5q3 0 10 0.5t14 1.5v-48q-11 -1 -19 -2t-16 -1q-87 0 -98 82q-21 -35 -54.5 -58.5t-82.5 -23.5z
M102 232q0 -99 37.5 -145.5t96.5 -46.5q41 0 70.5 23t48.5 56v109q0 33 2 66.5t6 67.5q-18 36 -50 64t-77 28q-60 0 -97 -45t-37 -143v-34zM223 594l50 167h61l-70 -167h-41z" />
    <glyph glyph-name="epsilontonos" unicode="&#x3ad;" horiz-adv-x="411" 
d="M213 -12q-74 0 -122 37.5t-48 106.5q0 49 24 81t64 42q-37 11 -58 43.5t-21 75.5q0 59 43 96.5t114 37.5q99 0 164 -71l-32 -34q-31 32 -62.5 43.5t-69.5 11.5q-50 0 -75.5 -24t-25.5 -65q0 -92 109 -92h77v-48h-82q-113 0 -113 -91q0 -49 30.5 -74.5t82.5 -25.5
q86 0 140 60l34 -35q-35 -39 -77.5 -57t-95.5 -18zM184 594l50 167h61l-70 -167h-41z" />
    <glyph glyph-name="etatonos" unicode="&#x3ae;" horiz-adv-x="480" 
d="M66 0v496h53v-98q21 45 58 75.5t94 30.5q69 0 109 -47t40 -148v-499h-56v493q0 80 -27.5 115.5t-80.5 35.5q-50 0 -83.5 -32t-50.5 -75v-347h-56zM231 594l50 167h61l-70 -167h-41z" />
    <glyph glyph-name="iotatonos" unicode="&#x3af;" horiz-adv-x="242" 
d="M177 -10q-62 0 -88.5 37t-26.5 100v369h56v-360q0 -56 17 -76.5t51 -20.5q22 0 40 3v-48q-24 -4 -49 -4zM67 594l50 167h61l-70 -167h-41z" />
    <glyph glyph-name="upsilondieresistonos" unicode="&#x3b0;" horiz-adv-x="464" 
d="M237 -10q-85 0 -129 57t-44 164v285h56v-282q0 -88 28.5 -131t88.5 -43q126 0 126 197v38q0 60 -11.5 117t-32.5 104h59q20 -46 30.5 -102.5t10.5 -118.5v-40q0 -119 -46.5 -182t-135.5 -63zM193 594l54 152h59l-70 -152h-43zM119 592q-18 0 -29.5 11t-11.5 30t11.5 30.5
t29.5 11.5t29.5 -11.5t11.5 -30.5t-11.5 -30t-29.5 -11zM340 592q-18 0 -29.5 11t-11.5 30t11.5 30.5t29.5 11.5q19 0 30 -11.5t11 -30.5t-11 -30t-30 -11z" />
    <glyph glyph-name="alpha" unicode="&#x3b1;" horiz-adv-x="517" 
d="M222 -10q-81 0 -128.5 62t-47.5 177v40q0 113 47.5 174t128.5 61q54 0 90 -28.5t56 -68.5q7 47 16 89h56q-13 -64 -21 -134t-8 -134v-114q0 -40 13.5 -57.5t43.5 -17.5q3 0 10 0.5t14 1.5v-48q-11 -1 -19 -2t-16 -1q-87 0 -98 82q-21 -35 -54.5 -58.5t-82.5 -23.5z
M102 232q0 -99 37.5 -145.5t96.5 -46.5q41 0 70.5 23t48.5 56v109q0 33 2 66.5t6 67.5q-18 36 -50 64t-77 28q-60 0 -97 -45t-37 -143v-34z" />
    <glyph glyph-name="beta" unicode="&#x3b2;" horiz-adv-x="478" 
d="M66 -190v664q0 119 48 174.5t130 55.5q77 0 121 -46.5t44 -129.5q0 -58 -25.5 -99.5t-66.5 -58.5q56 -10 91 -57.5t35 -122.5q0 -94 -47 -147t-127 -53q-46 0 -85 22.5t-62 62.5v-265h-56zM122 472v-334q47 -98 138 -98q61 0 94 37t33 113q0 73 -34.5 112.5t-93.5 39.5
h-32v48h24q44 0 73 35.5t29 102.5q0 60 -27.5 93t-80.5 33q-58 0 -90.5 -40.5t-32.5 -141.5z" />
    <glyph glyph-name="gamma" unicode="&#x3b3;" horiz-adv-x="417" 
d="M179 -190v162l-171 524h61l137 -447h10l51 134q35 90 51.5 148.5t16.5 108.5q0 17 -1.5 30.5t-3.5 25.5h56q2 -12 3.5 -26t1.5 -30q0 -52 -18.5 -115.5t-59.5 -164.5l-78 -189v-161h-56z" />
    <glyph glyph-name="delta" unicode="&#x3b4;" horiz-adv-x="479" 
d="M240 -12q-91 0 -142.5 58.5t-51.5 169.5q0 94 40.5 151.5t113.5 81.5q-58 24 -84 54t-26 80q0 53 40.5 87t118.5 34q40 0 81 -11.5t72 -31.5l-21 -46q-66 39 -131 39q-53 0 -78.5 -20t-25.5 -51q0 -34 20 -53.5t67 -39.5l22 -9q86 -35 132 -94.5t46 -161.5
q0 -115 -50.5 -176t-142.5 -61zM102 224q0 -186 138 -186q67 0 102 46.5t35 137.5q0 83 -30.5 129.5t-103.5 79.5q-67 -20 -104 -70.5t-37 -136.5z" />
    <glyph glyph-name="epsilon" unicode="&#x3b5;" horiz-adv-x="411" 
d="M213 -12q-74 0 -122 37.5t-48 106.5q0 49 24 81t64 42q-37 11 -58 43.5t-21 75.5q0 59 43 96.5t114 37.5q99 0 164 -71l-32 -34q-31 32 -62.5 43.5t-69.5 11.5q-50 0 -75.5 -24t-25.5 -65q0 -92 109 -92h77v-48h-82q-113 0 -113 -91q0 -49 30.5 -74.5t82.5 -25.5
q86 0 140 60l34 -35q-35 -39 -77.5 -57t-95.5 -18z" />
    <glyph glyph-name="zeta" unicode="&#x3b6;" horiz-adv-x="380" 
d="M203 -3q-87 18 -123.5 66.5t-36.5 134.5q0 92 59.5 192t166.5 224l33 38h-246v48h312v-42l-62 -73q-71 -84 -117 -151t-68 -123.5t-22 -110.5q0 -65 25 -99t89 -48l19 -4q76 -16 103.5 -46t27.5 -79q0 -29 -8.5 -58.5t-25.5 -61.5l-47 22q25 50 25 93q0 32 -18.5 48
t-66.5 26z" />
    <glyph glyph-name="eta" unicode="&#x3b7;" horiz-adv-x="480" 
d="M66 0v496h53v-98q21 45 58 75.5t94 30.5q69 0 109 -47t40 -148v-499h-56v493q0 80 -27.5 115.5t-80.5 35.5q-50 0 -83.5 -32t-50.5 -75v-347h-56z" />
    <glyph glyph-name="theta" unicode="&#x3b8;" horiz-adv-x="480" 
d="M240 -12q-97 0 -145.5 70t-48.5 218v140q0 148 48.5 218t145.5 70q98 0 146 -70t48 -218v-140q0 -148 -48 -218t-146 -70zM102 416v-34h276v34q0 126 -32.5 182t-105.5 56t-105.5 -56t-32.5 -182zM240 38q73 0 105.5 56t32.5 182v54h-276v-54q0 -126 32.5 -182t105.5 -56
z" />
    <glyph glyph-name="iota" unicode="&#x3b9;" horiz-adv-x="242" 
d="M177 -10q-62 0 -88.5 37t-26.5 100v369h56v-360q0 -56 17 -76.5t51 -20.5q22 0 40 3v-48q-24 -4 -49 -4z" />
    <glyph glyph-name="kappa" unicode="&#x3ba;" horiz-adv-x="438" 
d="M66 0v496h56v-209h78l143 209h65l-162 -231l97 -162q24 -40 36.5 -51t29.5 -11h6.5t6.5 1v-48q-7 -1 -12 -1.5t-11 -0.5q-31 0 -51.5 15.5t-48.5 61.5l-100 168h-77v-237h-56z" />
    <glyph glyph-name="lambda" unicode="&#x3bb;" horiz-adv-x="425" 
d="M10 0l161 496h23l-26 82q-13 41 -32 58.5t-51 17.5q-23 0 -44 -3v48q13 2 26 3.5t26 1.5q51 0 81 -27t52 -95l189 -582h-61l-137 447h-10l-139 -447h-58z" />
    <glyph glyph-name="uni03BC" unicode="&#x3bc;" horiz-adv-x="504" 
d="M66 -190v686h56v-302q0 -82 28.5 -118t79.5 -36q48 0 81.5 33.5t50.5 76.5v346h56v-398q0 -34 11 -46.5t36 -12.5q12 0 24 2v-48q-18 -3 -35 -3q-49 0 -69 27.5t-20 73.5v5q-21 -45 -57.5 -75.5t-83.5 -30.5q-33 0 -59.5 12t-44.5 40v-232h-54z" />
    <glyph glyph-name="nu" unicode="&#x3bd;" horiz-adv-x="415" 
d="M311 160l-64 -160h-84l-155 496h61l133 -447h9l54 134q36 90 52 148.5t16 108.5q0 17 -1.5 30.5t-3.5 25.5h56q2 -12 3.5 -26t1.5 -30q0 -52 -18.5 -115.5t-59.5 -164.5z" />
    <glyph glyph-name="xi" unicode="&#x3be;" horiz-adv-x="391" 
d="M211 -3q-92 20 -130 65.5t-38 130.5q0 69 30 115.5t84 61.5q-104 35 -104 158q0 84 45.5 130t126.5 46q43 0 80 -16t66 -45l-29 -38q-30 26 -57.5 37.5t-60.5 11.5q-55 0 -84 -32.5t-29 -93.5q0 -64 35 -100t93 -36h57v-48h-57q-67 0 -103.5 -38t-36.5 -112
q0 -62 26 -94.5t96 -47.5l19 -4q76 -16 103.5 -46t27.5 -78q0 -29 -8.5 -58.5t-25.5 -61.5l-47 22q25 50 25 93q0 32 -18.5 48t-66.5 26z" />
    <glyph glyph-name="omicron" unicode="&#x3bf;" horiz-adv-x="480" 
d="M240 -12q-92 0 -143 64.5t-51 175.5v40q0 111 51 175.5t143 64.5t143 -64.5t51 -175.5v-40q0 -111 -51 -175.5t-143 -64.5zM240 38q64 0 101 49t37 144v34q0 95 -37 144t-101 49t-101 -49t-37 -144v-34q0 -95 37 -144t101 -49z" />
    <glyph glyph-name="pi" unicode="&#x3c0;" horiz-adv-x="511" 
d="M96 0v448h-74v48h462v-48h-84v-341q0 -37 13 -52.5t40 -15.5h11t12 1v-47q-16 -3 -34 -3q-55 0 -76.5 30t-21.5 82v346h-192v-448h-56z" />
    <glyph glyph-name="rho" unicode="&#x3c1;" horiz-adv-x="486" 
d="M60 268q0 110 49.5 174t139.5 64q91 0 141 -64t50 -174v-39q0 -115 -47.5 -177t-128.5 -62q-55 0 -91.5 30t-56.5 72v-282h-56v458zM116 265v-116q17 -42 50.5 -75.5t83.5 -33.5q59 0 96.5 46.5t37.5 145.5v33q0 95 -36.5 143t-98.5 48t-97.5 -48t-35.5 -143z" />
    <glyph glyph-name="sigma1" unicode="&#x3c2;" horiz-adv-x="407" 
d="M46 269q0 113 51.5 176t138.5 63q49 0 86.5 -20t64.5 -55l-36 -33q-22 28 -49 43t-63 15q-62 0 -99.5 -47t-37.5 -145v-36q0 -79 27 -121t97 -57l19 -4q76 -16 103.5 -46t27.5 -78q0 -29 -8.5 -58.5t-25.5 -61.5l-47 22q25 50 25 93q0 32 -18.5 48t-66.5 26l-19 4
q-97 20 -133.5 80t-36.5 150v42z" />
    <glyph glyph-name="sigma" unicode="&#x3c3;" horiz-adv-x="486" 
d="M429 259v-31q0 -111 -50 -175.5t-142 -64.5q-91 0 -141 64.5t-50 175.5v32q0 110 59 173t171 63h186v-48h-120q87 -68 87 -189zM237 38q63 0 99.5 49t36.5 144v27q0 69 -17.5 110.5t-61.5 79.5h-24q-84 0 -126 -49.5t-42 -138.5v-29q0 -95 36 -144t99 -49z" />
    <glyph glyph-name="tau" unicode="&#x3c4;" horiz-adv-x="394" 
d="M281 -10q-70 0 -97.5 39t-27.5 127v292h-141v48h352v-48h-155v-290q0 -70 19 -94.5t63 -24.5q9 0 19 1t21 3v-48q-12 -2 -25.5 -3.5t-27.5 -1.5z" />
    <glyph glyph-name="upsilon" unicode="&#x3c5;" horiz-adv-x="464" 
d="M237 -10q-85 0 -129 57t-44 164v285h56v-282q0 -88 28.5 -131t88.5 -43q126 0 126 197v38q0 60 -11.5 117t-32.5 104h59q20 -46 30.5 -102.5t10.5 -118.5v-40q0 -119 -46.5 -182t-135.5 -63z" />
    <glyph glyph-name="phi" unicode="&#x3c6;" horiz-adv-x="618" 
d="M281 -190v178q-111 4 -173 68t-62 174v36q0 110 62 174t173 68v118h55v-118q112 -4 174 -68t62 -174v-36q0 -110 -62 -174t-174 -68v-178h-55zM516 262q0 92 -47.5 143t-132.5 54v-422q85 3 132.5 54t47.5 143v28zM102 234q0 -92 47.5 -143t131.5 -54v422
q-84 -3 -131.5 -54t-47.5 -143v-28z" />
    <glyph glyph-name="chi" unicode="&#x3c7;" horiz-adv-x="463" 
d="M413 -202q-31 0 -54.5 14t-40.5 60l-93 245h-7l-143 -307h-60l180 363l-97 239q-13 32 -24 39.5t-28 7.5q-7 0 -13.5 -0.5t-11.5 -1.5v48q17 3 33 3q32 0 55 -14t40 -60l82 -215h5l130 277h60l-166 -334l109 -268q14 -32 25 -39.5t27 -7.5q7 0 13.5 0.5t11.5 1.5v-48
q-16 -3 -33 -3z" />
    <glyph glyph-name="psi" unicode="&#x3c8;" horiz-adv-x="610" 
d="M282 -190v179q-73 4 -122 37t-73.5 86t-24.5 119v265h56v-262q0 -84 41 -136.5t123 -58.5v587h56v-588q86 5 129.5 65t43.5 160v27q0 58 -11.5 110.5t-31.5 95.5h58q41 -93 41 -206v-30q0 -77 -25.5 -137t-76.5 -95.5t-127 -39.5v-178h-56z" />
    <glyph glyph-name="omega" unicode="&#x3c9;" horiz-adv-x="645" 
d="M196 -12q-71 0 -110.5 55.5t-39.5 158.5v61q0 92 29 155.5t84 89.5l24 -48q-39 -20 -60 -71.5t-21 -127.5v-57q0 -81 24.5 -123.5t70.5 -42.5q98 0 98 176v123h56v-123q0 -176 98 -176q47 0 71 42.5t24 123.5v57q0 76 -21 127.5t-60 71.5l24 48q55 -26 84 -89.5
t29 -155.5v-61q0 -103 -39.5 -158.5t-110.5 -55.5q-51 0 -83.5 31.5t-43.5 88.5q-11 -57 -43.5 -88.5t-83.5 -31.5z" />
    <glyph glyph-name="iotadieresis" unicode="&#x3ca;" horiz-adv-x="242" 
d="M177 -10q-62 0 -88.5 37t-26.5 100v369h56v-360q0 -56 17 -76.5t51 -20.5q22 0 40 3v-48q-24 -4 -49 -4zM0 597q-18 0 -28.5 11.5t-10.5 27.5q0 17 10.5 28t28.5 11t28.5 -11t10.5 -28q0 -16 -10.5 -27.5t-28.5 -11.5zM180 597q-18 0 -28.5 11.5t-10.5 27.5q0 17 10.5 28
t28.5 11t28.5 -11t10.5 -28q0 -16 -10.5 -27.5t-28.5 -11.5z" />
    <glyph glyph-name="upsilondieresis" unicode="&#x3cb;" horiz-adv-x="464" 
d="M237 -10q-85 0 -129 57t-44 164v285h56v-282q0 -88 28.5 -131t88.5 -43q126 0 126 197v38q0 60 -11.5 117t-32.5 104h59q20 -46 30.5 -102.5t10.5 -118.5v-40q0 -119 -46.5 -182t-135.5 -63zM140 597q-18 0 -28.5 11.5t-10.5 27.5q0 17 10.5 28t28.5 11t28.5 -11
t10.5 -28q0 -16 -10.5 -27.5t-28.5 -11.5zM320 597q-18 0 -28.5 11.5t-10.5 27.5q0 17 10.5 28t28.5 11t28.5 -11t10.5 -28q0 -16 -10.5 -27.5t-28.5 -11.5z" />
    <glyph glyph-name="omicrontonos" unicode="&#x3cc;" horiz-adv-x="480" 
d="M240 -12q-92 0 -143 64.5t-51 175.5v40q0 111 51 175.5t143 64.5t143 -64.5t51 -175.5v-40q0 -111 -51 -175.5t-143 -64.5zM240 38q64 0 101 49t37 144v34q0 95 -37 144t-101 49t-101 -49t-37 -144v-34q0 -95 37 -144t101 -49zM218 594l50 167h61l-70 -167h-41z" />
    <glyph glyph-name="upsilontonos" unicode="&#x3cd;" horiz-adv-x="464" 
d="M237 -10q-85 0 -129 57t-44 164v285h56v-282q0 -88 28.5 -131t88.5 -43q126 0 126 197v38q0 60 -11.5 117t-32.5 104h59q20 -46 30.5 -102.5t10.5 -118.5v-40q0 -119 -46.5 -182t-135.5 -63zM207 594l50 167h61l-70 -167h-41z" />
    <glyph glyph-name="omegatonos" unicode="&#x3ce;" horiz-adv-x="714" 
d="M196 -12q-71 0 -110.5 55.5t-39.5 158.5v61q0 92 29 155.5t84 89.5l24 -48q-39 -20 -60 -71.5t-21 -127.5v-57q0 -81 24.5 -123.5t70.5 -42.5q98 0 98 176v123h56v-123q0 -176 98 -176q47 0 71 42.5t24 123.5v57q0 76 -21 127.5t-60 71.5l24 48q55 -26 84 -89.5
t29 -155.5v-61q0 -103 -39.5 -158.5t-110.5 -55.5q-51 0 -83.5 31.5t-43.5 88.5q-11 -57 -43.5 -88.5t-83.5 -31.5zM300 594l50 167h61l-70 -167h-41z" />
    <glyph glyph-name="uni03D7" unicode="&#x3d7;" horiz-adv-x="429" 
d="M66 0v496h56v-209h78l143 209h65l-162 -230l75 -120q35 -56 55.5 -93t29.5 -63.5t9 -53.5q0 -62 -39 -100t-105 -38q-16 0 -32 2t-33 6l10 49q17 -4 31 -5.5t22 -1.5q44 0 67 23.5t23 64.5q0 21 -7.5 42t-25.5 53t-50 84l-75 122h-79v-237h-56z" />
    <glyph glyph-name="uni0400" unicode="&#x400;" horiz-adv-x="500" 
d="M82 0v660h361v-52h-302v-246h275v-51h-275v-259h311v-52h-370zM275 720l-139 124l35 37l134 -129z" />
    <glyph glyph-name="uni0401" unicode="&#x401;" horiz-adv-x="500" 
d="M82 0v660h361v-52h-302v-246h275v-51h-275v-259h311v-52h-370zM177 730q-18 0 -29.5 12.5t-11.5 29.5t11.5 28.5t29.5 11.5t28.5 -11.5t10.5 -28.5t-10.5 -29.5t-28.5 -12.5zM357 730q-19 0 -29 12.5t-10 29.5t10 28.5t29 11.5q18 0 29.5 -11.5t11.5 -28.5t-11.5 -29.5
t-29.5 -12.5z" />
    <glyph glyph-name="uni0402" unicode="&#x402;" horiz-adv-x="668" 
d="M422 395q79 0 125 -25t66 -68t20 -97v-21q0 -84 -53 -134t-142 -50h-25v50h25q65 0 100.5 36t35.5 101v15q0 43 -12 74.5t-46.5 49t-103.5 17.5q-35 0 -77.5 -8t-75.5 -23v-312h-59v608h-182v52h486v-52h-245v-242q36 13 81 21t82 8z" />
    <glyph glyph-name="uni0403" unicode="&#x403;" horiz-adv-x="445" 
d="M82 0v660h344v-52h-285v-608h-59zM246 720l-30 32l134 129l35 -37z" />
    <glyph glyph-name="uni0404" unicode="&#x404;" horiz-adv-x="525" 
d="M300 -15q-75 0 -130.5 38t-85.5 108t-30 166v66q0 97 30 166.5t85.5 107.5t130.5 38q116 0 196 -92l-37 -37q-72 76 -157 76q-87 0 -138 -67.5t-51 -195.5h274v-52h-274v-6q0 -127 51.5 -195t137.5 -68q46 0 85 19.5t72 56.5l37 -37q-37 -42 -85.5 -67t-110.5 -25z" />
    <glyph glyph-name="uni0405" unicode="&#x405;" horiz-adv-x="497" 
d="M232 -15q-54 0 -101 16.5t-97 54.5l29 44q44 -32 84.5 -47t86.5 -15q75 0 115.5 35t40.5 98q0 48 -26.5 80.5t-86.5 48.5l-76 21q-68 19 -105.5 63t-37.5 111q0 85 56.5 132.5t147.5 47.5q50 0 96 -16t92 -52l-31 -43q-40 30 -80.5 44t-78.5 14q-61 0 -101 -32t-40 -92
q0 -45 25.5 -77t82.5 -48l76 -21q71 -19 109.5 -64t38.5 -115q0 -85 -57.5 -136.5t-161.5 -51.5z" />
    <glyph glyph-name="uni0406" unicode="&#x406;" horiz-adv-x="223" 
d="M82 0v660h59v-660h-59z" />
    <glyph glyph-name="uni0407" unicode="&#x407;" horiz-adv-x="223" 
d="M82 0v660h59v-660h-59zM22 730q-18 0 -29.5 12.5t-11.5 29.5t11.5 28.5t29.5 11.5t28.5 -11.5t10.5 -28.5t-10.5 -29.5t-28.5 -12.5zM202 730q-19 0 -29 12.5t-10 29.5t10 28.5t29 11.5q18 0 29.5 -11.5t11.5 -28.5t-11.5 -29.5t-29.5 -12.5z" />
    <glyph glyph-name="uni0408" unicode="&#x408;" horiz-adv-x="402" 
d="M149 -15q-85 0 -145 56l30 42q29 -24 55.5 -34.5t58.5 -10.5q64 0 93.5 39t29.5 121v462h59v-463q0 -79 -22.5 -125t-63.5 -66.5t-95 -20.5z" />
    <glyph glyph-name="uni0409" unicode="&#x409;" horiz-adv-x="859" 
d="M149 660h343v-263h131q94 0 147.5 -51t53.5 -137v-20q0 -86 -53.5 -137.5t-147.5 -51.5h-190v608h-227l-3 -257q-1 -138 -16 -217t-49.5 -111.5t-96.5 -32.5q-7 0 -15 0.5t-14 1.5v52q6 -1 14.5 -1h13.5q39 0 61.5 28t32.5 95t11 185zM623 346h-131v-295h131
q72 0 107 36.5t35 103.5v16q0 67 -35 103t-107 36z" />
    <glyph glyph-name="uni040A" unicode="&#x40a;" horiz-adv-x="886" 
d="M82 0v660h59v-273h319v273h59v-273h131q94 0 147.5 -50t53.5 -133v-20q0 -84 -53.5 -134t-147.5 -50h-190v335h-319v-335h-59zM650 336h-131v-285h131q72 0 107 35t35 100v16q0 65 -35 99.5t-107 34.5z" />
    <glyph glyph-name="uni040B" unicode="&#x40b;" horiz-adv-x="686" 
d="M200 0v608h-182v52h486v-52h-245v-242q36 13 81 21t82 8q104 0 150.5 -51t46.5 -165v-179h-59v178q0 92 -33 128.5t-115 36.5q-35 0 -77.5 -8t-75.5 -23v-312h-59z" />
    <glyph glyph-name="uni040C" unicode="&#x40c;" horiz-adv-x="553" 
d="M82 0v660h59v-301h113l208 301h67l-226 -323l234 -337h-74l-212 308h-110v-308h-59zM257 720l-30 32l134 129l35 -37z" />
    <glyph glyph-name="uni040D" unicode="&#x40d;" horiz-adv-x="625" 
d="M543 0h-57v603h-10l-300 -603h-94v660h57v-603h10l299 603h95v-660zM321 720l-139 124l35 37l134 -129z" />
    <glyph glyph-name="uni040E" unicode="&#x40e;" horiz-adv-x="536" 
d="M252 0h-63l66 158h-26l-213 502h63l189 -450h12l179 450h61zM269 695q-66 0 -98.5 36.5t-34.5 95.5h55q2 -41 20 -66t58 -25q41 0 58.5 25t19.5 66h55q-1 -59 -34 -95.5t-99 -36.5z" />
    <glyph glyph-name="uni040F" unicode="&#x40f;" horiz-adv-x="602" 
d="M82 0v660h59v-608h320v608h59v-660h-191v-153h-55v153h-192z" />
    <glyph glyph-name="uni0410" unicode="&#x410;" horiz-adv-x="525" 
d="M9 0l207 660h93l207 -660h-62l-58 188h-270l-58 -188h-59zM255 608l-114 -370h239l-114 370h-11z" />
    <glyph glyph-name="uni0411" unicode="&#x411;" horiz-adv-x="541" 
d="M82 0v660h371v-50h-312v-222h139q99 0 156 -50.5t57 -133.5v-20q0 -84 -57 -134t-156 -50h-198zM280 337h-139v-286h139q77 0 115.5 35t38.5 100v16q0 65 -38.5 100t-115.5 35z" />
    <glyph glyph-name="uni0412" unicode="&#x412;" horiz-adv-x="554" 
d="M82 0v660h221q50 0 89.5 -19t63 -55t23.5 -89v-20q0 -50 -24 -85t-65 -51q49 -14 78.5 -52t29.5 -99v-20q0 -53 -24.5 -91.5t-66 -58.5t-93.5 -20h-232zM301 609h-160v-246h160q57 0 88.5 30t31.5 85v15q0 56 -31.5 86t-88.5 30zM141 51h173q53 0 89 28t36 95v15
q0 65 -36 94t-89 29h-173v-261z" />
    <glyph glyph-name="uni0413" unicode="&#x413;" horiz-adv-x="445" 
d="M82 0v660h344v-52h-285v-608h-59z" />
    <glyph glyph-name="uni0414" unicode="&#x414;" horiz-adv-x="615" 
d="M12 52h54q31 28 47.5 63.5t23.5 93t8 152.5l4 299h364v-608h77v-205h-55v153h-468v-153h-55v205zM202 362q-1 -88 -7 -146.5t-20 -96.5t-38 -67h318v556h-250z" />
    <glyph glyph-name="uni0415" unicode="&#x415;" horiz-adv-x="500" 
d="M82 0v660h361v-52h-302v-246h275v-51h-275v-259h311v-52h-370z" />
    <glyph glyph-name="uni0416" unicode="&#x416;" horiz-adv-x="815" 
d="M378 0v308h-97l-193 -308h-72l216 336l-208 324h66l189 -300h99v300h59v-300h99l189 300h66l-208 -324l216 -336h-72l-193 308h-97v-308h-59z" />
    <glyph glyph-name="uni0417" unicode="&#x417;" horiz-adv-x="495" 
d="M233 675q54 0 98.5 -21.5t70.5 -60t26 -90.5v-19q0 -53 -32.5 -91t-84.5 -54q56 -14 92.5 -56t36.5 -99v-19q0 -64 -29.5 -104t-77.5 -58t-104 -18q-140 0 -211 104l43 33q26 -37 67.5 -60.5t99.5 -23.5q36 0 71.5 11t59 39t23.5 78v18q0 63 -48 95t-131 32h-60v52h59
q74 0 121.5 31t47.5 90v16q0 37 -19 64.5t-50.5 42.5t-69.5 15q-50 0 -87 -21t-72 -62l-38 33q34 47 84 75t114 28z" />
    <glyph glyph-name="uni0418" unicode="&#x418;" horiz-adv-x="625" 
d="M543 0h-57v603h-10l-300 -603h-94v660h57v-603h10l299 603h95v-660z" />
    <glyph glyph-name="uni0419" unicode="&#x419;" horiz-adv-x="625" 
d="M543 0h-57v603h-10l-300 -603h-94v660h57v-603h10l299 603h95v-660zM313 695q-66 0 -98.5 36.5t-34.5 95.5h55q2 -41 20 -66t58 -25q41 0 58.5 25t19.5 66h55q-1 -59 -34 -95.5t-99 -36.5z" />
    <glyph glyph-name="uni041A" unicode="&#x41a;" horiz-adv-x="553" 
d="M82 0v660h59v-301h113l208 301h67l-226 -323l234 -337h-74l-212 308h-110v-308h-59z" />
    <glyph glyph-name="uni041B" unicode="&#x41b;" horiz-adv-x="597" 
d="M149 660h366v-660h-59v608h-250l-3 -257q-1 -138 -16 -217t-49.5 -111.5t-96.5 -32.5q-5 0 -13 0.5t-16 1.5v52q4 -1 11 -1h17q39 0 61.5 28t32.5 95t11 185z" />
    <glyph glyph-name="uni041C" unicode="&#x41c;" horiz-adv-x="742" 
d="M82 0v660h101l185 -496h11l182 496h99v-660h-57v604h-10l-184 -496h-73l-187 496h-10v-604h-57z" />
    <glyph glyph-name="uni041D" unicode="&#x41d;" horiz-adv-x="623" 
d="M82 0v660h59v-301h341v301h59v-660h-59v307h-341v-307h-59z" />
    <glyph glyph-name="uni041E" unicode="&#x41e;" horiz-adv-x="602" 
d="M301 -15q-118 0 -182.5 83.5t-64.5 228.5v66q0 145 64.5 228.5t182.5 83.5t182.5 -83.5t64.5 -228.5v-66q0 -145 -64.5 -228.5t-182.5 -83.5zM301 38q89 0 138.5 67t49.5 196v58q0 129 -49.5 196t-138.5 67t-138.5 -67t-49.5 -196v-58q0 -129 49.5 -196t138.5 -67z" />
    <glyph glyph-name="uni041F" unicode="&#x41f;" horiz-adv-x="616" 
d="M82 660h452v-660h-59v608h-334v-608h-59v660z" />
    <glyph glyph-name="uni0420" unicode="&#x420;" horiz-adv-x="520" 
d="M82 0v660h210q87 0 140.5 -50t53.5 -134v-20q0 -84 -53.5 -134t-140.5 -50h-151v-272h-59zM292 609h-151v-286h151q65 0 100 35t35 100v16q0 65 -35 100t-100 35z" />
    <glyph glyph-name="uni0421" unicode="&#x421;" horiz-adv-x="534" 
d="M300 -15q-75 0 -130.5 38t-85.5 108t-30 166v66q0 97 30 166.5t85.5 107.5t130.5 38q116 0 196 -92l-37 -37q-72 76 -157 76q-87 0 -138 -67.5t-51 -195.5v-58q0 -127 51.5 -195t137.5 -68q46 0 85 19.5t72 56.5l37 -37q-37 -42 -85.5 -67t-110.5 -25z" />
    <glyph glyph-name="uni0422" unicode="&#x422;" horiz-adv-x="503" 
d="M222 0v608h-204v52h467v-52h-204v-608h-59z" />
    <glyph glyph-name="uni0423" unicode="&#x423;" horiz-adv-x="536" 
d="M252 0h-63l66 158h-26l-213 502h63l189 -450h12l179 450h61z" />
    <glyph glyph-name="uni0424" unicode="&#x424;" horiz-adv-x="692" 
d="M648 326q0 -87 -34 -149t-95.5 -95.5t-143.5 -35.5v-71h-58v71q-82 2 -143.5 35.5t-95.5 95.5t-34 149v14q0 87 34 149t95.5 95.5t143.5 35.5v65h58v-65q82 -2 143.5 -35.5t95.5 -95.5t34 -149v-14zM589 339q0 62 -22 113.5t-69 83t-124 34.5v-474q77 3 124 34.5t69 83
t22 113.5v12zM103 327q0 -62 22 -113.5t69 -83t124 -34.5v474q-77 -3 -124 -34.5t-69 -83t-22 -113.5v-12z" />
    <glyph glyph-name="uni0425" unicode="&#x425;" horiz-adv-x="540" 
d="M16 0l215 333l-203 327h72l167 -282h10l167 282h68l-204 -325l216 -335h-72l-180 290h-10l-178 -290h-68z" />
    <glyph glyph-name="uni0426" unicode="&#x426;" horiz-adv-x="622" 
d="M82 0v660h59v-608h320v608h59v-608h77v-205h-55v153h-460z" />
    <glyph glyph-name="uni0427" unicode="&#x427;" horiz-adv-x="582" 
d="M441 0v295q-33 -13 -77 -21.5t-93 -8.5q-108 0 -156 51t-48 165v179h59v-178q0 -91 34.5 -128t119.5 -37q46 0 87.5 8.5t73.5 22.5v312h59v-660h-59z" />
    <glyph glyph-name="uni0428" unicode="&#x428;" horiz-adv-x="825" 
d="M82 660h59v-608h242v608h59v-608h242v608h59v-660h-661v660z" />
    <glyph glyph-name="uni0429" unicode="&#x429;" horiz-adv-x="839" 
d="M82 660h59v-608h240v608h59v-608h238v608h59v-608h77v-205h-55v153h-677v660z" />
    <glyph glyph-name="uni042A" unicode="&#x42a;" horiz-adv-x="645" 
d="M216 0v608h-196v52h255v-263h134q94 0 147.5 -51t53.5 -137v-20q0 -86 -53.5 -137.5t-147.5 -51.5h-193zM409 346h-134v-295h134q72 0 107 36.5t35 103.5v16q0 67 -35 103t-107 36z" />
    <glyph glyph-name="uni042B" unicode="&#x42b;" horiz-adv-x="702" 
d="M561 0v660h59v-660h-59zM82 0v660h59v-263h126q94 0 147.5 -51t53.5 -137v-20q0 -86 -53.5 -137.5t-147.5 -51.5h-185zM267 346h-126v-295h126q72 0 107 36.5t35 103.5v16q0 67 -35 103t-107 36z" />
    <glyph glyph-name="uni042C" unicode="&#x42c;" horiz-adv-x="521" 
d="M82 0v660h59v-263h144q94 0 147.5 -51t53.5 -137v-20q0 -86 -53.5 -137.5t-147.5 -51.5h-203zM285 346h-144v-295h144q72 0 107 36.5t35 103.5v16q0 67 -35 103t-107 36z" />
    <glyph glyph-name="uni042D" unicode="&#x42d;" horiz-adv-x="522" 
d="M222 -15q-61 0 -109 25t-84 67l37 37q32 -37 70.5 -56.5t83.5 -19.5q86 0 137.5 68t51.5 195v6h-274v52h274q0 128 -51 195.5t-138 67.5q-40 0 -78.5 -19t-73.5 -57l-37 37q78 92 191 92q76 0 131 -38t85 -107.5t30 -166.5v-66q0 -96 -30 -166t-85 -108t-131 -38z" />
    <glyph glyph-name="uni042E" unicode="&#x42e;" horiz-adv-x="792" 
d="M497 -15q-76 0 -130 39.5t-82.5 110t-28.5 162.5v10h-115v-307h-59v660h59v-301h115v4q0 92 28.5 162.5t82.5 110t130 39.5t130 -39.5t82.5 -110t28.5 -162.5v-66q0 -92 -28.5 -162.5t-82.5 -110t-130 -39.5zM497 38q84 0 133 70.5t49 192.5v58q0 122 -49 192.5
t-133 70.5t-133 -70.5t-49 -192.5v-58q0 -122 49 -192.5t133 -70.5z" />
    <glyph glyph-name="uni042F" unicode="&#x42f;" horiz-adv-x="547" 
d="M465 660v-660h-59v282h-142l-152 -282h-68l159 286q-65 12 -105.5 58.5t-40.5 117.5v19q0 55 24.5 95t67.5 62t97 22h219zM246 333h160v276h-160q-61 0 -95.5 -34t-34.5 -96v-15q0 -62 34.5 -96.5t95.5 -34.5z" />
    <glyph glyph-name="uni0430" unicode="&#x430;" horiz-adv-x="447" 
d="M167 -10q-67 0 -103 39.5t-36 100.5q0 65 43.5 107.5t128.5 42.5h114v31q0 77 -27.5 112t-86.5 35q-37 0 -65 -12t-52 -36l-34 36q29 29 67 45.5t87 16.5q83 0 124.5 -47.5t41.5 -149.5v-216q0 -35 10.5 -46.5t31.5 -11.5h7.5t8.5 1v-46q-7 -1 -15.5 -1.5t-15.5 -0.5
q-46 0 -62.5 27.5t-16.5 75.5q-30 -58 -70.5 -80.5t-79.5 -22.5zM182 38q35 0 71 23t61 80v93h-110q-58 0 -88.5 -27t-30.5 -75q0 -46 25.5 -70t71.5 -24z" />
    <glyph glyph-name="uni0431" unicode="&#x431;" horiz-adv-x="497" 
d="M62 241v131q0 105 21 166.5t71 94t136 47.5l126 23l8 -54l-129 -23q-73 -13 -114 -38.5t-57 -76t-16 -140.5q25 55 71.5 87.5t102.5 32.5q80 0 123.5 -60t43.5 -170v-40q0 -69 -23 -121.5t-66 -82t-104 -29.5q-91 0 -142.5 66.5t-51.5 186.5zM118 243q0 -98 36.5 -152
t101.5 -54q64 0 100.5 51t36.5 136v34q0 89 -31.5 136t-93.5 47q-48 0 -87 -28t-63 -78v-92z" />
    <glyph glyph-name="uni0432" unicode="&#x432;" horiz-adv-x="463" 
d="M66 496h185q77 0 115 -36t38 -92q0 -42 -19.5 -70.5t-52.5 -39.5q41 -13 61 -44.5t20 -76.5q0 -64 -41.5 -100.5t-119.5 -36.5h-186v496zM251 448h-130v-169h130q56 0 76.5 24t20.5 60q0 37 -21 61t-76 24zM252 234h-131v-186h131q59 0 82 26.5t23 66.5q0 41 -23 67
t-82 26z" />
    <glyph glyph-name="uni0433" unicode="&#x433;" horiz-adv-x="354" 
d="M66 496h270v-48h-214v-448h-56v496z" />
    <glyph glyph-name="uni0434" unicode="&#x434;" horiz-adv-x="490" 
d="M5 48h50q25 21 37 73.5t13 122.5l4 252h290v-448h71v-191h-52v143h-361v-143h-52v191zM157 249q-1 -71 -10.5 -119.5t-30.5 -81.5h227v400h-183z" />
    <glyph glyph-name="uni0435" unicode="&#x435;" horiz-adv-x="457" 
d="M243 -12q-97 0 -147 65t-50 175v40q0 110 48.5 175t139.5 65q61 0 101.5 -31t61 -85.5t20.5 -124.5v-33h-316v-2q0 -95 36.5 -144.5t108.5 -49.5q43 0 72.5 15t51.5 40l34 -32q-30 -36 -69 -54.5t-92 -18.5zM233 458q-60 0 -94.5 -46t-37.5 -132h262q-4 82 -36 130
t-94 48z" />
    <glyph glyph-name="uni0436" unicode="&#x436;" horiz-adv-x="651" 
d="M298 0v229h-76l-139 -229h-65l160 257l-149 239h62l132 -217h75v217h55v-217h75l132 217h62l-149 -239l160 -257h-65l-139 229h-76v-229h-55z" />
    <glyph glyph-name="uni0437" unicode="&#x437;" horiz-adv-x="427" 
d="M213 508q70 0 115 -36.5t45 -98.5q0 -43 -23 -74.5t-62 -42.5q42 -10 68 -42t26 -82q0 -69 -50.5 -106.5t-126.5 -37.5q-104 0 -170 76l35 34q26 -30 59.5 -45t76.5 -15q56 0 88 25.5t32 74.5q0 50 -34.5 71t-96.5 21h-57v48h57q53 0 87.5 18.5t34.5 73.5q0 43 -27 65.5
t-77 22.5q-40 0 -75 -15.5t-63 -48.5l-34 33q32 38 75 59.5t97 21.5z" />
    <glyph glyph-name="uni0438" unicode="&#x438;" horiz-adv-x="484" 
d="M418 0h-55v442h-8l-202 -442h-87v496h55v-442h8l200 442h89v-496z" />
    <glyph glyph-name="uni0439" unicode="&#x439;" horiz-adv-x="484" 
d="M418 0h-55v442h-8l-202 -442h-87v496h55v-442h8l200 442h89v-496zM241 575q-67 0 -96.5 35.5t-33.5 99.5h54q2 -43 18.5 -69t57.5 -26t58 26t18 69h54q-4 -64 -33.5 -99.5t-96.5 -35.5z" />
    <glyph glyph-name="uni043A" unicode="&#x43a;" horiz-adv-x="435" 
d="M66 0v496h56v-216h76l145 216h65l-162 -233l173 -263h-68l-149 230h-80v-230h-56z" />
    <glyph glyph-name="uni043B" unicode="&#x43b;" horiz-adv-x="469" 
d="M109 496h294v-496h-56v448h-187l-3 -200q-1 -102 -12.5 -158t-38.5 -78t-78 -22q-10 0 -20 2v53q6 -1 10.5 -1h7.5q31 0 47.5 15t23.5 59t8 129z" />
    <glyph glyph-name="uni043C" unicode="&#x43c;" horiz-adv-x="570" 
d="M66 0v496h93l122 -363h8l122 363h93v-496h-55v443h-8l-125 -361h-63l-124 361h-8v-443h-55z" />
    <glyph glyph-name="uni043D" unicode="&#x43d;" horiz-adv-x="479" 
d="M66 496h56v-215h235v215h56v-496h-56v233h-235v-233h-56v496z" />
    <glyph glyph-name="uni043E" unicode="&#x43e;" horiz-adv-x="480" 
d="M240 -12q-92 0 -143 64.5t-51 175.5v40q0 111 51 175.5t143 64.5t143 -64.5t51 -175.5v-40q0 -111 -51 -175.5t-143 -64.5zM240 38q64 0 101 49t37 144v34q0 95 -37 144t-101 49t-101 -49t-37 -144v-34q0 -95 37 -144t101 -49z" />
    <glyph glyph-name="uni043F" unicode="&#x43f;" horiz-adv-x="473" 
d="M66 496h341v-496h-56v447h-229v-447h-56v496z" />
    <glyph glyph-name="uni0440" unicode="&#x440;" horiz-adv-x="492" 
d="M66 -190v686h53v-96q20 43 57 74.5t94 31.5q81 0 128.5 -62t47.5 -176v-40q0 -114 -47.5 -176t-128.5 -62q-55 0 -91.5 30t-56.5 72v-282h-56zM256 456q-51 0 -84 -33.5t-50 -75.5v-198q17 -42 50.5 -75.5t83.5 -33.5q59 0 96.5 46.5t37.5 144.5v34q0 98 -37.5 144.5
t-96.5 46.5z" />
    <glyph glyph-name="uni0441" unicode="&#x441;" horiz-adv-x="415" 
d="M237 -12q-85 0 -138 63t-53 178v40q0 113 51.5 176t138.5 63q49 0 86.5 -20t64.5 -55l-36 -33q-22 28 -49 43t-63 15q-62 0 -99.5 -47t-37.5 -145v-34q0 -100 38.5 -147t101.5 -47q37 0 64.5 16t49.5 42l35 -32q-28 -36 -65.5 -56t-88.5 -20z" />
    <glyph glyph-name="uni0442" unicode="&#x442;" horiz-adv-x="400" 
d="M172 0v448h-154v48h364v-48h-154v-448h-56z" />
    <glyph glyph-name="uni0443" unicode="&#x443;" horiz-adv-x="424" 
d="M135 -190l62 190h-28l-159 496h61l137 -447h9l139 447h58l-222 -686h-57z" />
    <glyph glyph-name="uni0444" unicode="&#x444;" horiz-adv-x="693" 
d="M200 -12q-69 0 -111.5 61.5t-42.5 178.5v40q0 117 42.5 178.5t111.5 61.5q43 0 72 -22.5t47 -56.5v271h55v-271q18 34 47 56.5t72 22.5q69 0 111.5 -61.5t42.5 -178.5v-40q0 -117 -42.5 -178.5t-111.5 -61.5q-43 0 -72 22t-47 56v-256h-55v256q-18 -34 -47 -56t-72 -22z
M481 458q-39 0 -65.5 -25.5t-41.5 -59.5v-250q15 -34 41.5 -59.5t65.5 -25.5q47 0 78.5 45.5t31.5 147.5v34q0 102 -31.5 147.5t-78.5 45.5zM102 231q0 -102 32 -147.5t78 -45.5q39 0 65.5 25.5t41.5 59.5v250q-15 34 -41.5 59.5t-65.5 25.5q-46 0 -78 -45.5t-32 -147.5v-34
z" />
    <glyph glyph-name="uni0445" unicode="&#x445;" horiz-adv-x="410" 
d="M9 0l160 251l-154 245h67l120 -208h9l122 208h62l-152 -244l158 -252h-67l-126 214h-9l-128 -214h-62z" />
    <glyph glyph-name="uni0446" unicode="&#x446;" horiz-adv-x="496" 
d="M66 496h56v-448h228v448h56v-448h70v-191h-52v143h-358v496z" />
    <glyph glyph-name="uni0447" unicode="&#x447;" horiz-adv-x="460" 
d="M55 496h56v-139q0 -64 23 -91t87 -27q55 0 117 20v237h56v-496h-56v211q-28 -11 -61 -16.5t-65 -5.5q-82 0 -119.5 37.5t-37.5 128.5v141z" />
    <glyph glyph-name="uni0448" unicode="&#x448;" horiz-adv-x="694" 
d="M66 496h56v-448h197v448h56v-448h197v448h56v-496h-562v496z" />
    <glyph glyph-name="uni0449" unicode="&#x449;" horiz-adv-x="715" 
d="M66 496h56v-448h195v448h56v-448h195v448h56v-448h71v-191h-52v143h-577v496z" />
    <glyph glyph-name="uni044A" unicode="&#x44a;" horiz-adv-x="521" 
d="M159 0v448h-141v48h197v-177h101q91 0 132 -45.5t41 -113.5t-41 -114t-132 -46h-157zM316 271h-101v-223h101q64 0 90 31.5t26 80.5q0 48 -26 79.5t-90 31.5z" />
    <glyph glyph-name="uni044B" unicode="&#x44b;" horiz-adv-x="595" 
d="M473 496h56v-496h-56v496zM66 0v496h56v-177h97q91 0 132 -45.5t41 -113.5t-41 -114t-132 -46h-153zM219 271h-97v-223h97q64 0 90 31.5t26 80.5q0 48 -26 79.5t-90 31.5z" />
    <glyph glyph-name="uni044C" unicode="&#x44c;" horiz-adv-x="435" 
d="M403 160q0 -68 -41 -114t-132 -46h-164v496h56v-177h108q91 0 132 -45.5t41 -113.5zM230 271h-108v-223h108q64 0 90 31.5t26 80.5q0 48 -26 79.5t-90 31.5z" />
    <glyph glyph-name="uni044D" unicode="&#x44d;" horiz-adv-x="435" 
d="M195 -12q-48 0 -89.5 16.5t-70.5 53.5l36 34q48 -54 123 -54q65 0 102 52.5t37 138.5h-200v48h200q-3 83 -38 132t-97 49q-76 0 -123 -56l-34 33q61 73 157 73q89 0 140 -65.5t51 -174.5v-40q0 -109 -51.5 -174.5t-142.5 -65.5z" />
    <glyph glyph-name="uni044E" unicode="&#x44e;" horiz-adv-x="646" 
d="M66 0v496h56v-215h96q3 102 53 164.5t138 62.5q61 0 103.5 -30t65 -84t22.5 -125v-42q0 -71 -22.5 -125t-65 -84t-103.5 -30q-60 0 -103 30t-65.5 84t-22.5 125v6h-96v-233h-56zM409 38q63 0 99 51t36 141v36q0 90 -36 141t-99 51t-99 -51t-36 -141v-36q0 -90 36 -141
t99 -51z" />
    <glyph glyph-name="uni044F" unicode="&#x44f;" horiz-adv-x="453" 
d="M387 496v-496h-56v198h-123l-108 -198h-65l119 207q-52 13 -77 51t-25 89q0 64 39.5 106.5t124.5 42.5h171zM217 246h114v202h-114q-60 0 -84 -30t-24 -73t24.5 -71t83.5 -28z" />
    <glyph glyph-name="uni0450" unicode="&#x450;" horiz-adv-x="457" 
d="M243 -12q-97 0 -147 65t-50 175v40q0 110 48.5 175t139.5 65q61 0 101.5 -31t61 -85.5t20.5 -124.5v-33h-316v-2q0 -95 36.5 -144.5t108.5 -49.5q43 0 72.5 15t51.5 40l34 -32q-30 -36 -69 -54.5t-92 -18.5zM233 458q-60 0 -94.5 -46t-37.5 -132h262q-4 82 -36 130
t-94 48zM238 575l-113 143l40 30l107 -148z" />
    <glyph glyph-name="uni0451" unicode="&#x451;" horiz-adv-x="457" 
d="M243 -12q-97 0 -147 65t-50 175v40q0 110 48.5 175t139.5 65q61 0 101.5 -31t61 -85.5t20.5 -124.5v-33h-316v-2q0 -95 36.5 -144.5t108.5 -49.5q43 0 72.5 15t51.5 40l34 -32q-30 -36 -69 -54.5t-92 -18.5zM233 458q-60 0 -94.5 -46t-37.5 -132h262q-4 82 -36 130
t-94 48zM142 597q-18 0 -28.5 11.5t-10.5 27.5q0 17 10.5 28t28.5 11t28.5 -11t10.5 -28q0 -16 -10.5 -27.5t-28.5 -11.5zM322 597q-18 0 -28.5 11.5t-10.5 27.5q0 17 10.5 28t28.5 11t28.5 -11t10.5 -28q0 -16 -10.5 -27.5t-28.5 -11.5z" />
    <glyph glyph-name="uni0452" unicode="&#x452;" horiz-adv-x="545" 
d="M127 0v581h-112v44h112v75h56v-75h161v-44h-161v-183q23 46 59 72t84 26q52 0 87 -26t53.5 -87t18.5 -166v-104q0 -108 -17.5 -172t-51.5 -95.5t-84 -42.5l-12 51q36 10 60.5 35t36.5 78.5t12 148.5v98q0 90 -13 140t-39 70.5t-66 20.5q-41 0 -74.5 -27t-53.5 -78v-340
h-56z" />
    <glyph glyph-name="uni0453" unicode="&#x453;" horiz-adv-x="354" 
d="M66 496h270v-48h-214v-448h-56v496zM195 575l-34 25l107 148l40 -30z" />
    <glyph glyph-name="uni0454" unicode="&#x454;" horiz-adv-x="426" 
d="M237 -12q-85 0 -138 63t-53 178v40q0 113 51.5 176t138.5 63q49 0 86.5 -20t64.5 -55l-36 -33q-22 28 -49 43t-63 15q-60 0 -97 -44.5t-40 -136.5h200v-48h-200q1 -99 39.5 -145t100.5 -46q37 0 64.5 16t49.5 42l35 -32q-28 -36 -65.5 -56t-88.5 -20z" />
    <glyph glyph-name="uni0455" unicode="&#x455;" horiz-adv-x="397" 
d="M187 -12q-53 0 -91.5 18.5t-70.5 49.5l33 37q27 -27 58 -41t71 -14q50 0 81 24t31 68q0 32 -18 54.5t-60 32.5l-60 15q-54 14 -84 49t-30 87q0 63 41.5 101.5t113.5 38.5q47 0 84 -15.5t72 -44.5l-32 -38q-25 23 -54.5 35.5t-66.5 12.5q-47 0 -74.5 -23t-27.5 -64
q0 -31 18 -54t60 -34l60 -15q58 -14 86.5 -49.5t28.5 -85.5q0 -66 -46 -105.5t-123 -39.5z" />
    <glyph glyph-name="uni0456" unicode="&#x456;" horiz-adv-x="188" 
d="M94 595q-18 0 -29.5 12t-11.5 29t11.5 29.5t29.5 12.5t29.5 -12.5t11.5 -29.5t-11.5 -29t-29.5 -12zM66 0v496h56v-496h-56z" />
    <glyph glyph-name="uni0457" unicode="&#x457;" horiz-adv-x="188" 
d="M66 0v496h56v-496h-56zM17 597q-18 0 -28.5 11.5t-10.5 27.5q0 17 10.5 28t28.5 11t28.5 -11t10.5 -28q0 -16 -10.5 -27.5t-28.5 -11.5zM171 597q-18 0 -28.5 11.5t-10.5 27.5q0 17 10.5 28t28.5 11t28.5 -11t10.5 -28q0 -16 -10.5 -27.5t-28.5 -11.5z" />
    <glyph glyph-name="uni0458" unicode="&#x458;" horiz-adv-x="188" 
d="M94 595q-18 0 -29.5 12t-11.5 29t11.5 29.5t29.5 12.5t29.5 -12.5t11.5 -29.5t-11.5 -29t-29.5 -12zM31 -202q-10 0 -17 0.5t-18 1.5v48q8 -1 13 -1h10q26 0 36.5 15.5t10.5 62.5v571h56v-576q0 -61 -19.5 -91.5t-71.5 -30.5z" />
    <glyph glyph-name="uni0459" unicode="&#x459;" horiz-adv-x="695" 
d="M105 247l4 249h279v-177h102q91 0 132 -45.5t41 -113.5t-41 -114t-132 -46h-158v448h-172l-3 -200q-1 -102 -12.5 -158t-38.5 -78t-78 -22q-10 0 -20 2v53q6 -1 10.5 -1h7.5q31 0 47.5 15t23.5 59t8 129zM490 271h-102v-223h102q64 0 90 31.5t26 80.5q0 48 -26 79.5
t-90 31.5z" />
    <glyph glyph-name="uni045A" unicode="&#x45a;" horiz-adv-x="708" 
d="M345 0v253h-223v-253h-56v496h56v-195h223v195h56v-195h102q91 0 132 -40.5t41 -100.5q0 -68 -41 -114t-132 -46h-158zM503 253h-102v-205h102q64 0 90 31.5t26 80.5q0 41 -26 67t-90 26z" />
    <glyph glyph-name="uni045B" unicode="&#x45b;" horiz-adv-x="541" 
d="M127 0v581h-112v44h112v75h56v-75h161v-44h-161v-185q21 43 57.5 71.5t91.5 28.5q69 0 109 -47t40 -148v-301h-56v295q0 80 -27.5 115.5t-80.5 35.5q-50 0 -83.5 -32t-50.5 -75v-339h-56z" />
    <glyph glyph-name="uni045C" unicode="&#x45c;" horiz-adv-x="435" 
d="M66 0v496h56v-216h76l145 216h65l-162 -233l173 -263h-68l-149 230h-80v-230h-56zM224 575l-34 25l107 148l40 -30z" />
    <glyph glyph-name="uni045D" unicode="&#x45d;" horiz-adv-x="484" 
d="M418 0h-55v442h-8l-202 -442h-87v496h55v-442h8l200 442h89v-496zM247 575l-113 143l40 30l107 -148z" />
    <glyph glyph-name="uni045E" unicode="&#x45e;" horiz-adv-x="424" 
d="M135 -190l62 190h-28l-159 496h61l137 -447h9l139 447h58l-222 -686h-57zM214 575q-67 0 -96.5 35.5t-33.5 99.5h54q2 -43 18.5 -69t57.5 -26t58 26t18 69h54q-4 -64 -33.5 -99.5t-96.5 -35.5z" />
    <glyph glyph-name="uni045F" unicode="&#x45f;" horiz-adv-x="472" 
d="M210 -143v143h-144v496h56v-448h228v448h56v-496h-144v-143h-52z" />
    <glyph glyph-name="uni0462" unicode="&#x462;" horiz-adv-x="590" 
d="M150 0v530h-132v51h132v119h59v-119h193v-51h-193v-152h133q99 0 156 -49t57 -130v-20q0 -82 -57 -130.5t-156 -48.5h-192zM342 327h-133v-276h133q77 0 115.5 33.5t38.5 96.5v16q0 63 -38.5 96.5t-115.5 33.5z" />
    <glyph glyph-name="uni0463" unicode="&#x463;" horiz-adv-x="495" 
d="M11 449v47h112v204h56v-204h161v-47h-161v-130h111q91 0 132 -45.5t41 -113.5t-41 -114t-132 -46h-167v449h-112zM290 271h-111v-223h111q64 0 90 31.5t26 80.5q0 48 -26 79.5t-90 31.5z" />
    <glyph glyph-name="uni0472" unicode="&#x472;" horiz-adv-x="602" 
d="M301 -15q-118 0 -182.5 83.5t-64.5 228.5v66q0 145 64.5 228.5t182.5 83.5t182.5 -83.5t64.5 -228.5v-66q0 -145 -64.5 -228.5t-182.5 -83.5zM301 622q-89 0 -138.5 -67t-49.5 -196h376q0 129 -49.5 196t-138.5 67zM301 38q89 0 138.5 67t49.5 196v7h-376v-7
q0 -129 49.5 -196t138.5 -67z" />
    <glyph glyph-name="uni0473" unicode="&#x473;" horiz-adv-x="479" 
d="M239 -12q-92 0 -142.5 64.5t-50.5 175.5v40q0 110 50.5 175t142.5 65t143 -65t51 -175v-40q0 -111 -51 -175.5t-143 -64.5zM239 458q-62 0 -98.5 -46.5t-38.5 -137.5h275q-2 91 -39 137.5t-99 46.5zM239 38q64 0 101 48.5t37 141.5h-275q1 -94 37.5 -142t99.5 -48z" />
    <glyph glyph-name="uni0474" unicode="&#x474;" horiz-adv-x="596" 
d="M553 675q25 0 37 -4v-54q-9 4 -29 4q-34 0 -53 -16.5t-33 -61.5l-165 -543h-95l-203 660h62l183 -609h12l154 512q18 60 49 86t81 26z" />
    <glyph glyph-name="uni0475" unicode="&#x475;" horiz-adv-x="471" 
d="M436 508q14 0 30 -4v-52q-10 3 -23 3q-24 0 -36 -11.5t-23 -44.5l-129 -399h-86l-159 496h61l138 -447h9l115 369q15 48 38.5 69t64.5 21z" />
    <glyph glyph-name="uni0490" unicode="&#x490;" horiz-adv-x="445" 
d="M82 0v660h289v153h55v-205h-285v-608h-59z" />
    <glyph glyph-name="uni0491" unicode="&#x491;" horiz-adv-x="354" 
d="M66 0v496h218v143h52v-191h-214v-448h-56z" />
    <glyph glyph-name="uni058F" unicode="&#x58f;" 
d="M230 212v52h126v91h-126v51h126v56q0 83 -29.5 121.5t-91.5 38.5q-59 0 -90.5 -37t-31.5 -132h-58q0 82 22.5 130.5t63 70t94.5 21.5q80 0 129.5 -48.5t49.5 -163.5v-57h64v-51h-64v-91h64v-52h-64v-212h-58v212h-126z" />
    <glyph glyph-name="uni0E3F" unicode="&#xe3f;" 
d="M83 27v596h159v97h53v-97q51 0 90.5 -19t62 -51.5t22.5 -72.5v-19q0 -44 -23.5 -76t-64.5 -47q48 -13 77 -48.5t29 -88.5v-18q0 -68 -50.5 -112t-133.5 -44h-10v-97h-51v97h-160zM294 573h-152v-212h152q56 0 87 27t31 75v13q0 42 -32.5 69.5t-85.5 27.5zM142 77h162
q61 0 93 29t32 79v14q0 51 -33 81.5t-92 30.5h-162v-234z" />
    <glyph glyph-name="uni1E24" unicode="&#x1e24;" horiz-adv-x="623" 
d="M82 0v660h59v-301h341v301h59v-660h-59v307h-341v-307h-59zM312 -125q-18 0 -29.5 12t-11.5 29t11.5 29.5t29.5 12.5t29.5 -12.5t11.5 -29.5t-11.5 -29t-29.5 -12z" />
    <glyph glyph-name="uni1E25" unicode="&#x1e25;" horiz-adv-x="480" 
d="M66 0v700h56v-296q21 43 57.5 71.5t91.5 28.5q69 0 109 -47t40 -148v-309h-56v303q0 80 -27.5 115.5t-80.5 35.5q-50 0 -83.5 -32t-50.5 -75v-347h-56zM243 -125q-18 0 -29.5 12t-11.5 29t11.5 29.5t29.5 12.5t29.5 -12.5t11.5 -29.5t-11.5 -29t-29.5 -12z" />
    <glyph glyph-name="uni1E36" unicode="&#x1e36;" horiz-adv-x="467" 
d="M82 0v660h59v-608h298v-52h-357zM261 -125q-18 0 -29.5 12t-11.5 29t11.5 29.5t29.5 12.5t29.5 -12.5t11.5 -29.5t-11.5 -29t-29.5 -12z" />
    <glyph glyph-name="uni1E37" unicode="&#x1e37;" horiz-adv-x="216" 
d="M158 -10q-52 0 -72 28t-20 75v607h56v-602q0 -33 11.5 -46.5t35.5 -13.5h11t12 1v-46q-16 -3 -34 -3zM131 -125q-18 0 -29.5 12t-11.5 29t11.5 29.5t29.5 12.5t29.5 -12.5t11.5 -29.5t-11.5 -29t-29.5 -12z" />
    <glyph glyph-name="Wgrave" unicode="&#x1e80;" horiz-adv-x="781" 
d="M160 0l-140 660h60l124 -609h12l129 589h93l129 -589h12l124 609h58l-141 -660h-94l-129 589h-12l-132 -589h-93zM400 720l-139 124l35 37l134 -129z" />
    <glyph glyph-name="wgrave" unicode="&#x1e81;" horiz-adv-x="689" 
d="M615 496h58l-131 -496h-82l-110 436h-9l-111 -436h-83l-131 496h61l109 -446h9l110 436h83l109 -436h9zM353 575l-113 143l40 30l107 -148z" />
    <glyph glyph-name="Wacute" unicode="&#x1e82;" horiz-adv-x="781" 
d="M160 0l-140 660h60l124 -609h12l129 589h93l129 -589h12l124 609h58l-141 -660h-94l-129 589h-12l-132 -589h-93zM384 720l-30 32l134 129l35 -37z" />
    <glyph glyph-name="wacute" unicode="&#x1e83;" horiz-adv-x="689" 
d="M615 496h58l-131 -496h-82l-110 436h-9l-111 -436h-83l-131 496h61l109 -446h9l110 436h83l109 -436h9zM341 575l-34 25l107 148l40 -30z" />
    <glyph glyph-name="Wdieresis" unicode="&#x1e84;" horiz-adv-x="781" 
d="M160 0l-140 660h60l124 -609h12l129 589h93l129 -589h12l124 609h58l-141 -660h-94l-129 589h-12l-132 -589h-93zM302 730q-18 0 -29.5 12.5t-11.5 29.5t11.5 28.5t29.5 11.5t28.5 -11.5t10.5 -28.5t-10.5 -29.5t-28.5 -12.5zM482 730q-19 0 -29 12.5t-10 29.5t10 28.5
t29 11.5q18 0 29.5 -11.5t11.5 -28.5t-11.5 -29.5t-29.5 -12.5z" />
    <glyph glyph-name="wdieresis" unicode="&#x1e85;" horiz-adv-x="689" 
d="M615 496h58l-131 -496h-82l-110 436h-9l-111 -436h-83l-131 496h61l109 -446h9l110 436h83l109 -436h9zM257 597q-18 0 -28.5 11.5t-10.5 27.5q0 17 10.5 28t28.5 11t28.5 -11t10.5 -28q0 -16 -10.5 -27.5t-28.5 -11.5zM437 597q-18 0 -28.5 11.5t-10.5 27.5
q0 17 10.5 28t28.5 11t28.5 -11t10.5 -28q0 -16 -10.5 -27.5t-28.5 -11.5z" />
    <glyph glyph-name="uni1E9E" unicode="&#x1e9e;" horiz-adv-x="534" 
d="M323 -15q-44 0 -78.5 11.5t-70.5 36.5l25 46q57 -41 123 -41q63 0 98.5 36t35.5 101q0 53 -24 84t-77 47l-90 26v45l136 232h-156q-53 0 -82 -38t-29 -107v-464h-59v464q0 93 44.5 144.5t124.5 51.5h222v-50l-142 -236l55 -16q68 -19 102 -63.5t34 -116.5
q0 -89 -51.5 -141t-140.5 -52z" />
    <glyph glyph-name="Ygrave" unicode="&#x1ef2;" horiz-adv-x="494" 
d="M216 0v269l-208 391h66l171 -328h10l167 328h64l-209 -393v-267h-61zM256 720l-139 124l35 37l134 -129z" />
    <glyph glyph-name="ygrave" unicode="&#x1ef3;" horiz-adv-x="424" 
d="M135 -190l62 190h-28l-159 496h61l137 -447h9l139 447h58l-222 -686h-57zM220 575l-113 143l40 30l107 -148z" />
    <glyph glyph-name="uni2000" unicode="&#x2000;" horiz-adv-x="500" 
 />
    <glyph glyph-name="uni2001" unicode="&#x2001;" horiz-adv-x="1000" 
 />
    <glyph glyph-name="uni2002" unicode="&#x2002;" horiz-adv-x="450" 
 />
    <glyph glyph-name="uni2003" unicode="&#x2003;" horiz-adv-x="900" 
 />
    <glyph glyph-name="uni2004" unicode="&#x2004;" horiz-adv-x="300" 
 />
    <glyph glyph-name="uni2005" unicode="&#x2005;" horiz-adv-x="250" 
 />
    <glyph glyph-name="uni2006" unicode="&#x2006;" horiz-adv-x="150" 
 />
    <glyph glyph-name="uni2007" unicode="&#x2007;" 
 />
    <glyph glyph-name="uni2008" unicode="&#x2008;" horiz-adv-x="196" 
 />
    <glyph glyph-name="uni2009" unicode="&#x2009;" horiz-adv-x="180" 
 />
    <glyph glyph-name="uni200A" unicode="&#x200a;" horiz-adv-x="56" 
 />
    <glyph glyph-name="uni200B" unicode="&#x200b;" horiz-adv-x="0" 
 />
    <glyph glyph-name="uni2010" unicode="&#x2010;" horiz-adv-x="362" 
d="M44 281v55h274v-55h-274z" />
    <glyph glyph-name="uni2011" unicode="&#x2011;" horiz-adv-x="362" 
d="M44 281v55h274v-55h-274z" />
    <glyph glyph-name="figuredash" unicode="&#x2012;" 
d="M0 286v50h543v-50h-543z" />
    <glyph glyph-name="endash" unicode="&#x2013;" horiz-adv-x="450" 
d="M0 286v50h450v-50h-450z" />
    <glyph glyph-name="emdash" unicode="&#x2014;" horiz-adv-x="900" 
d="M0 286v50h900v-50h-900z" />
    <glyph glyph-name="uni2015" unicode="&#x2015;" horiz-adv-x="900" 
d="M0 286v50h900v-50h-900z" />
    <glyph glyph-name="quoteleft" unicode="&#x2018;" horiz-adv-x="172" 
d="M79 508q-20 0 -31.5 13.5t-11.5 36.5q0 32 22 71.5t57 70.5l23 -25q-43 -42 -56 -80q17 -1 28.5 -13t11.5 -30q0 -19 -12 -31.5t-31 -12.5z" />
    <glyph glyph-name="quoteright" unicode="&#x2019;" horiz-adv-x="172" 
d="M57 508l-23 25q43 42 56 80q-17 1 -28.5 13t-11.5 30q0 20 12 32t31 12q20 0 31.5 -13.5t11.5 -36.5q0 -31 -22 -71t-57 -71z" />
    <glyph glyph-name="quotesinglbase" unicode="&#x201a;" horiz-adv-x="172" 
d="M57 -110l-23 25q43 42 56 80q-17 1 -28.5 13t-11.5 30q0 20 12 32t31 12q20 0 31.5 -13.5t11.5 -36.5q0 -31 -22 -71t-57 -71z" />
    <glyph glyph-name="quotedblleft" unicode="&#x201c;" horiz-adv-x="310" 
d="M79 508q-20 0 -31.5 13.5t-11.5 36.5q0 32 22 71.5t57 70.5l23 -25q-43 -42 -56 -80q17 -1 28.5 -13t11.5 -30q0 -19 -12 -31.5t-31 -12.5zM217 508q-20 0 -31.5 13.5t-11.5 36.5q0 32 22 71.5t57 70.5l23 -25q-43 -42 -56 -80q17 -1 28.5 -13t11.5 -30q0 -19 -12 -31.5
t-31 -12.5z" />
    <glyph glyph-name="quotedblright" unicode="&#x201d;" horiz-adv-x="310" 
d="M57 508l-23 25q43 42 56 80q-17 1 -28.5 13t-11.5 30q0 20 12 32t31 12q20 0 31.5 -13.5t11.5 -36.5q0 -31 -22 -71t-57 -71zM195 508l-23 25q43 42 56 80q-17 1 -28.5 13t-11.5 30q0 20 12 32t31 12q20 0 31.5 -13.5t11.5 -36.5q0 -31 -22 -71t-57 -71z" />
    <glyph glyph-name="quotedblbase" unicode="&#x201e;" horiz-adv-x="310" 
d="M57 -110l-23 25q43 42 56 80q-17 1 -28.5 13t-11.5 30q0 20 12 32t31 12q20 0 31.5 -13.5t11.5 -36.5q0 -31 -22 -71t-57 -71zM195 -110l-23 25q43 42 56 80q-17 1 -28.5 13t-11.5 30q0 20 12 32t31 12q20 0 31.5 -13.5t11.5 -36.5q0 -31 -22 -71t-57 -71z" />
    <glyph glyph-name="dagger" unicode="&#x2020;" horiz-adv-x="498" 
d="M220 -189v614h-172v51h172v246h58v-246h172v-51h-172v-614h-58z" />
    <glyph glyph-name="daggerdbl" unicode="&#x2021;" horiz-adv-x="498" 
d="M48 57v51h172v317h-172v51h172v246h58v-246h172v-51h-172v-317h172v-51h-172v-246h-58v246h-172z" />
    <glyph glyph-name="bullet" unicode="&#x2022;" horiz-adv-x="430" 
d="M215 213q-45 0 -77.5 32.5t-32.5 84.5t32.5 84.5t77.5 32.5t77.5 -32.5t32.5 -84.5t-32.5 -84.5t-77.5 -32.5z" />
    <glyph glyph-name="ellipsis" unicode="&#x2026;" horiz-adv-x="588" 
d="M98 -10q-20 0 -32.5 13.5t-12.5 32.5t12.5 32.5t32.5 13.5t32.5 -13.5t12.5 -32.5t-12.5 -32.5t-32.5 -13.5zM294 -10q-20 0 -32.5 13.5t-12.5 32.5t12.5 32.5t32.5 13.5t32.5 -13.5t12.5 -32.5t-12.5 -32.5t-32.5 -13.5zM490 -10q-20 0 -32.5 13.5t-12.5 32.5t12.5 32.5
t32.5 13.5t32.5 -13.5t12.5 -32.5t-12.5 -32.5t-32.5 -13.5z" />
    <glyph glyph-name="perthousand" unicode="&#x2030;" horiz-adv-x="950" 
d="M123 0l354 660h56l-354 -660h-56zM147 327q-55 0 -87 41t-32 114v29q0 73 32 114t87 41q56 0 87.5 -41t31.5 -114v-29q0 -73 -31.5 -114t-87.5 -41zM147 371q32 0 50.5 28.5t18.5 84.5v25q0 56 -19.5 84.5t-49.5 28.5q-31 0 -50 -28.5t-19 -84.5v-25q0 -56 19 -84.5
t50 -28.5zM509 -9q-55 0 -87 41t-32 114v29q0 73 32 114t87 41q56 0 87.5 -41t31.5 -114v-29q0 -73 -31.5 -114t-87.5 -41zM509 35q32 0 50.5 28.5t18.5 84.5v25q0 56 -19.5 84.5t-49.5 28.5q-31 0 -50 -28.5t-19 -84.5v-25q0 -56 19 -84.5t50 -28.5zM803 -9q-55 0 -87 41
t-32 114v29q0 73 32 114t87 41q56 0 87.5 -41t31.5 -114v-29q0 -73 -31.5 -114t-87.5 -41zM803 35q32 0 50.5 28.5t18.5 84.5v25q0 56 -19.5 84.5t-49.5 28.5q-31 0 -50 -28.5t-19 -84.5v-25q0 -56 19 -84.5t50 -28.5z" />
    <glyph glyph-name="minute" unicode="&#x2032;" horiz-adv-x="190" 
d="M60 508l13 209h57l-25 -209h-45z" />
    <glyph glyph-name="second" unicode="&#x2033;" horiz-adv-x="340" 
d="M60 508l13 209h57l-25 -209h-45zM210 508l13 209h57l-25 -209h-45z" />
    <glyph glyph-name="guilsinglleft" unicode="&#x2039;" horiz-adv-x="274" 
d="M199 71l-159 160v60l159 160l35 -35l-133 -149v-12l133 -149z" />
    <glyph glyph-name="guilsinglright" unicode="&#x203a;" horiz-adv-x="274" 
d="M75 451l159 -160v-60l-159 -160l-35 35l133 149v12l-133 149z" />
    <glyph glyph-name="fraction" unicode="&#x2044;" horiz-adv-x="68" 
d="M-171 0l354 660h56l-354 -660h-56z" />
    <glyph glyph-name="uni2052" unicode="&#x2052;" 
d="M115 0l255 700h58l-255 -700h-58zM398 -8q-20 0 -32.5 13.5t-12.5 32.5t12.5 32.5t32.5 13.5t32.5 -13.5t12.5 -32.5t-12.5 -32.5t-32.5 -13.5zM145 616q-20 0 -32.5 13.5t-12.5 32.5t12.5 32.5t32.5 13.5t32.5 -13.5t12.5 -32.5t-12.5 -32.5t-32.5 -13.5z" />
    <glyph glyph-name="uni2070" unicode="&#x2070;" horiz-adv-x="294" 
d="M147 430q-55 0 -87 41t-32 114v29q0 73 32 114t87 41q56 0 87.5 -41t31.5 -114v-29q0 -73 -31.5 -114t-87.5 -41zM147 474q32 0 50.5 28.5t18.5 84.5v25q0 56 -19.5 84.5t-49.5 28.5q-31 0 -50 -28.5t-19 -84.5v-25q0 -56 19 -84.5t50 -28.5z" />
    <glyph glyph-name="uni2074" unicode="&#x2074;" horiz-adv-x="264" 
d="M150 439v75h-141v41l124 205h66v-202h42v-44h-42v-75h-49zM144 706l-89 -148h95v148h-6z" />
    <glyph glyph-name="uni2075" unicode="&#x2075;" horiz-adv-x="274" 
d="M126 430q-63 0 -100 40l25 34q31 -31 74 -31q28 0 43.5 15t15.5 43q0 59 -62 59h-70v170h170v-43h-127v-84h41q47 0 73 -26.5t26 -72.5q0 -47 -29.5 -75.5t-79.5 -28.5z" />
    <glyph glyph-name="uni2076" unicode="&#x2076;" horiz-adv-x="278" 
d="M142 430q-49 0 -78 28.5t-29 81.5q0 32 12.5 64t40.5 78l49 78h55l-61 -98q-17 -28 -27 -48q11 13 26 21t34 8q35 0 59.5 -28t24.5 -75q0 -49 -28 -79.5t-78 -30.5zM86 540q0 -34 15.5 -50.5t40.5 -16.5q27 0 41.5 19.5t14.5 47.5q0 30 -15 47t-41 17q-13 0 -26 -5
t-24 -17q-6 -20 -6 -42z" />
    <glyph glyph-name="uni2077" unicode="&#x2077;" horiz-adv-x="247" 
d="M51 439l117 275h-146v46h198v-42l-112 -279h-57z" />
    <glyph glyph-name="uni2078" unicode="&#x2078;" horiz-adv-x="290" 
d="M145 430q-49 0 -78.5 26t-29.5 69q0 34 16 53.5t41 29.5q-19 6 -33.5 24.5t-14.5 47.5q0 41 27 65t72 24t72 -24t27 -65q0 -29 -14.5 -47.5t-34.5 -24.5q25 -10 41.5 -29.5t16.5 -53.5q0 -43 -29 -69t-79 -26zM145 627q23 0 37.5 12.5t14.5 37.5t-14.5 38t-37.5 13
t-37.5 -13t-14.5 -38t14.5 -37.5t37.5 -12.5zM145 472q26 0 41.5 14t15.5 42q0 27 -15.5 41t-41.5 14t-41.5 -14t-15.5 -41q0 -28 15.5 -42t41.5 -14z" />
    <glyph glyph-name="uni2079" unicode="&#x2079;" horiz-adv-x="278" 
d="M85 439l62 97q18 28 28 50q-11 -14 -26.5 -22t-35.5 -8q-35 0 -59.5 27.5t-24.5 74.5q0 49 29 80t79 31q47 0 76 -28.5t29 -82.5q0 -31 -11 -64t-40 -79l-49 -76h-57zM80 658q0 -30 14.5 -47.5t42.5 -17.5q13 0 25.5 5.5t23.5 17.5q6 20 6 42q0 34 -15 51t-40 17
q-28 0 -42.5 -20t-14.5 -48z" />
    <glyph glyph-name="uni2080" unicode="&#x2080;" horiz-adv-x="294" 
d="M147 -109q-55 0 -87 41t-32 114v29q0 73 32 114t87 41q56 0 87.5 -41t31.5 -114v-29q0 -73 -31.5 -114t-87.5 -41zM147 -65q32 0 50.5 28.5t18.5 84.5v25q0 56 -19.5 84.5t-49.5 28.5q-31 0 -50 -28.5t-19 -84.5v-25q0 -56 19 -84.5t50 -28.5z" />
    <glyph glyph-name="uni2081" unicode="&#x2081;" horiz-adv-x="190" 
d="M77 -100v278h-57v43h108v-321h-51z" />
    <glyph glyph-name="uni2082" unicode="&#x2082;" horiz-adv-x="255" 
d="M23 -100v41l108 124q33 37 33 68q0 27 -14 40.5t-34 13.5t-34.5 -10.5t-26.5 -29.5l-32 29q16 24 39 39t58 15q41 0 67.5 -24t26.5 -68q0 -29 -12.5 -52.5t-39.5 -54.5l-77 -88h136v-43h-198z" />
    <glyph glyph-name="uni2083" unicode="&#x2083;" horiz-adv-x="275" 
d="M123 -109q-63 0 -101 41l26 34q29 -32 75 -32q29 0 44.5 15t15.5 42q0 55 -64 55h-37v36l81 96h-121v43h179v-41l-81 -93q43 0 69 -26t26 -70q0 -45 -30.5 -72.5t-81.5 -27.5z" />
    <glyph glyph-name="uni2084" unicode="&#x2084;" horiz-adv-x="264" 
d="M150 -100v75h-141v41l124 205h66v-202h42v-44h-42v-75h-49zM144 167l-89 -148h95v148h-6z" />
    <glyph glyph-name="uni2085" unicode="&#x2085;" horiz-adv-x="274" 
d="M126 -109q-63 0 -100 40l25 34q31 -31 74 -31q28 0 43.5 15t15.5 43q0 59 -62 59h-70v170h170v-43h-127v-84h41q47 0 73 -26.5t26 -72.5q0 -47 -29.5 -75.5t-79.5 -28.5z" />
    <glyph glyph-name="uni2086" unicode="&#x2086;" horiz-adv-x="278" 
d="M142 -109q-49 0 -78 28.5t-29 81.5q0 32 12.5 64t40.5 78l49 78h55l-61 -98q-17 -28 -27 -48q11 13 26 21t34 8q35 0 59.5 -28t24.5 -75q0 -49 -28 -79.5t-78 -30.5zM86 1q0 -34 15.5 -50.5t40.5 -16.5q27 0 41.5 19.5t14.5 47.5q0 30 -15 47t-41 17q-13 0 -26 -5
t-24 -17q-6 -20 -6 -42z" />
    <glyph glyph-name="uni2087" unicode="&#x2087;" horiz-adv-x="247" 
d="M51 -100l117 275h-146v46h198v-42l-112 -279h-57z" />
    <glyph glyph-name="uni2088" unicode="&#x2088;" horiz-adv-x="290" 
d="M145 -109q-49 0 -78.5 26t-29.5 69q0 34 16 53.5t41 29.5q-19 6 -33.5 24.5t-14.5 47.5q0 41 27 65t72 24t72 -24t27 -65q0 -29 -14.5 -47.5t-34.5 -24.5q25 -10 41.5 -29.5t16.5 -53.5q0 -43 -29 -69t-79 -26zM145 88q23 0 37.5 12.5t14.5 37.5t-14.5 38t-37.5 13
t-37.5 -13t-14.5 -38t14.5 -37.5t37.5 -12.5zM145 -67q26 0 41.5 14t15.5 42q0 27 -15.5 41t-41.5 14t-41.5 -14t-15.5 -41q0 -28 15.5 -42t41.5 -14z" />
    <glyph glyph-name="uni2089" unicode="&#x2089;" horiz-adv-x="278" 
d="M85 -100l62 97q18 28 28 50q-11 -14 -26.5 -22t-35.5 -8q-35 0 -59.5 27.5t-24.5 74.5q0 49 29 80t79 31q47 0 76 -28.5t29 -82.5q0 -31 -11 -64t-40 -79l-49 -76h-57zM80 119q0 -30 14.5 -47.5t42.5 -17.5q13 0 25.5 5.5t23.5 17.5q6 20 6 42q0 34 -15 51t-40 17
q-28 0 -42.5 -20t-14.5 -48z" />
    <glyph glyph-name="colonmonetary" unicode="&#x20a1;" 
d="M209 -70l-46 10l22 101q-57 33 -88.5 99.5t-31.5 152.5v66q0 81 28.5 143.5t80.5 98.5t122 36q9 0 17 -1l18 82l46 -10l-17 -79q74 -20 130 -85l-39 -36q-47 52 -102 69l-109 -503q26 -10 57 -10q42 0 82 19.5t77 59.5l37 -38q-41 -46 -91 -69.5t-105 -23.5q-36 0 -68 10
zM124 297q0 -67 19 -118t54 -80l105 486h-5q-52 0 -91 -28.5t-60.5 -80t-21.5 -121.5v-58z" />
    <glyph glyph-name="uni20A6" unicode="&#x20a6;" horiz-adv-x="740" 
d="M160 0v234h-88v49h88v94h-88v49h88v234h105l93 -234h165v234h56v-234h89v-49h-89v-94h89v-49h-89v-234h-105l-92 234h-166v-234h-56zM216 607v-181h90l-71 181h-19zM216 283h147l-37 94h-110v-94zM415 283h108v94h-146zM506 53h17v181h-89z" />
    <glyph glyph-name="uni20A9" unicode="&#x20a9;" horiz-adv-x="760" 
d="M167 0l-36 234h-115v49h107l-14 94h-93v49h85l-36 234h59l34 -234h135l40 214h94l40 -214h135l34 234h57l-36 -234h87v-49h-95l-14 -94h109v-49h-117l-36 -234h-95l-44 234h-146l-44 -234h-95zM373 589l-31 -163h74l-31 163h-12zM178 283h88l18 94h-119zM315 283h128
l-18 94h-92zM494 283h88l13 94h-119zM212 51h11l34 183h-71zM537 51h11l26 183h-71z" />
    <glyph glyph-name="uni20AA" unicode="&#x20aa;" horiz-adv-x="740" 
d="M441 0q-84 0 -131 54t-47 159v237h58v-237q0 -82 31.5 -122.5t88.5 -40.5h134v610h58v-660h-192zM107 0v660h192q84 0 131 -54t47 -160v-237h-58v237q0 83 -31.5 123.5t-88.5 40.5h-134v-610h-58z" />
    <glyph glyph-name="dong" unicode="&#x20ab;" 
d="M239 -15q-46 0 -83.5 26.5t-59.5 75.5t-22 116v40q0 67 22 116t59 75.5t84 26.5q44 0 78.5 -23.5t54.5 -64.5v166h-145v50h145v71h56v-71h60v-50h-60v-539h-53v80q-19 -44 -54.5 -69.5t-81.5 -25.5zM130 206q0 -87 34.5 -128.5t84.5 -41.5q42 0 74.5 26t48.5 73v176
q-16 47 -49.5 73t-73.5 26q-50 0 -84.5 -42t-34.5 -128v-34zM92 -122v52h336v-52h-336z" />
    <glyph glyph-name="Euro" unicode="&#x20ac;" 
d="M42 235v52h62v10v66v14h-62v52h66q9 74 38.5 129.5t75.5 86t106 30.5q57 0 101 -27t78 -75l-39 -36q-28 44 -63 64.5t-76 20.5q-64 0 -107 -51t-56 -142h216v-52h-220v-18v-58v-14h220v-52h-216q12 -93 55 -145t108 -52q81 0 139 85l39 -36q-33 -48 -77.5 -75t-101.5 -27
q-60 0 -106.5 31t-76 87.5t-37.5 131.5h-66z" />
    <glyph glyph-name="uni20AD" unicode="&#x20ad;" horiz-adv-x="640" 
d="M147 0v311h-63v49h63v300h58v-300h68l208 300h67l-207 -300h181v-49h-181l215 -311h-74l-214 311h-63v-311h-58z" />
    <glyph glyph-name="uni20AE" unicode="&#x20ae;" 
d="M83 156v50l159 42v94l-159 -42v50l159 42v217h-187v51h432v-51h-187v-201l161 43v-50l-161 -43v-94l161 43v-50l-161 -43v-214h-58v198z" />
    <glyph glyph-name="uni20B1" unicode="&#x20b1;" horiz-adv-x="640" 
d="M123 0v442h-62v50h62v168h197q82 0 134 -45.5t58 -122.5h68v-50h-68q-6 -78 -58.5 -123.5t-134.5 -45.5h-138v-273h-58zM181 610v-118h272q-5 57 -40 87.5t-93 30.5h-139zM319 323q59 0 94.5 31t39.5 88h-272v-119h138z" />
    <glyph glyph-name="uni20B2" unicode="&#x20b2;" 
d="M250 -70v84q-62 8 -107 45.5t-69 98t-24 136.5v66q0 74 24.5 133t69.5 96.5t107 45.5v85h52v-84q47 -4 91.5 -27t80.5 -65l-39 -36q-69 77 -153 77q-52 0 -91.5 -28.5t-61 -80t-21.5 -120.5v-58q0 -105 45.5 -169.5t127.5 -64.5q44 0 80.5 22t58 64.5t21.5 101.5v46h-156
v50h214v-96q0 -66 -25.5 -118t-70 -84t-101.5 -37v-83h-53z" />
    <glyph glyph-name="uni20B4" unicode="&#x20b4;" horiz-adv-x="524" 
d="M56 233v51h78q23 22 53 38t60 30q13 6 26.5 12.5t25.5 13.5h-243v51h307q10 14 16 30t6 36q0 58 -32.5 91.5t-88.5 33.5q-36 0 -67.5 -15.5t-66.5 -50.5l-32 45q40 40 80 58t89 18q83 0 131 -48.5t48 -131.5q0 -36 -16 -66h44v-51h-88q-21 -17 -46 -31t-51 -27
q-17 -9 -34 -17.5t-32 -18.5h251v-51h-308q-10 -13 -15 -28.5t-5 -34.5q0 -62 35 -96t99 -34q41 0 77 16t73 51l31 -46q-43 -40 -87 -58t-97 -18q-89 0 -141 50t-52 135q0 35 12 63h-40z" />
    <glyph glyph-name="uni20B5" unicode="&#x20b5;" 
d="M266 -70v84q-62 8 -107 45.5t-69.5 97.5t-24.5 136v66q0 74 24.5 133.5t69.5 97t107 45.5v85h53v-84q47 -4 91 -27t80 -65l-39 -36q-69 77 -154 77q-52 0 -91 -28.5t-60.5 -80t-21.5 -121.5v-58q0 -104 45.5 -168.5t127.5 -64.5q85 0 158 76l38 -35q-37 -42 -81.5 -65
t-92.5 -27v-83h-53z" />
    <glyph glyph-name="uni20B8" unicode="&#x20b8;" 
d="M55 610v50h433v-50h-433zM242 0v469h-187v50h433v-50h-187v-469h-59z" />
    <glyph glyph-name="uni20B9" unicode="&#x20b9;" 
d="M336 0l-253 283v50h107q57 0 90.5 29.5t38.5 83.5h-236v52h236q-5 52 -37.5 81t-85.5 29h-113v52h386v-52h-155q58 -36 64 -110h91v-52h-91q-5 -75 -58 -119.5t-130 -44.5h-31l251 -282h-74z" />
    <glyph glyph-name="uni20BA" unicode="&#x20ba;" 
d="M134 0v225l-85 -39v51l85 39v91l-85 -39v51l85 39v242h58v-215l162 75v-51l-162 -75v-91l162 75v-51l-162 -75v-201h87q86 0 128 60t42 171h55q0 -135 -55 -208.5t-170 -73.5h-145z" />
    <glyph glyph-name="uni20BC" unicode="&#x20bc;" horiz-adv-x="740" 
d="M88 0v196q0 131 63.5 212.5t189.5 90.5v176h58v-176q126 -9 189 -90.5t63 -212.5v-196h-58v192q0 113 -48.5 179t-145.5 75v-446h-58v446q-97 -9 -146 -75t-49 -179v-192h-58z" />
    <glyph glyph-name="uni20BD" unicode="&#x20bd;" 
d="M113 0v132h-74v51h74v89h-74v51h74v337h196q88 0 141 -50t53 -134v-20q0 -84 -53 -134t-141 -50h-137v-89h174v-51h-174v-132h-59zM309 609h-137v-286h137q65 0 100.5 35t35.5 100v16q0 65 -35.5 100t-100.5 35z" />
    <glyph glyph-name="uni2102" unicode="&#x2102;" horiz-adv-x="590" 
d="M323 -15q-87 0 -150 38.5t-97 109.5t-34 169v56q0 98 34 169t97 109.5t150 38.5q141 0 222 -102l-55 -55q-34 40 -75.5 61.5t-91.5 21.5q-15 0 -30 -2v-538q15 -2 30 -2q49 0 93.5 22.5t78.5 61.5l54 -56q-39 -49 -97 -75.5t-129 -26.5zM126 306q0 -75 24.5 -130.5
t67.5 -85.5v480q-43 -30 -67.5 -85.5t-24.5 -130.5v-48z" />
    <glyph glyph-name="uni2105" unicode="&#x2105;" horiz-adv-x="740" 
d="M169 0l361 675h53l-360 -675h-54zM185 330q-57 0 -92 42t-35 111v30q0 69 35 111t92 42q28 0 53 -11.5t46 -38.5l-30 -33q-29 36 -67 36q-37 0 -57 -30t-20 -79v-24q0 -49 20 -79t57 -30q38 0 67 36l30 -33q-19 -25 -44.5 -37.5t-54.5 -12.5zM559 -6q-58 0 -91 41.5
t-33 111.5v30q0 71 33 112t91 41q57 0 90 -41t33 -112v-30q0 -71 -33 -112t-90 -41zM559 41q32 0 51 28t19 79v28q0 51 -19 79t-51 28q-33 0 -52.5 -27.5t-19.5 -79.5v-28q0 -52 19.5 -79.5t52.5 -27.5z" />
    <glyph glyph-name="Ifraktur" unicode="&#x2111;" horiz-adv-x="590" 
d="M309 -15q-41 0 -84 10.5t-81 29t-65 40.5l46 74q50 -35 96.5 -54.5t83.5 -19.5q33 0 61 13.5t45 36t17 49.5q0 42 -19 118q-13 54 -19 92.5t-6 70.5t5 62t15 52q-9 -3 -22 -3q-14 0 -29 4t-46 16q-26 11 -42.5 14.5t-31.5 3.5q-34 0 -54.5 -20t-20.5 -53q0 -31 19 -61
t53 -50l-42 -61q-55 29 -86.5 77.5t-31.5 102.5q0 65 43 105.5t110 40.5q20 0 42 -5t54 -17q29 -10 46 -14.5t30 -4.5q33 0 42 22l8 19l72 -27q-22 -70 -32 -117t-10 -85q0 -30 6 -65t20 -96q9 -38 13.5 -67.5t4.5 -54.5q0 -52 -27 -92t-74.5 -63t-108.5 -23z" />
    <glyph glyph-name="uni2113" unicode="&#x2113;" 
d="M317 -14q-75 0 -118 38.5t-52 125.5q-30 -13 -63 -24l-14 47q40 15 75 30v294q0 107 49.5 164t125.5 57q75 0 122 -53.5t47 -142.5q0 -212 -285 -347q3 -73 29.5 -105t83.5 -32q41 0 68 12.5t51 36.5l35 -38q-31 -31 -68.5 -47t-85.5 -16zM203 496v-265
q116 59 171.5 130.5t55.5 157.5q0 66 -29 106.5t-81 40.5t-84.5 -43.5t-32.5 -126.5z" />
    <glyph glyph-name="uni2115" unicode="&#x2115;" horiz-adv-x="690" 
d="M66 0v660h128l334 -378h12v378h84v-660h-128l-334 378h-12v-378h-84zM528 70h12v93l-378 427h-12v-93z" />
    <glyph glyph-name="uni2116" unicode="&#x2116;" horiz-adv-x="950" 
d="M760 349q-59 0 -91 40t-32 107v23q0 67 32 107t91 40q58 0 91 -40t33 -107v-23q0 -67 -33 -107t-91 -40zM82 0v660h96l299 -603h10v603h57v-660h-96l-299 603h-10v-603h-57zM760 398q34 0 52.5 26t18.5 73v21q0 47 -18.5 73t-52.5 26q-33 0 -51.5 -26t-18.5 -73v-21
q0 -47 18.5 -73t51.5 -26zM628 243v47h249v-47h-249z" />
    <glyph glyph-name="uni2117" unicode="&#x2117;" horiz-adv-x="711" 
d="M355 -15q-90 0 -160.5 41t-111 118t-40.5 186t40.5 186t111 118t160.5 41t160.5 -41t111 -118t40.5 -186t-40.5 -186t-111 -118t-160.5 -41zM355 34q116 0 187 76t71 220t-71 220t-187 76t-187 -76t-71 -220q0 -96 32 -162t90.5 -100t135.5 -34zM252 167v325h130
q50 0 79.5 -26.5t29.5 -71.5v-10q0 -45 -29 -71t-80 -26h-77v-120h-53zM383 448h-78v-117h78q29 0 42 16t13 38v8q0 23 -15 39t-40 16z" />
    <glyph glyph-name="uni211A" unicode="&#x211a;" horiz-adv-x="690" 
d="M587 -94l-320 87q-96 26 -150 107.5t-54 200.5v58q0 98 34.5 168.5t97.5 109t150 38.5t150.5 -38.5t97.5 -109t34 -168.5v-58q0 -108 -46 -181t-135 -105l161 -42zM345 58q29 0 54 7v529q-25 7 -54 7t-54 -7v-529q25 -7 54 -7zM147 305q0 -67 19.5 -118.5t54.5 -83.5v453
q-35 -31 -54.5 -82.5t-19.5 -118.5v-50zM543 355q0 67 -19.5 118.5t-54.5 82.5v-453q35 32 54.5 83.5t19.5 118.5v50z" />
    <glyph glyph-name="Rfraktur" unicode="&#x211c;" horiz-adv-x="790" 
d="M203 -15q-25 0 -51.5 3.5t-48.5 8.5l11 75q20 -3 39 -5t31 -2q88 0 88 88v257q0 80 -25 124t-69 44q-34 0 -59.5 -24t-25.5 -58q0 -56 44 -101l17 -18q57 -60 57 -108q0 -23 -13.5 -51t-36.5 -57l-58 40q25 38 25 66q0 22 -10.5 41t-36.5 42l-14 13q-33 31 -47.5 62.5
t-14.5 71.5q0 46 22 82.5t59.5 58.5t83.5 22q61 0 106.5 -38.5t66.5 -102.5l140 141q100 0 159.5 -44.5t59.5 -116.5q0 -47 -25 -91.5t-70.5 -82t-104.5 -63.5q51 -63 82 -100t48 -55t26 -23.5t16 -5.5q11 0 28 10t45 35l38 -43q-19 -21 -41.5 -43t-45.5 -37t-43 -15
q-23 0 -55.5 23.5t-78 78t-109.5 145.5v72q94 35 144 85.5t50 102.5q0 41 -28 61.5t-73 20.5l-146 -145v-285q0 -76 -40.5 -117.5t-115.5 -41.5z" />
    <glyph glyph-name="uni211D" unicode="&#x211d;" horiz-adv-x="690" 
d="M52 0v660h277q102 0 162.5 -51.5t60.5 -136.5v-20q0 -53 -23.5 -93t-66.5 -64l176 -295h-208l-155 265h-19v-265h-204zM131 586v-512h65v512h-65zM329 586h-73v-247h73q9 0 18 1v245q-9 1 -18 1zM472 472q0 71 -65 100v-219q31 13 48 38.5t17 60.5v20zM451 74h63
l-117 197q-30 -6 -59 -6z" />
    <glyph glyph-name="uni2120" unicode="&#x2120;" horiz-adv-x="740" 
d="M173 331q-28 0 -57 10.5t-54 29.5l24 41q19 -15 39 -25t44 -10t41 11.5t17 36.5q0 17 -9.5 29.5t-35.5 19.5l-35 9q-41 11 -58.5 35.5t-17.5 55.5q0 44 29.5 69.5t75.5 25.5q26 0 48 -8.5t48 -28.5l-27 -36q-16 12 -35 19.5t-37 7.5q-24 0 -39 -12t-15 -32q0 -15 10 -29
t32 -19l35 -9q38 -10 59.5 -35.5t21.5 -61.5q0 -43 -29.5 -68.5t-74.5 -25.5zM330 339v321h78l72 -212h6l71 212h74v-321h-47v259h-7l-71 -213h-50l-71 213h-7v-259h-48z" />
    <glyph glyph-name="trademark" unicode="&#x2122;" horiz-adv-x="729" 
d="M138 339v276h-91v45h233v-45h-92v-276h-50zM326 339v321h79l71 -212h6l71 212h76v-321h-49v259h-7l-72 -213h-49l-70 213h-8v-259h-48z" />
    <glyph glyph-name="uni2124" unicode="&#x2124;" horiz-adv-x="590" 
d="M59 0v72l236 494h-228v76h464v-72l-237 -494h229v-76h-464zM138 76h78l235 490h-78z" />
    <glyph glyph-name="Omega" unicode="&#x2126;" horiz-adv-x="640" 
d="M508 334v25q0 129 -49.5 196t-138.5 67t-138.5 -67t-49.5 -196v-25q0 -91 37.5 -166.5t101.5 -121.5v-46h-214v50h148q-64 49 -98 122.5t-34 161.5v29q0 145 64.5 228.5t182.5 83.5t182.5 -83.5t64.5 -228.5v-29q0 -88 -34 -161.5t-98 -122.5h148v-50h-214v46
q64 46 101.5 121.5t37.5 166.5z" />
    <glyph glyph-name="estimated" unicode="&#x212e;" horiz-adv-x="887" 
d="M445 -10q-85 0 -156.5 26t-124.5 72.5t-82.5 109.5t-29.5 138t29 138.5t82 110t125 72.5t157 26q115 0 203 -46.5t137.5 -128.5t49.5 -190h-620v-185q88 -101 230 -101q146 0 237 103h99q-58 -74 -140 -109.5t-196 -35.5zM215 361h460v170q-78 110 -230 110t-230 -110
v-170z" />
    <glyph glyph-name="aleph" unicode="&#x2135;" horiz-adv-x="700" 
d="M217 -15q-66 0 -103 37.5t-37 102.5q0 72 44 153.5t119 150.5l-168 231h74l283 -389q61 62 97 133t36 129q0 44 -21 67t-60 23h-15t-6 -1v51q10 2 22 2q66 0 103 -37.5t37 -102.5q0 -72 -44 -153.5t-119 -150.5l168 -231h-74l-283 389q-61 -62 -97 -133t-36 -129
q0 -43 21 -66.5t60 -23.5h15t6 1v-51q-10 -2 -22 -2z" />
    <glyph glyph-name="arrowleft" unicode="&#x2190;" horiz-adv-x="880" 
d="M294 87l-244 243l244 243l55 -55l-151 -149h632v-78h-632l151 -149z" />
    <glyph glyph-name="arrowup" unicode="&#x2191;" horiz-adv-x="880" 
d="M401 -61v631l-149 -151l-55 56l243 243l243 -243l-55 -56l-149 151v-631h-78z" />
    <glyph glyph-name="arrowright" unicode="&#x2192;" horiz-adv-x="880" 
d="M586 87l-55 55l151 149h-632v78h632l-151 149l55 55l244 -243z" />
    <glyph glyph-name="arrowdown" unicode="&#x2193;" horiz-adv-x="880" 
d="M440 -58l-243 243l55 56l149 -151v631h78v-631l149 151l55 -56z" />
    <glyph glyph-name="arrowupdn" unicode="&#x2195;" horiz-adv-x="590" 
d="M295 -58l-243 243l55 56l149 -151v480l-149 -151l-55 56l243 243l243 -243l-55 -56l-149 151v-480l149 151l55 -56z" />
    <glyph glyph-name="uni21B0" unicode="&#x21b0;" horiz-adv-x="880" 
d="M790 76h-78v117q0 54 -26.5 98.5t-70.5 70.5t-98 26h-299l150 -149l-55 -55l-243 243l243 243l55 -55l-150 -149h299q56 0 105.5 -21.5t87 -59t59 -87t21.5 -105.5v-117z" />
    <glyph glyph-name="uni21B1" unicode="&#x21b1;" horiz-adv-x="880" 
d="M90 76v117q0 56 21.5 105.5t59 87t87 59t105.5 21.5h299l-150 149l55 55l243 -243l-243 -243l-55 55l150 149h-299q-53 0 -97.5 -26t-71 -70.5t-26.5 -98.5v-117h-78z" />
    <glyph glyph-name="arrowdblleft" unicode="&#x21d0;" horiz-adv-x="790" 
d="M176 102l-156 228l156 228l60 -40l-51 -75h585v-75h-637l-26 -38l26 -38h637v-75h-585l51 -75z" />
    <glyph glyph-name="arrowdblright" unicode="&#x21d2;" horiz-adv-x="790" 
d="M20 217v75h637l26 38l-26 38h-637v75h585l-51 75l60 40l156 -228l-156 -228l-60 40l51 75h-585z" />
    <glyph glyph-name="arrowdblboth" unicode="&#x21d4;" horiz-adv-x="790" 
d="M166 102l-156 228l156 228l60 -40l-55 -80h448l-55 80l60 40l156 -228l-156 -228l-60 40l55 80h-448l55 -80zM123 292h544l26 38l-26 38h-544l-26 -38z" />
    <glyph glyph-name="universal" unicode="&#x2200;" horiz-adv-x="640" 
d="M273 0l-198 660h63l58 -198h251l58 198h60l-197 -660h-95zM316 51h11l105 360h-221z" />
    <glyph glyph-name="partialdiff" unicode="&#x2202;" 
d="M258 -15q-94 0 -150.5 61.5t-56.5 166.5q0 70 25.5 123.5t70.5 84t105 30.5q54 0 98.5 -25t71.5 -70v49q0 122 -47 191t-125 69q-40 0 -75 -17.5t-64 -45.5l-33 35q35 35 80.5 57.5t97.5 22.5q66 0 117 -38.5t80 -108.5t29 -165v-77q0 -166 -58.5 -254.5t-165.5 -88.5z
M109 215q0 -83 41.5 -130.5t109.5 -47.5q141 0 159 229q-23 64 -65.5 99t-96.5 35q-67 0 -107.5 -51t-40.5 -134z" />
    <glyph glyph-name="existential" unicode="&#x2203;" 
d="M83 0v51h310v261h-274v50h274v247h-301v51h360v-660h-369z" />
    <glyph glyph-name="emptyset" unicode="&#x2205;" horiz-adv-x="740" 
d="M187 -69l-45 26l45 84q-60 42 -94.5 115.5t-34.5 173.5q0 110 40.5 187t111 117.5t160.5 40.5q76 0 139 -30l45 84l44 -26l-45 -84q60 -42 94.5 -115.5t34.5 -173.5q0 -109 -40.5 -186t-111 -118t-160.5 -41q-76 0 -139 29zM112 330q0 -85 26 -147t72 -98l276 517
q-51 24 -116 24q-117 0 -187.5 -75.5t-70.5 -220.5zM370 34q116 0 187 76t71 220q0 86 -25.5 147.5t-72.5 98.5l-276 -518q51 -24 116 -24z" />
    <glyph glyph-name="Delta" unicode="&#x2206;" 
d="M30 0v47l195 613h94l195 -613v-47h-484zM265 609l-177 -559h368l-177 559h-14z" />
    <glyph glyph-name="gradient" unicode="&#x2207;" 
d="M225 0l-195 613v47h484v-47l-195 -613h-94zM265 51h14l177 559h-368z" />
    <glyph glyph-name="element" unicode="&#x2208;" 
d="M317 0q-79 0 -139 32.5t-93 92.5t-33 140v57q0 81 33 140.5t93 92t139 32.5h161v-50h-161q-95 0 -151 -59t-56 -159h368v-50h-368q0 -100 56 -159.5t151 -59.5h161v-50h-161z" />
    <glyph glyph-name="suchthat" unicode="&#x220b;" 
d="M52 0v50h163q95 0 150 59t55 160h-368v50h368q-1 102 -56 160t-149 58h-163v50h161q80 0 139.5 -32.5t92.5 -92t33 -140.5v-57q0 -80 -33 -140t-92.5 -92.5t-139.5 -32.5h-161z" />
    <glyph glyph-name="product" unicode="&#x220f;" horiz-adv-x="640" 
d="M88 -110v879h464v-879h-59v829h-346v-829h-59z" />
    <glyph glyph-name="summation" unicode="&#x2211;" 
d="M40 -110v51l250 385v10l-241 384v50h447v-50h-378l238 -379v-20l-248 -381h399v-50h-467z" />
    <glyph glyph-name="minus" unicode="&#x2212;" 
d="M80 308v49h383v-49h-383z" />
    <glyph glyph-name="uni2215" unicode="&#x2215;" 
d="M61 0l360 675h61l-360 -675h-61z" />
    <glyph glyph-name="uni2218" unicode="&#x2218;" 
d="M271 179q-43 0 -77 20t-54 54t-20 77t20 77t54 54t77 20t77 -20t54 -54t20 -77t-20 -77t-54 -54t-77 -20zM271 226q44 0 71.5 29t27.5 75q0 47 -27.5 75.5t-71.5 28.5t-71.5 -28.5t-27.5 -75.5q0 -46 27.5 -75t71.5 -29z" />
    <glyph glyph-name="radical" unicode="&#x221a;" 
d="M233 0l-111 313h-88v52h124l105 -295l207 681h58l-230 -751h-65z" />
    <glyph glyph-name="proportional" unicode="&#x221d;" horiz-adv-x="790" 
d="M236 127q-53 0 -94 26t-64 72t-23 105q0 60 23 105.5t64 71.5t94 26q123 0 250 -156q126 156 249 156v-52q-50 0 -101.5 -37.5t-111.5 -113.5q60 -76 111.5 -113.5t101.5 -37.5v-52q-62 0 -123.5 38t-126.5 118q-126 -156 -249 -156zM113 330q0 -42 17 -76.5t46.5 -54.5
t64.5 -20q90 0 208 151q-118 151 -208 151q-35 0 -64.5 -20t-46.5 -54.5t-17 -76.5z" />
    <glyph glyph-name="infinity" unicode="&#x221e;" horiz-adv-x="972" 
d="M236 127q-53 0 -94 26t-64 72t-23 105q0 60 23 105.5t64 71.5t94 26q123 0 250 -156q126 156 249 156q53 0 94 -26t64 -71.5t23 -105.5q0 -59 -23 -105t-64 -72t-94 -26q-123 0 -250 156q-126 -156 -249 -156zM113 330q0 -42 17 -76.5t46.5 -54.5t64.5 -20q90 0 208 151
q-118 151 -208 151q-35 0 -64.5 -20t-46.5 -54.5t-17 -76.5zM730 481q-90 0 -208 -151q118 -151 208 -151q36 0 65 20t46 54.5t17 76.5t-17 76.5t-46.5 54.5t-64.5 20z" />
    <glyph glyph-name="orthogonal" unicode="&#x221f;" 
d="M31 0v527h59v-478h409v-49h-468z" />
    <glyph glyph-name="uni2221" unicode="&#x2221;" horiz-adv-x="740" 
d="M65 0v49l172 293q-44 10 -96 10v52q69 0 124 -15l168 286l47 -27l-163 -277q169 -75 183 -320h174v-51h-173q0 -18 -1 -42.5t-3 -47.5h-54q2 19 3.5 42t2.5 48h-384zM129 51h319q-11 210 -158 274z" />
    <glyph glyph-name="uni2225" unicode="&#x2225;" 
d="M145 -90v807h58v-807h-58zM340 -90v807h58v-807h-58z" />
    <glyph glyph-name="logicaland" unicode="&#x2227;" horiz-adv-x="740" 
d="M54 0l282 660h67l283 -660h-58l-256 596h-6l-255 -596h-57z" />
    <glyph glyph-name="logicalor" unicode="&#x2228;" horiz-adv-x="740" 
d="M354 0l-266 660h58l239 -596h6l238 596h57l-265 -660h-67z" />
    <glyph glyph-name="intersection" unicode="&#x2229;" horiz-adv-x="640" 
d="M94 0v352q0 134 55.5 202t170.5 68q116 0 171 -68t55 -202v-352h-56v352q0 105 -42 161.5t-128 56.5t-128 -56.5t-42 -161.5v-352h-56z" />
    <glyph glyph-name="integral" unicode="&#x222b;" 
d="M183 -263q-23 0 -46.5 7t-46.5 19l20 43q37 -17 69 -17q65 0 65 79v803q0 55 32.5 88.5t82.5 33.5q23 0 47 -7t46 -19l-20 -43q-37 17 -69 17q-65 0 -65 -79v-803q0 -55 -32 -88.5t-83 -33.5z" />
    <glyph glyph-name="uni222E" unicode="&#x222e;" 
d="M184 -263q-23 0 -46.5 7t-46.5 19l20 43q37 -17 69 -17q65 0 65 79v194q-54 6 -96 38t-66.5 81.5t-24.5 110.5t24.5 110.5t66.5 81.5t96 38v149q0 55 32.5 88.5t82.5 33.5q23 0 47 -7t46 -19l-20 -43q-37 17 -69 17q-65 0 -65 -79v-140q53 -7 94.5 -39t66 -81.5
t24.5 -109.5t-24.5 -109.5t-66 -81.5t-94.5 -39v-203q0 -55 -32.5 -88.5t-82.5 -33.5zM114 292q0 -70 36.5 -121t94.5 -61v364q-58 -11 -94.5 -61.5t-36.5 -120.5zM428 292q0 70 -36 120t-93 61v-362q57 11 93 61t36 120z" />
    <glyph glyph-name="uni2243" unicode="&#x2243;" 
d="M371 314q-27 0 -46 10t-45 36l-46 46q-19 20 -31.5 26.5t-26.5 6.5q-30 0 -43.5 -27t-13.5 -89h-50q0 80 27 123t77 43q27 0 46 -10t45 -36l46 -46q20 -19 32 -26t26 -7q30 0 43.5 27.5t13.5 88.5h50q0 -80 -27 -123t-77 -43zM80 175v49h383v-49h-383z" />
    <glyph glyph-name="approxequal" unicode="&#x2248;" 
d="M371 372q-27 0 -46 10t-45 36l-46 46q-19 20 -31.5 26.5t-26.5 6.5q-30 0 -43.5 -27t-13.5 -89h-50q0 80 27 123t77 43q27 0 46 -10t45 -36l46 -46q20 -19 32 -26t26 -7q30 0 43.5 27.5t13.5 88.5h50q0 -80 -27 -123t-77 -43zM371 116q-27 0 -46 10t-45 36l-46 46
q-19 20 -31.5 26.5t-26.5 6.5q-30 0 -43.5 -27t-13.5 -89h-50q0 80 27 123t77 43q27 0 46 -10t45 -36l46 -46q20 -19 32 -26t26 -7q30 0 43.5 27.5t13.5 88.5h50q0 -80 -27 -123t-77 -43z" />
    <glyph glyph-name="uni2259" unicode="&#x2259;" 
d="M91 392l148 260h56l146 -260h-54l-113 206h-15l-114 -206h-54zM76 203v49h379v-49h-379zM76 0v49h379v-49h-379z" />
    <glyph glyph-name="notequal" unicode="&#x2260;" 
d="M141 78l52 122h-111v49h131l65 154h-196v49h217l55 130h48l-55 -130h114v-49h-135l-65 -154h200v-49h-220l-52 -122h-48z" />
    <glyph glyph-name="lessequal" unicode="&#x2264;" 
d="M80 51v49h383v-49h-383zM455 202l-367 161v76l367 161v-53l-319 -141v-10l319 -141v-53z" />
    <glyph glyph-name="greaterequal" unicode="&#x2265;" 
d="M88 202v53l319 141v10l-319 141v53l367 -161v-76zM80 51v49h383v-49h-383z" />
    <glyph glyph-name="uni226E" unicode="&#x226e;" 
d="M153 36l63 204l-132 58v76l200 88l50 161h46l-43 -138l115 50v-52l-133 -59l-48 -154l180 -80v-53l-195 85l-57 -186h-46zM132 331l99 -44l34 113l-133 -59v-10z" />
    <glyph glyph-name="uni226F" unicode="&#x226f;" 
d="M159 36l46 151l-113 -50v53l133 59l47 154l-181 80v52l195 -86l54 174h47l-59 -192l131 -57v-76l-199 -87l-54 -175h-47zM411 341l-98 43l-34 -111l132 58v10z" />
    <glyph glyph-name="uni2272" unicode="&#x2272;" 
d="M456 244l-367 161v76l367 161v-53l-319 -141v-10l319 -141v-53zM371 18q-27 0 -46 10t-45 36l-46 46q-19 20 -31.5 26.5t-26.5 6.5q-30 0 -43.5 -27t-13.5 -89h-50q0 80 27 123t77 43q27 0 46 -10t45 -36l46 -46q20 -19 32 -26t26 -7q30 0 43.5 27.5t13.5 88.5h50
q0 -80 -27 -123t-77 -43z" />
    <glyph glyph-name="uni2273" unicode="&#x2273;" 
d="M89 244v53l319 141v10l-319 141v53l367 -161v-76zM371 18q-27 0 -46 10t-45 36l-46 46q-19 20 -31.5 26.5t-26.5 6.5q-30 0 -43.5 -27t-13.5 -89h-50q0 80 27 123t77 43q27 0 46 -10t45 -36l46 -46q20 -19 32 -26t26 -7q30 0 43.5 27.5t13.5 88.5h50q0 -80 -27 -123
t-77 -43z" />
    <glyph glyph-name="perpendicular" unicode="&#x22a5;" 
d="M37 0v50h206v477h59v-477h204v-50h-469z" />
    <glyph glyph-name="dotmath" unicode="&#x22c5;" horiz-adv-x="296" 
d="M140 283q-20 0 -32.5 13.5t-12.5 32.5t12.5 32.5t32.5 13.5t32.5 -13.5t12.5 -32.5t-12.5 -32.5t-32.5 -13.5z" />
    <glyph glyph-name="uni22EE" unicode="&#x22ee;" horiz-adv-x="296" 
d="M140 -10q-20 0 -32.5 13.5t-12.5 32.5t12.5 32.5t32.5 13.5t32.5 -13.5t12.5 -32.5t-12.5 -32.5t-32.5 -13.5zM140 202q-20 0 -32.5 13.5t-12.5 32.5t12.5 32.5t32.5 13.5t32.5 -13.5t12.5 -32.5t-12.5 -32.5t-32.5 -13.5zM140 414q-20 0 -32.5 13.5t-12.5 32.5
t12.5 32.5t32.5 13.5t32.5 -13.5t12.5 -32.5t-12.5 -32.5t-32.5 -13.5z" />
    <glyph glyph-name="H18543" unicode="&#x25aa;" horiz-adv-x="462" 
d="M88 165v286h286v-286h-286z" />
    <glyph glyph-name="lozenge" unicode="&#x25ca;" horiz-adv-x="640" 
d="M287 0l-207 360l207 360h66l207 -360l-207 -360h-66zM318 50h5l178 310l-178 310h-5l-178 -310z" />
    <glyph glyph-name="uni2605" unicode="&#x2605;" horiz-adv-x="880" 
d="M250 -13q-20 -10 -38 2.5t-14 34.5l32 190q4 20 -10 34l-138 135q-16 16 -9 37.5t29 24.5l192 28q18 3 26 20l87 173q11 21 33.5 21t32.5 -21l87 -173q8 -17 26 -20l192 -28q23 -3 30 -24.5t-10 -37.5l-138 -135q-14 -14 -10 -34l32 -190q4 -22 -14 -34.5t-38 -2.5
l-172 90q-7 4 -17.5 4.5t-18.5 -4.5z" />
    <glyph glyph-name="uni2606" unicode="&#x2606;" horiz-adv-x="880" 
d="M250 -13q-20 -10 -38 2.5t-14 34.5l32 190q4 20 -10 34l-138 135q-16 16 -9 37.5t29 24.5l192 28q18 3 26 20l87 173q11 21 33.5 21t32.5 -21l87 -173q8 -17 26 -20l192 -28q23 -3 30 -24.5t-10 -37.5l-138 -135q-14 -14 -10 -34l32 -190q4 -22 -14 -34.5t-38 -2.5
l-172 90q-18 10 -36 0zM282 88l119 64q21 12 39 12t39 -12l119 -64l-24 143q-6 34 19 58l104 102l-144 20q-34 4 -49 36l-64 130l-64 -130q-15 -32 -49 -36l-144 -20l104 -102q25 -24 19 -58z" />
    <glyph glyph-name="female" unicode="&#x2640;" horiz-adv-x="590" 
d="M145 0v51h121v143q-65 7 -116 40.5t-80 87.5t-29 122q0 73 33.5 129.5t91 89t129.5 32.5q73 0 130 -32.5t90.5 -89t33.5 -129.5q0 -68 -29 -122t-80 -87.5t-116 -40.5v-143h121v-51h-121v-100h-58v100h-121zM295 245q58 0 101.5 26t68.5 71t25 102q0 58 -25 102.5
t-68.5 70.5t-101.5 26q-57 0 -101 -26t-69 -70.5t-25 -102.5q0 -57 25 -102t69 -71t101 -26z" />
    <glyph glyph-name="male" unicode="&#x2642;" horiz-adv-x="790" 
d="M292 -15q-74 0 -131.5 32t-90 88.5t-32.5 130.5t32.5 130.5t90 88.5t131.5 32q51 0 94 -15.5t76 -43.5l203 193h-213v51h300v-310h-53v213l-199 -188q22 -31 34 -69t12 -82q0 -74 -32.5 -130.5t-90 -88.5t-131.5 -32zM292 39q56 0 100 26t69.5 70.5t25.5 100.5
t-25.5 100.5t-69.5 70.5t-100 26t-100 -26t-69.5 -70.5t-25.5 -100.5t25.5 -100.5t69.5 -70.5t100 -26z" />
    <glyph glyph-name="uni2713" unicode="&#x2713;" horiz-adv-x="880" 
d="M342 73l-262 251l54 56l207 -198l403 403l55 -55z" />
    <glyph glyph-name="uni2714" unicode="&#x2714;" horiz-adv-x="880" 
d="M343 39l-280 268l88 89l190 -182l387 387l88 -89z" />
    <glyph glyph-name="uni2717" unicode="&#x2717;" horiz-adv-x="880" 
d="M165 0l-55 55l275 275l-275 275l55 55l275 -275l275 275l55 -55l-275 -275l275 -275l-55 -55l-275 275z" />
    <glyph glyph-name="uni2718" unicode="&#x2718;" horiz-adv-x="880" 
d="M183 -15l-88 88l257 257l-257 257l88 88l257 -257l257 257l88 -88l-257 -257l257 -257l-88 -88l-257 257z" />
    <glyph glyph-name="uni27F2" unicode="&#x27f2;" horiz-adv-x="880" 
d="M441 -9q-72 0 -134 27t-108.5 74.5t-73 110t-26.5 133.5v7h79v-11q0 -72 35 -131.5t95 -95.5t133 -36q72 0 132 35t96 94.5t36 134.5q0 74 -36 134t-95.5 95t-132.5 35q-58 0 -110 -24t-95 -74h97v-78h-234v234h78v-105q46 59 117 92t147 33q71 0 133 -26.5t109 -73.5
t73.5 -109t26.5 -133t-26.5 -133t-73.5 -109t-109 -73.5t-133 -26.5z" />
    <glyph glyph-name="uni2A25" unicode="&#x2a25;" 
d="M244 204v189h-164v49h164v189h55v-189h164v-49h-164v-189h-55zM272 30q-20 0 -32.5 13.5t-12.5 32.5t12.5 32.5t32.5 13.5t32.5 -13.5t12.5 -32.5t-12.5 -32.5t-32.5 -13.5z" />
    <glyph glyph-name="uni2A2A" unicode="&#x2a2a;" 
d="M272 111q-20 0 -32.5 13.5t-12.5 32.5t12.5 32.5t32.5 13.5t32.5 -13.5t12.5 -32.5t-12.5 -32.5t-32.5 -13.5zM80 308v49h383v-49h-383z" />
    <glyph glyph-name="uni2A66" unicode="&#x2a66;" 
d="M82 403v49h379v-49h-379zM82 200v49h379v-49h-379zM272 3q-20 0 -32.5 13.5t-12.5 32.5t12.5 32.5t32.5 13.5t32.5 -13.5t12.5 -32.5t-12.5 -32.5t-32.5 -13.5z" />
    <glyph glyph-name="uni2AEA" unicode="&#x2aea;" horiz-adv-x="640" 
d="M207 0v610h-121v50h468v-50h-121v-610h-59v610h-108v-610h-59z" />
    <glyph glyph-name="uni2B1B" unicode="&#x2b1b;" horiz-adv-x="880" 
d="M205 73v470h470v-470h-470z" />
    <glyph glyph-name="uni2B9C" unicode="&#x2b9c;" horiz-adv-x="880" 
d="M574 -55l-384 385l384 385l55 -55l-329 -330l329 -330z" />
    <glyph glyph-name="uni2B9D" unicode="&#x2b9d;" horiz-adv-x="880" 
d="M109 143l-55 55l386 384l386 -384l-55 -55l-331 329z" />
    <glyph glyph-name="uni2B9E" unicode="&#x2b9e;" horiz-adv-x="880" 
d="M306 -55l-55 55l329 330l-329 330l55 55l384 -385z" />
    <glyph glyph-name="uni2B9F" unicode="&#x2b9f;" horiz-adv-x="880" 
d="M440 78l-386 384l55 55l331 -329l331 329l55 -55z" />
    <glyph glyph-name="uni2BAB" unicode="&#x2bab;" horiz-adv-x="880" 
d="M100 174q10 108 56 177t122 102.5t174 33.5h137v117l195 -215l-195 -215v117h-203q-82 0 -135.5 -7.5t-88.5 -32.5t-62 -77z" />
    <glyph glyph-name="uniFB00" unicode="&#xfb00;" horiz-adv-x="530" 
d="M104 0v448h-78v48h78v37q0 98 36 138.5t106 40.5q26 0 38 -3v-49q-6 1 -13.5 1.5t-19.5 0.5q-54 0 -72.5 -30t-18.5 -101v-35h190v37q0 98 36 138.5t106 40.5q26 0 38 -3v-49q-6 1 -13.5 1.5t-19.5 0.5q-54 0 -72.5 -30t-18.5 -101v-35h124v-48h-124v-448h-56v448h-190
v-448h-56z" />
    <glyph glyph-name="uniFB01" unicode="&#xfb01;" horiz-adv-x="472" 
d="M104 0v448h-78v48h78v37q0 98 36 138.5t106 40.5q26 0 38 -3v-49q-6 1 -13.5 1.5t-19.5 0.5q-54 0 -72.5 -30t-18.5 -101v-35h124v-48h-124v-448h-56zM378 595q-18 0 -29.5 12t-11.5 29t11.5 29.5t29.5 12.5t29.5 -12.5t11.5 -29.5t-11.5 -29t-29.5 -12zM350 0v496h56
v-496h-56z" />
    <glyph glyph-name="uniFB02" unicode="&#xfb02;" horiz-adv-x="500" 
d="M104 0v448h-78v48h78v37q0 98 36 138.5t106 40.5q26 0 38 -3v-49q-6 1 -13.5 1.5t-19.5 0.5q-54 0 -72.5 -30t-18.5 -101v-35h124v-48h-124v-448h-56zM442 -10q-52 0 -72 28t-20 75v607h56v-602q0 -33 11.5 -46.5t35.5 -13.5h11t12 1v-46q-16 -3 -34 -3z" />
    <glyph glyph-name="uniFB03" unicode="&#xfb03;" horiz-adv-x="718" 
d="M104 0v448h-78v48h78v37q0 98 36 138.5t106 40.5q26 0 38 -3v-49q-6 1 -13.5 1.5t-19.5 0.5q-54 0 -72.5 -30t-18.5 -101v-35h190v37q0 98 36 138.5t106 40.5q26 0 38 -3v-49q-6 1 -13.5 1.5t-19.5 0.5q-54 0 -72.5 -30t-18.5 -101v-35h124v-48h-124v-448h-56v448h-190
v-448h-56zM624 595q-18 0 -29.5 12t-11.5 29t11.5 29.5t29.5 12.5t29.5 -12.5t11.5 -29.5t-11.5 -29t-29.5 -12zM596 0v496h56v-496h-56z" />
    <glyph glyph-name="uniFB04" unicode="&#xfb04;" horiz-adv-x="746" 
d="M104 0v448h-78v48h78v37q0 98 36 138.5t106 40.5q26 0 38 -3v-49q-6 1 -13.5 1.5t-19.5 0.5q-54 0 -72.5 -30t-18.5 -101v-35h190v37q0 98 36 138.5t106 40.5q26 0 38 -3v-49q-6 1 -13.5 1.5t-19.5 0.5q-54 0 -72.5 -30t-18.5 -101v-35h124v-48h-124v-448h-56v448h-190
v-448h-56zM688 -10q-52 0 -72 28t-20 75v607h56v-602q0 -33 11.5 -46.5t35.5 -13.5h11t12 1v-46q-16 -3 -34 -3z" />
    <glyph glyph-name="uniFEFF" unicode="&#xfeff;" horiz-adv-x="0" 
 />
    <glyph glyph-name="uniFFFD" unicode="&#xfffd;" horiz-adv-x="1000" 
d="M500 828l475 -475l-475 -474l-475 474zM459 226h48l6 78q68 17 99 52.5t31 87.5q0 65 -42 99.5t-112 34.5q-94 0 -139 -62l38 -35q18 19 42.5 30t54.5 11q42 0 69 -21t27 -61q0 -72 -95 -97l-32 -7zM483 87q18 0 31 12t13 31t-13 31t-31 12t-31 -12t-13 -31t13 -31
t31 -12z" />
    <glyph glyph-name="u1F5A4" unicode="&#x1f5a4;" horiz-adv-x="880" 
d="M440 -34l-294 309q-40 42 -57.5 80.5t-17.5 82.5q0 59 28.5 107t76.5 76.5t107 28.5q87 0 151 -64l6 -6l6 6q64 64 151 64q59 0 107 -28.5t76.5 -76.5t28.5 -107q0 -44 -17.5 -82.5t-57.5 -80.5z" />
    <glyph glyph-name="u1F846" unicode="&#x1f846;" horiz-adv-x="880" 
d="M571 63l-90 89l110 107h-541v126h541l-110 107l90 89l259 -259z" />
    <glyph glyph-name="u1F90D" unicode="&#x1f90d;" horiz-adv-x="880" 
d="M440 -34l-294 309q-40 42 -57.5 80.5t-17.5 82.5q0 59 28.5 107t76.5 76.5t107 28.5q87 0 151 -64l6 -6l6 6q64 64 151 64q59 0 107 -28.5t76.5 -76.5t28.5 -107q0 -43 -17 -81t-58 -82zM440 82l236 249q26 28 37.5 52.5t11.5 54.5q0 59 -37.5 95.5t-97.5 36.5
q-34 0 -62 -14t-60 -48l-28 -29l-28 29q-32 34 -59.5 48t-62.5 14q-60 0 -97.5 -36.5t-37.5 -95.5q0 -30 11.5 -54.5t37.5 -52.5z" />
    <glyph glyph-name="hyphen.case" horiz-adv-x="362" 
d="M44 309v55h274v-55h-274z" />
    <glyph glyph-name="uni2010.case" horiz-adv-x="362" 
d="M44 309v55h274v-55h-274z" />
    <glyph glyph-name="uni2011.case" horiz-adv-x="362" 
d="M44 309v55h274v-55h-274z" />
    <glyph glyph-name="endash.case" horiz-adv-x="450" 
d="M0 314v50h450v-50h-450z" />
    <glyph glyph-name="emdash.case" horiz-adv-x="900" 
d="M0 314v50h900v-50h-900z" />
    <glyph glyph-name="parenleft.case" horiz-adv-x="305" 
d="M195 -140q-52 107 -74.5 213.5t-22.5 213.5v61q0 104 22.5 211.5t74.5 216.5h58q-50 -111 -72 -219.5t-22 -212.5v-53q0 -107 22 -214.5t72 -216.5h-58z" />
    <glyph glyph-name="parenright.case" horiz-adv-x="305" 
d="M52 -140q50 109 72 216.5t22 214.5v53q0 104 -22 212.5t-72 219.5h58q52 -109 74.5 -216.5t22.5 -211.5v-61q0 -107 -22.5 -213.5t-74.5 -213.5h-58z" />
    <glyph glyph-name="slash.case" horiz-adv-x="373" 
d="M30 0l255 700h58l-255 -700h-58z" />
    <glyph glyph-name="backslash.case" horiz-adv-x="373" 
d="M285 0l-255 700h58l255 -700h-58z" />
    <glyph glyph-name="bracketleft.case" horiz-adv-x="331" 
d="M124 -140v916h189v-51h-131v-814h131v-51h-189z" />
    <glyph glyph-name="bracketright.case" horiz-adv-x="331" 
d="M18 -140v51h131v814h-131v51h189v-916h-189z" />
    <glyph glyph-name="braceleft.case" horiz-adv-x="342" 
d="M269 -140q-69 0 -100.5 35.5t-31.5 111.5v168q0 60 -17 87t-56 27h-11v55h11q39 0 56 26.5t17 86.5v172q0 77 31.5 112t100.5 35h55v-51h-51q-41 0 -60.5 -23t-19.5 -73v-172q0 -51 -15 -85t-49 -51v-10q34 -17 49 -51t15 -85v-168q0 -50 19.5 -73t60.5 -23h51v-51h-55z
" />
    <glyph glyph-name="braceright.case" horiz-adv-x="342" 
d="M18 -140v51h51q41 0 60.5 23t19.5 73v168q0 51 15 85t49 51v10q-34 17 -49 51t-15 85v172q0 50 -19.5 73t-60.5 23h-51v51h55q69 0 100.5 -35t31.5 -112v-172q0 -60 17 -86.5t56 -26.5h11v-55h-11q-39 0 -56 -27t-17 -87v-168q0 -76 -31.5 -111.5t-100.5 -35.5h-55z" />
    <glyph glyph-name="bullet.case" horiz-adv-x="430" 
d="M215 263q-45 0 -77.5 32.5t-32.5 84.5t32.5 84.5t77.5 32.5t77.5 -32.5t32.5 -84.5t-32.5 -84.5t-77.5 -32.5z" />
    <glyph glyph-name="guilsinglleft.case" horiz-adv-x="274" 
d="M199 121l-159 160v60l159 160l35 -35l-133 -149v-12l133 -149z" />
    <glyph glyph-name="guilsinglright.case" horiz-adv-x="274" 
d="M75 501l159 -160v-60l-159 -160l-35 35l133 149v12l-133 149z" />
    <glyph glyph-name="guillemotleft.case" horiz-adv-x="483" 
d="M199 121l-159 160v60l159 160l35 -35l-133 -149v-12l133 -149zM408 121l-159 160v60l159 160l35 -35l-133 -149v-12l133 -149z" />
    <glyph glyph-name="guillemotright.case" horiz-adv-x="483" 
d="M75 501l159 -160v-60l-159 -160l-35 35l133 149v12l-133 149zM284 501l159 -160v-60l-159 -160l-35 35l133 149v12l-133 149z" />
    <glyph glyph-name="at.case" horiz-adv-x="950" 
d="M454 66q-71 0 -117 58t-46 158v34q0 101 46 159t116 58q49 0 82.5 -26t53.5 -65v81h50v-305q0 -58 24.5 -80.5t53.5 -22.5q44 0 72.5 46t28.5 152v30q0 114 -37 197t-111 127.5t-184 44.5q-165 0 -257.5 -102t-92.5 -292v-30q0 -127 44 -213.5t120.5 -131.5t173.5 -45
q56 0 103 14.5t81 38.5l27 -41q-40 -28 -92 -45t-119 -17q-111 0 -200.5 49t-141.5 146.5t-52 242.5v34q0 218 108 330t298 112q127 0 213.5 -50.5t130.5 -144t44 -222.5v-34q0 -88 -22.5 -142t-59 -78.5t-78.5 -24.5t-77 23.5t-45 69.5q-20 -40 -54 -66.5t-84 -26.5z
M347 284q0 -85 33.5 -127t85.5 -42q44 0 73.5 26t45.5 62v193q-16 36 -45.5 62t-73.5 26q-52 0 -85.5 -42.5t-33.5 -127.5v-30z" />
    <glyph glyph-name="periodcentered.case" horiz-adv-x="196" 
d="M98 304q-20 0 -32.5 13.5t-12.5 32.5t12.5 32.5t32.5 13.5t32.5 -13.5t12.5 -32.5t-12.5 -32.5t-32.5 -13.5z" />
    <glyph glyph-name="questiondown.case" horiz-adv-x="428" 
d="M245 578q-20 0 -32.5 13.5t-12.5 32.5t12.5 32.5t32.5 13.5t32.5 -13.5t12.5 -32.5t-12.5 -32.5t-32.5 -13.5zM234 -15q-85 0 -135.5 48t-50.5 137q0 76 40.5 124.5t127.5 75.5l7 126h44l4 -159l-39 -11q-65 -19 -96 -59t-31 -98q0 -65 37 -99t94 -34q38 0 71.5 13.5
t58.5 41.5l35 -35q-28 -32 -70 -51.5t-97 -19.5z" />
    <glyph glyph-name="exclamdown.case" horiz-adv-x="284" 
d="M142 670q20 0 32.5 -13.5t12.5 -32.5t-12.5 -32.5t-32.5 -13.5t-32.5 13.5t-12.5 32.5t12.5 32.5t32.5 13.5zM120 496h44l10 -496h-64z" />
    <glyph glyph-name="zero.zero" 
d="M272 -15q-220 0 -220 312v66q0 312 220 312q219 0 219 -311v-68q0 -157 -56 -234t-163 -77zM111 301q0 -148 45 -210l189 516q-32 15 -73 15q-82 0 -121.5 -64t-39.5 -199v-58zM432 359q0 148 -45 210l-189 -516q33 -15 74 -15q83 0 121.5 64.5t38.5 198.5v58z" />
    <glyph glyph-name="zero.pnum" horiz-adv-x="585" 
d="M293 -15q-102 0 -155 77.5t-53 219.5v63q0 142 53 219.5t155 77.5q103 0 155.5 -77.5t52.5 -219.5v-63q0 -142 -52.5 -219.5t-155.5 -77.5zM293 37q149 0 149 249v55q0 249 -149 249t-149 -249v-55q0 -249 149 -249z" />
    <glyph glyph-name="one.pnum" horiz-adv-x="427" 
d="M58 0v51h129v525h-125v51h184v-576h133v-51h-321z" />
    <glyph glyph-name="two.pnum" horiz-adv-x="496" 
d="M54 0v51l225 257q41 47 57 84.5t16 78.5q0 62 -32.5 90.5t-80.5 28.5q-43 0 -74 -22t-57 -60l-40 32q27 41 69 71.5t106 30.5q74 0 121.5 -44t47.5 -122q0 -52 -23 -99.5t-72 -103.5l-192 -222h305v-51h-376z" />
    <glyph glyph-name="three.pnum" horiz-adv-x="511" 
d="M241 -15q-123 0 -191 85l36 37q60 -70 156 -70q61 0 100.5 32.5t39.5 98.5q0 68 -39.5 102t-108.5 34h-67v46l181 226h-259v51h328v-51l-184 -225h25q89 0 136.5 -51t47.5 -131q0 -81 -52.5 -132.5t-148.5 -51.5z" />
    <glyph glyph-name="four.pnum" horiz-adv-x="547" 
d="M347 0v161h-293v46l272 420h78v-416h91v-50h-91v-161h-57zM339 566l-229 -355h237v355h-8z" />
    <glyph glyph-name="five.pnum" horiz-adv-x="515" 
d="M248 -15q-62 0 -108 22t-80 65l35 37q56 -72 152 -72q38 0 69.5 15t51 46t19.5 77q0 71 -38 104.5t-103 33.5h-140v314h320v-51h-262v-212h91q93 0 142 -51.5t49 -137.5q0 -55 -24.5 -98t-69 -67.5t-104.5 -24.5z" />
    <glyph glyph-name="six.pnum" horiz-adv-x="529" 
d="M266 -15q-91 0 -144 56t-53 152q0 41 10.5 83.5t34.5 93t66 114.5l94 143h65l-111 -167q-55 -83 -77 -139q24 34 58.5 53.5t77.5 19.5q50 0 90 -24.5t63.5 -69.5t23.5 -107q0 -61 -24.5 -108t-69 -73.5t-104.5 -26.5zM127 193q0 -70 36 -114t103 -44q66 0 102.5 45.5
t36.5 112.5t-36.5 108.5t-101.5 41.5q-34 0 -69 -15.5t-63 -56.5q-4 -19 -6 -38.5t-2 -39.5z" />
    <glyph glyph-name="seven.pnum" horiz-adv-x="475" 
d="M119 0l240 573h-311v54h374v-49l-238 -578h-65z" />
    <glyph glyph-name="eight.pnum" horiz-adv-x="557" 
d="M278 -15q-57 0 -103 21t-72.5 61.5t-26.5 97.5q0 120 112 163q-43 16 -68.5 52.5t-25.5 89.5q0 80 52 125.5t132 45.5q81 0 133.5 -45.5t52.5 -125.5q0 -53 -26.5 -89.5t-67.5 -52.5q54 -21 82.5 -61.5t28.5 -101.5q0 -57 -27 -97.5t-72.5 -61.5t-103.5 -21zM278 349
q56 0 93.5 30t37.5 91q0 60 -37.5 90.5t-93.5 30.5q-55 0 -92 -30.5t-37 -90.5q0 -61 37 -91t92 -30zM278 35q62 0 103 34t41 99q0 64 -40.5 98t-103.5 34q-62 0 -103 -34t-41 -98q0 -65 41 -99t103 -34z" />
    <glyph glyph-name="nine.pnum" horiz-adv-x="529" 
d="M188 0l111 166q53 80 76 136q-24 -33 -57.5 -51t-75.5 -18q-50 0 -90 24.5t-63.5 69.5t-23.5 107t24.5 108.5t68.5 73t103 26.5q92 0 145.5 -56t53.5 -152q0 -61 -24 -129t-87 -163l-94 -142h-67zM123 434q0 -67 36.5 -108.5t100.5 -41.5q35 0 69.5 15t62.5 55
q5 20 7 39.5t2 40.5q0 71 -36 114.5t-104 43.5q-64 0 -101 -45t-37 -113z" />
    <glyph glyph-name="zero.pnum.zero" horiz-adv-x="585" 
d="M293 -15q-102 0 -155 77.5t-53 219.5v63q0 142 53 219.5t155 77.5q103 0 155.5 -77.5t52.5 -219.5v-63q0 -142 -52.5 -219.5t-155.5 -77.5zM144 286q0 -130 42 -193l174 480q-29 17 -67 17q-149 0 -149 -249v-55zM293 37q149 0 149 249v55q0 130 -42 192l-174 -479
q29 -17 67 -17z" />
    <glyph glyph-name="zero.dnom" horiz-adv-x="294" 
d="M147 -9q-55 0 -87 41t-32 114v29q0 73 32 114t87 41q56 0 87.5 -41t31.5 -114v-29q0 -73 -31.5 -114t-87.5 -41zM147 35q32 0 50.5 28.5t18.5 84.5v25q0 56 -19.5 84.5t-49.5 28.5q-31 0 -50 -28.5t-19 -84.5v-25q0 -56 19 -84.5t50 -28.5z" />
    <glyph glyph-name="one.dnom" horiz-adv-x="190" 
d="M77 0v278h-57v43h108v-321h-51z" />
    <glyph glyph-name="two.dnom" horiz-adv-x="255" 
d="M23 0v41l108 124q33 37 33 68q0 27 -14 40.5t-34 13.5t-34.5 -10.5t-26.5 -29.5l-32 29q16 24 39 39t58 15q41 0 67.5 -24t26.5 -68q0 -29 -12.5 -52.5t-39.5 -54.5l-77 -88h136v-43h-198z" />
    <glyph glyph-name="three.dnom" horiz-adv-x="275" 
d="M123 -9q-63 0 -101 41l26 34q29 -32 75 -32q29 0 44.5 15t15.5 42q0 55 -64 55h-37v36l81 96h-121v43h179v-41l-81 -93q43 0 69 -26t26 -70q0 -45 -30.5 -72.5t-81.5 -27.5z" />
    <glyph glyph-name="four.dnom" horiz-adv-x="264" 
d="M150 0v75h-141v41l124 205h66v-202h42v-44h-42v-75h-49zM144 267l-89 -148h95v148h-6z" />
    <glyph glyph-name="five.dnom" horiz-adv-x="274" 
d="M126 -9q-63 0 -100 40l25 34q31 -31 74 -31q28 0 43.5 15t15.5 43q0 59 -62 59h-70v170h170v-43h-127v-84h41q47 0 73 -26.5t26 -72.5q0 -47 -29.5 -75.5t-79.5 -28.5z" />
    <glyph glyph-name="six.dnom" horiz-adv-x="278" 
d="M142 -9q-49 0 -78 28.5t-29 81.5q0 32 12.5 64t40.5 78l49 78h55l-61 -98q-17 -28 -27 -48q11 13 26 21t34 8q35 0 59.5 -28t24.5 -75q0 -49 -28 -79.5t-78 -30.5zM86 101q0 -34 15.5 -50.5t40.5 -16.5q27 0 41.5 19.5t14.5 47.5q0 30 -15 47t-41 17q-13 0 -26 -5
t-24 -17q-6 -20 -6 -42z" />
    <glyph glyph-name="seven.dnom" horiz-adv-x="247" 
d="M51 0l117 275h-146v46h198v-42l-112 -279h-57z" />
    <glyph glyph-name="eight.dnom" horiz-adv-x="290" 
d="M145 -9q-49 0 -78.5 26t-29.5 69q0 34 16 53.5t41 29.5q-19 6 -33.5 24.5t-14.5 47.5q0 41 27 65t72 24t72 -24t27 -65q0 -29 -14.5 -47.5t-34.5 -24.5q25 -10 41.5 -29.5t16.5 -53.5q0 -43 -29 -69t-79 -26zM145 188q23 0 37.5 12.5t14.5 37.5t-14.5 38t-37.5 13
t-37.5 -13t-14.5 -38t14.5 -37.5t37.5 -12.5zM145 33q26 0 41.5 14t15.5 42q0 27 -15.5 41t-41.5 14t-41.5 -14t-15.5 -41q0 -28 15.5 -42t41.5 -14z" />
    <glyph glyph-name="nine.dnom" horiz-adv-x="278" 
d="M85 0l62 97q18 28 28 50q-11 -14 -26.5 -22t-35.5 -8q-35 0 -59.5 27.5t-24.5 74.5q0 49 29 80t79 31q47 0 76 -28.5t29 -82.5q0 -31 -11 -64t-40 -79l-49 -76h-57zM80 219q0 -30 14.5 -47.5t42.5 -17.5q13 0 25.5 5.5t23.5 17.5q6 20 6 42q0 34 -15 51t-40 17
q-28 0 -42.5 -20t-14.5 -48z" />
    <glyph glyph-name="zero.numr" horiz-adv-x="294" 
d="M147 327q-55 0 -87 41t-32 114v29q0 73 32 114t87 41q56 0 87.5 -41t31.5 -114v-29q0 -73 -31.5 -114t-87.5 -41zM147 371q32 0 50.5 28.5t18.5 84.5v25q0 56 -19.5 84.5t-49.5 28.5q-31 0 -50 -28.5t-19 -84.5v-25q0 -56 19 -84.5t50 -28.5z" />
    <glyph glyph-name="one.numr" horiz-adv-x="190" 
d="M77 339v278h-57v43h108v-321h-51z" />
    <glyph glyph-name="two.numr" horiz-adv-x="255" 
d="M23 339v41l108 124q33 37 33 68q0 27 -14 40.5t-34 13.5t-34.5 -10.5t-26.5 -29.5l-32 29q16 24 39 39t58 15q41 0 67.5 -24t26.5 -68q0 -29 -12.5 -52.5t-39.5 -54.5l-77 -88h136v-43h-198z" />
    <glyph glyph-name="three.numr" horiz-adv-x="275" 
d="M123 330q-63 0 -101 41l26 34q29 -32 75 -32q29 0 44.5 15t15.5 42q0 55 -64 55h-37v36l81 96h-121v43h179v-41l-81 -93q43 0 69 -26t26 -70q0 -45 -30.5 -72.5t-81.5 -27.5z" />
    <glyph glyph-name="four.numr" horiz-adv-x="264" 
d="M150 339v75h-141v41l124 205h66v-202h42v-44h-42v-75h-49zM144 606l-89 -148h95v148h-6z" />
    <glyph glyph-name="five.numr" horiz-adv-x="274" 
d="M126 330q-63 0 -100 40l25 34q31 -31 74 -31q28 0 43.5 15t15.5 43q0 59 -62 59h-70v170h170v-43h-127v-84h41q47 0 73 -26.5t26 -72.5q0 -47 -29.5 -75.5t-79.5 -28.5z" />
    <glyph glyph-name="six.numr" horiz-adv-x="278" 
d="M142 330q-49 0 -78 28.5t-29 81.5q0 32 12.5 64t40.5 78l49 78h55l-61 -98q-17 -28 -27 -48q11 13 26 21t34 8q35 0 59.5 -28t24.5 -75q0 -49 -28 -79.5t-78 -30.5zM86 440q0 -34 15.5 -50.5t40.5 -16.5q27 0 41.5 19.5t14.5 47.5q0 30 -15 47t-41 17q-13 0 -26 -5
t-24 -17q-6 -20 -6 -42z" />
    <glyph glyph-name="seven.numr" horiz-adv-x="247" 
d="M51 339l117 275h-146v46h198v-42l-112 -279h-57z" />
    <glyph glyph-name="eight.numr" horiz-adv-x="290" 
d="M145 330q-49 0 -78.5 26t-29.5 69q0 34 16 53.5t41 29.5q-19 6 -33.5 24.5t-14.5 47.5q0 41 27 65t72 24t72 -24t27 -65q0 -29 -14.5 -47.5t-34.5 -24.5q25 -10 41.5 -29.5t16.5 -53.5q0 -43 -29 -69t-79 -26zM145 527q23 0 37.5 12.5t14.5 37.5t-14.5 38t-37.5 13
t-37.5 -13t-14.5 -38t14.5 -37.5t37.5 -12.5zM145 372q26 0 41.5 14t15.5 42q0 27 -15.5 41t-41.5 14t-41.5 -14t-15.5 -41q0 -28 15.5 -42t41.5 -14z" />
    <glyph glyph-name="nine.numr" horiz-adv-x="278" 
d="M85 339l62 97q18 28 28 50q-11 -14 -26.5 -22t-35.5 -8q-35 0 -59.5 27.5t-24.5 74.5q0 49 29 80t79 31q47 0 76 -28.5t29 -82.5q0 -31 -11 -64t-40 -79l-49 -76h-57zM80 558q0 -30 14.5 -47.5t42.5 -17.5q13 0 25.5 5.5t23.5 17.5q6 20 6 42q0 34 -15 51t-40 17
q-28 0 -42.5 -20t-14.5 -48z" />
    <glyph glyph-name="glyph172" horiz-adv-x="294" 
d="M147 -9q-55 0 -87 41t-32 114v29q0 73 32 114t87 41q56 0 87.5 -41t31.5 -114v-29q0 -73 -31.5 -114t-87.5 -41zM147 35q32 0 50.5 28.5t18.5 84.5v25q0 56 -19.5 84.5t-49.5 28.5q-31 0 -50 -28.5t-19 -84.5v-25q0 -56 19 -84.5t50 -28.5z" />
    <glyph glyph-name="glyph343" horiz-adv-x="376" 
d="M66 0v496h56v-496h-56zM219 -202q-10 0 -17 0.5t-18 1.5v48q8 -1 13 -1h10q26 0 36.5 15.5t10.5 62.5v571h56v-576q0 -61 -19.5 -91.5t-71.5 -30.5z" />
    <glyph glyph-name="glyph344" horiz-adv-x="0" 
d="M-122 304q-20 0 -32.5 13.5t-12.5 32.5t12.5 32.5t32.5 13.5t32.5 -13.5t12.5 -32.5t-12.5 -32.5t-32.5 -13.5z" />
    <glyph glyph-name="glyph362" horiz-adv-x="0" 
d="M-13 304q-20 0 -32.5 13.5t-12.5 32.5t12.5 32.5t32.5 13.5t32.5 -13.5t12.5 -32.5t-12.5 -32.5t-32.5 -13.5z" />
    <glyph glyph-name="glyph382" horiz-adv-x="0" 
d="M-15 -202q-18 0 -43 4v46q23 -5 43 -5q48 0 48 37q0 35 -51 35h-21l24 108h41l-17 -67q75 -10 75 -77q0 -81 -99 -81z" />
    <glyph glyph-name="glyph385" horiz-adv-x="0" 
d="M-32 -244l-22 23q41 40 53 76q-16 1 -26.5 12.5t-10.5 28.5q0 19 11.5 30.5t28.5 11.5q19 0 30 -12.5t11 -34.5q0 -30 -21 -68t-54 -67z" />
    <glyph glyph-name="glyph387" horiz-adv-x="480" 
d="M204 -244l-22 23q41 40 53 76q-16 1 -26.5 12.5t-10.5 28.5q0 19 11.5 30.5t28.5 11.5q19 0 30 -12.5t11 -34.5q0 -30 -21 -68t-54 -67z" />
    <glyph glyph-name="glyph389" horiz-adv-x="0" 
d="M-40 -202q-43 0 -71.5 25.5t-28.5 70.5q0 36 17.5 62t46 43t60.5 26l16 -25q-37 -13 -63 -37.5t-26 -60.5q0 -24 11 -36t26 -16.5t27 -4.5q6 0 14.5 1t14.5 2v-46q-13 -2 -25 -3t-19 -1z" />
    <glyph glyph-name="glyph390" horiz-adv-x="0" 
d="M-40 -202q-43 0 -71.5 25.5t-28.5 70.5q0 36 17.5 61.5t46.5 40t61 17.5l15 -13q-37 -13 -63 -37.5t-26 -60.5q0 -24 11 -36t26 -16.5t27 -4.5q6 0 14.5 1t14.5 2v-46q-13 -2 -25 -3t-19 -1z" />
    <glyph glyph-name="glyph391" horiz-adv-x="0" 
d="M-41 -202q-38 0 -66.5 22.5t-28.5 71.5q0 50 34 83.5t86 37.5l16 -13q-35 -13 -60.5 -39.5t-25.5 -61.5q0 -23 10.5 -34.5t24.5 -15.5t23 -4q20 0 32 3v-46q-13 -2 -25 -3t-20 -1z" />
    <glyph glyph-name="glyph420" horiz-adv-x="0" 
d="M-8 720l-30 32l134 129l35 -37z" />
    <glyph glyph-name="glyph421" horiz-adv-x="0" 
d="M-7 720l-29 31l131 127l34 -36z" />
    <glyph glyph-name="glyph422" horiz-adv-x="0" 
d="M-6 575l-34 25l107 148l40 -30z" />
    <glyph glyph-name="glyph425" horiz-adv-x="0" 
d="M65 720l-27 33l129 127l33 -38zM-67 720l-27 33l129 127l32 -38z" />
    <glyph glyph-name="Iacute_J_acutecomb.locl" horiz-adv-x="570" 
d="M82 169v491h59v-491h-59zM289 -15q-50 0 -94 17.5t-70 46.5l32 43q21 -24 56.5 -39t73.5 -15t70 15.5t52 51t20 93.5v462h59v-463q0 -76 -27.5 -122.5t-73 -68t-98.5 -21.5zM104 720l-30 32l134 129l35 -37zM451 720l-30 32l134 129l35 -37z" />
    <glyph glyph-name="iacute_j_acutecomb.locl" horiz-adv-x="376" 
d="M66 0v496h56v-496h-56zM219 -202q-10 0 -17 0.5t-18 1.5v48q8 -1 13 -1h10q26 0 36.5 15.5t10.5 62.5v571h56v-576q0 -61 -19.5 -91.5t-71.5 -30.5zM88 575l-34 25l107 148l40 -30zM276 575l-34 25l107 148l40 -30z" />
    <glyph glyph-name="glyph460" horiz-adv-x="0" 
d="M8 720l-139 124l35 37l134 -129z" />
    <glyph glyph-name="glyph461" horiz-adv-x="0" 
d="M6 575l-113 143l40 30l107 -148z" />
    <glyph glyph-name="glyph478" horiz-adv-x="0" 
d="M-114 720l-28 33l119 108h46l119 -108l-28 -33l-109 93h-10z" />
    <glyph glyph-name="glyph479" horiz-adv-x="0" 
d="M-98 575l-30 28l106 134h44l106 -134l-30 -28l-93 112h-10z" />
    <glyph glyph-name="glyph482" horiz-adv-x="0" 
d="M67 715q-29 0 -65 28l-30 24q-24 19 -38 19q-16 0 -23 -15t-8 -50h-42q0 107 72 107q29 0 65 -28l30 -24q24 -19 38 -19q16 0 23 15t8 50h42q0 -107 -72 -107z" />
    <glyph glyph-name="glyph483" horiz-adv-x="0" 
d="M60 581q-14 0 -27 5t-31 21l-27 24q-10 8 -18 13t-16 5q-13 0 -18 -14t-7 -49h-41q0 104 65 104q14 0 27 -4.5t31 -21.5l27 -24q10 -8 18.5 -13t15.5 -5q13 0 18.5 14.5t6.5 48.5h41q0 -104 -65 -104z" />
    <glyph glyph-name="glyph510" horiz-adv-x="0" 
d="M-114 871l109 -93h10l109 93l28 -33l-119 -108h-46l-119 108z" />
    <glyph glyph-name="glyph513" horiz-adv-x="0" 
d="M-21 511l25 189h55l-33 -189h-47z" />
    <glyph glyph-name="glyph514" horiz-adv-x="0" 
d="M-11 553l19 147h55l-29 -147h-45z" />
    <glyph glyph-name="glyph516" horiz-adv-x="0" 
d="M-119 749v44h238v-44h-238z" />
    <glyph glyph-name="glyph517" horiz-adv-x="0" 
d="M-105 609v42h210v-42h-210z" />
    <glyph glyph-name="glyph546" horiz-adv-x="0" 
d="M-90 730q-18 0 -29.5 12.5t-11.5 29.5t11.5 28.5t29.5 11.5t28.5 -11.5t10.5 -28.5t-10.5 -29.5t-28.5 -12.5zM90 730q-19 0 -29 12.5t-10 29.5t10 28.5t29 11.5q18 0 29.5 -11.5t11.5 -28.5t-11.5 -29.5t-29.5 -12.5z" />
    <glyph glyph-name="glyph547" horiz-adv-x="0" 
d="M-77 597q-18 0 -28.5 11.5t-10.5 27.5q0 17 10.5 28t28.5 11t28.5 -11t10.5 -28q0 -16 -10.5 -27.5t-28.5 -11.5zM77 597q-18 0 -28.5 11.5t-10.5 27.5q0 17 10.5 28t28.5 11t28.5 -11t10.5 -28q0 -16 -10.5 -27.5t-28.5 -11.5z" />
    <glyph glyph-name="glyph550" horiz-adv-x="0" 
d="M0 720q-64 0 -95 36t-35 84h44q4 -30 24.5 -52t61.5 -22t61.5 22t24.5 52h44q-4 -48 -35 -84t-95 -36z" />
    <glyph glyph-name="glyph571" horiz-adv-x="0" 
d="M0 730q-18 0 -29.5 12t-11.5 29t11.5 29.5t29.5 12.5t29.5 -12.5t11.5 -29.5t-11.5 -29t-29.5 -12z" />
    <glyph glyph-name="glyph574" horiz-adv-x="0" 
d="M0 -125q-18 0 -29.5 12t-11.5 29t11.5 29.5t29.5 12.5t29.5 -12.5t11.5 -29.5t-11.5 -29t-29.5 -12z" />
    <glyph glyph-name="glyph589" horiz-adv-x="0" 
d="M0 720q-40 0 -67.5 26t-27.5 69q0 44 27.5 69.5t67.5 25.5t67.5 -25.5t27.5 -69.5q0 -43 -27.5 -69t-67.5 -26zM0 756q25 0 39.5 16t14.5 43t-14.5 43t-39.5 16t-39.5 -16t-14.5 -43t14.5 -43t39.5 -16z" />
    <glyph glyph-name="uni0414.locl" horiz-adv-x="607" 
d="M9 51h55l192 609h95l191 -609h56v-204h-55v153h-479v-153h-55v204zM297 609l-174 -558h357l-171 558h-12z" />
    <glyph glyph-name="uni041B.locl" horiz-adv-x="511" 
d="M9 0l200 660h93l200 -660h-62l-181 608h-11l-180 -608h-59z" />
    <glyph glyph-name="uni0424.locl" horiz-adv-x="700" 
d="M321 702h58v-62q82 -3 143.5 -39t95.5 -102.5t34 -161.5v-14q0 -95 -34 -161.5t-95.5 -102.5t-143.5 -39v-68h-58v68q-82 3 -143.5 39t-95.5 102.5t-34 161.5v14q0 95 34 161.5t95.5 102.5t143.5 39v62zM596 336q0 69 -22 126t-70 91.5t-126 36.5v-520q78 2 126 36.5
t70 91.5t22 126v12zM104 324q0 -69 22 -126t70 -91.5t126 -36.5v520q-78 -2 -126 -36.5t-70 -91.5t-22 -126v-12z" />
    <glyph glyph-name="uni0431.locl" horiz-adv-x="483" 
d="M242 -12q-91 0 -142.5 63t-51.5 167v10q0 95 42.5 152.5t120.5 79.5l-15 7q-56 26 -81 52t-25 66q0 47 35.5 75.5t105.5 32.5l169 10l2 -53l-167 -10q-49 -3 -70.5 -16t-21.5 -39q0 -24 17 -39.5t55 -32.5l54 -23q92 -39 129 -100t37 -150v-19q0 -108 -52 -170.5
t-141 -62.5zM104 220q0 -84 37 -133.5t101 -49.5q63 0 100 50t37 137v14q0 78 -30 125.5t-97 78.5q-70 -20 -109 -70t-39 -136v-16z" />
    <glyph glyph-name="uni0432.locl" horiz-adv-x="484" 
d="M253 -12q-191 0 -191 232v250q0 116 47.5 175t138.5 59q82 0 127 -45.5t45 -125.5v-23q0 -55 -24.5 -93.5t-66.5 -55.5q49 -12 79.5 -55.5t30.5 -106.5v-28q0 -88 -48.5 -135.5t-137.5 -47.5zM246 655q-66 0 -97 -46t-31 -139v-88h134q51 0 82 36t31 94v20q0 57 -30.5 90
t-88.5 33zM252 37q131 0 131 135v25q0 65 -32.5 100.5t-91.5 35.5h-141v-113q0 -96 33 -139.5t101 -43.5z" />
    <glyph glyph-name="uni0433.locl" horiz-adv-x="400" 
d="M98 130q0 -44 31 -68t81 -24q41 0 71.5 14t57.5 41l33 -37q-31 -31 -70 -49.5t-92 -18.5q-76 0 -122.5 39.5t-46.5 105.5q0 48 30 81t85 49l61 17q87 25 87 92q0 41 -26.5 63.5t-70.5 22.5q-35 0 -64.5 -11t-60.5 -37l-29 38q36 31 73.5 45.5t82.5 14.5q70 0 110.5 -37
t40.5 -102q0 -53 -29.5 -85t-93.5 -49l-61 -17q-78 -21 -78 -88z" />
    <glyph glyph-name="uni0434.locl" horiz-adv-x="491" 
d="M222 -10q-81 0 -128.5 62t-47.5 176v40q0 114 47.5 176t128.5 62q57 0 93.5 -31t56.5 -73v94h53v-488q0 -113 -55 -161.5t-145 -48.5q-55 0 -92.5 15.5t-67.5 43.5l30 39q26 -23 56 -35.5t74 -12.5q64 0 104.5 35t40.5 125v84q-20 -42 -56.5 -72t-91.5 -30zM102 231
q0 -98 37.5 -144.5t96.5 -46.5q49 0 82.5 32.5t50.5 74.5v203q-17 40 -50 73t-83 33q-59 0 -96.5 -46.5t-37.5 -144.5v-34z" />
    </font>
</defs>
</svg>
