<svg xmlns="http://www.w3.org/2000/svg" width="24" height="24"><path fill="#D40511" d="M11.997 3C7.03 3 3 7.025 3 11.992c0 4.973 4.03 9.002 8.997 9.002 4.97 0 8.997-4.03 8.997-9.002C20.994 7.025 16.967 3 11.997 3zm.641 13.998a1.06 1.06 0 0 1-.725.28c-.284 0-.531-.092-.743-.276-.211-.183-.317-.44-.317-.77 0-.294.102-.54.307-.74.204-.2.455-.3.753-.3.293 0 .54.1.74.3.2.2.3.446.3.74 0 .325-.105.58-.315.766zm2.606-6.46a3.18 3.18 0 0 1-.572.772c-.22.216-.617.58-1.19 1.091a4.923 4.923 0 0 0-.38.38 1.63 1.63 0 0 0-.213.3 1.548 1.548 0 0 0-.108.273c-.025.09-.063.25-.115.478-.088.483-.365.725-.83.725a.85.85 0 0 1-.61-.237c-.166-.158-.248-.393-.248-.704 0-.391.06-.73.182-1.015.12-.287.28-.538.48-.754.2-.216.47-.473.81-.771.298-.26.513-.457.645-.59.133-.132.245-.28.335-.442a1.07 1.07 0 0 0 .136-.53 1.23 1.23 0 0 0-.415-.942c-.277-.256-.634-.384-1.071-.384-.512 0-.888.13-1.13.388-.242.258-.446.638-.614 1.14-.158.526-.459.788-.9.788a.886.886 0 0 1-.66-.275c-.178-.184-.268-.382-.268-.596 0-.442.142-.89.426-1.343.284-.454.698-.83 1.242-1.127.544-.298 1.179-.447 1.904-.447.674 0 1.27.125 1.786.374s.915.587 1.196 1.015c.281.428.422.893.422 1.395 0 .395-.08.741-.24 1.039z"/></svg>