<svg version="1.1" id="Ebene_1" xmlns="http://www.w3.org/2000/svg" x="0" y="0" viewBox="0 0 50 50" style="enable-background:new 0 0 50 50" xml:space="preserve"><style>.st0{fill:#d71f26}</style><path class="st0" d="M30.8 5c-5.5 0-10.2 4.4-9.9 9.9.3 7.6 9.9 14.9 9.9 14.9s9.9-7.3 9.9-14.9c.1-5.5-4.4-9.9-9.9-9.9zm0 22.3s-7.6-6.2-7.8-12.5c-.2-4.5 3.6-7.8 7.8-7.8 4.3 0 7.6 3.3 7.6 7.8 0 6.3-7.6 12.5-7.6 12.5z"/><circle class="st0" cx="30.8" cy="14.8" r="4.7"/><path class="st0" d="M25.9 34.8v-7.6c1.6 1.9 3.2 3.4 4.2 4.4l-4.2 3.2zm0 2.1v7.5l9.7-1.7-1.9-12.1c-1.4 1.3-2.3 2.1-2.3 2.1v.1l-5.5 4.1zm-1.7-2.7v-8.6l-7.7-2.5-.6 6.1 2-1 6.3 6zm0 2.1v8.1l-9.7-1.8 1.2-11.2 2.2-1.1 6.3 6zm-10.3-4-1.1 10.6-8.3 1.6 3.6-19.2 6.8-2.1-.7 6.8-1.9 1-3.5 1.7v2.1l3.5-1.7 1.6-.8zm24.9-7.4 1.4.4 4.9 19.2-7.8-1.7-2.2-13.7c1.2-1.1 2.4-2.6 3.7-4.2z"/></svg>