<svg xmlns="http://www.w3.org/2000/svg" width="48" height="48"><path fill="#D40511" d="m27.484 28.56 5.255-5.254 9.258 9.258v.498a2.965 2.965 0 0 1-2.956 2.956H8.96a2.965 2.965 0 0 1-2.956-2.956v-.558l9.228-9.228 5.285 5.284A4.893 4.893 0 0 0 24 30a4.894 4.894 0 0 0 3.484-1.44zM7.32 15.365l6.54 6.54-7.857 7.858V15.91a.772.772 0 0 1 1.317-.546zm34.677.546v13.912l-7.887-7.887 6.57-6.57a.772.772 0 0 1 1.317.545zM24 28.03a2.944 2.944 0 0 1-2.09-.863L6.48 11.737a2.958 2.958 0 0 1 2.48-1.355h30.08a2.96 2.96 0 0 1 2.48 1.355l-15.43 15.43a2.948 2.948 0 0 1-2.091.862z"/></svg>