<svg enable-background="new 0 0 65 50" viewBox="0 0 65 50" xmlns="http://www.w3.org/2000/svg"><path d="m49.8 29.9c-2.4 0-4.3 1.9-4.3 4.3s1.9 4.3 4.3 4.3 4.3-1.9 4.3-4.3-1.9-4.3-4.3-4.3zm-33.9 0c-2.4 0-4.3 1.9-4.3 4.3s1.9 4.3 4.3 4.3 4.3-1.9 4.3-4.3-1.8-4.3-4.3-4.3z" fill="#d40511"/><path d="m38.3 14.2.4 5.6c.1.9.7 1.5 1.5 1.5l9 .3c-1.4-3-2.5-7.4-10.9-7.4z" fill="none"/><path d="m38.2 14.2.4 5.6c.1.9.7 1.5 1.5 1.5l9 .3c-1.5-3-2.5-7.4-10.9-7.4z" fill="none"/><path d="m55.1 22.3c-5.5-3.1-8.8-10.6-15.8-10.6h-33c-.9 0-1.5.6-1.5 1.3-.3 2.4-1 7.4-1 10.8v7.8c0 1.2.9 2.1 2.1 2.1l4.7.3c.3-2.8 2.7-5.2 5.5-5.2 3.1 0 5.5 2.2 5.5 5.5h22.7c.1-3.2 2.7-5.5 5.5-5.5s5.5 2.2 5.5 5.5h4.7c.4 0 1.3-.6 1.3-2.9v-1.5c-.3-2.8-1.5-5-6.2-7.6zm-15-1.1c-.9 0-1.5-.6-1.5-1.5l-.4-5.6c8.4 0 9.6 4.4 10.9 7.4z" fill="#d40511"/></svg>