<svg enable-background="new 0 0 50 50" viewBox="0 0 50 50" xmlns="http://www.w3.org/2000/svg"><path d="m44.7 24.6c0-10.8-8.7-19.5-19.5-19.5s-19.5 8.7-19.5 19.5c0 10.7 8.7 19.5 19.5 19.5 10.7 0 19.5-8.7 19.5-19.5zm-3.1-1.4h-5.8c-.1-2.1-.3-4.2-.8-6h4.8c1 1.7 1.6 3.8 1.8 6zm-5.8 2.9h5.8c-.2 2.1-.8 4.2-1.7 6.1h-4.9c.4-1.9.7-3.9.8-6.1zm2-12h-3.7c-.6-1.7-1.3-3.2-2.1-4.5 2.3 1.1 4.3 2.7 5.8 4.5zm-6.8 0h-4.3v-5.6c1.5.8 3.1 2.8 4.3 5.6zm-4.3 21.1h4.3c-1.2 2.8-2.7 4.8-4.3 5.6zm-3-26.7v5.6h-4.3c1.1-2.8 2.7-4.8 4.3-5.6zm0 8.6v6h-6.1c.1-2.2.4-4.2.8-6zm0 9v6.1h-5.3c-.4-1.8-.8-3.9-.9-6.1zm0 9.1v5.6c-1.6-.8-3.1-2.7-4.3-5.6zm3-3v-6.1h6.1c-.1 2.2-.4 4.3-.9 6.1zm0-9v-6.1h5.3c.4 1.8.7 3.8.8 6zm-8.4-13.6c-.8 1.3-1.6 2.8-2.1 4.5h-3.7c1.6-1.8 3.5-3.4 5.8-4.5zm-9.5 16.5h5.8c.1 2.1.3 4.2.8 6.1h-4.8c-1-1.9-1.7-3.9-1.8-6.1zm0-2.9c.2-2.1.8-4.2 1.7-6h4.8c-.4 1.9-.7 3.9-.8 6zm3.7 12h3.6c.6 1.7 1.3 3.1 2.1 4.4-2.2-1-4.1-2.5-5.7-4.4zm19.6 4.5c.8-1.3 1.6-2.8 2.1-4.4h3.6c-1.5 1.8-3.5 3.3-5.7 4.4z" fill="#d40511"/></svg>